STARTFONT 2.1
COMMENT
COMMENT Converted from OpenType font "BAHNSCHRIFT.TTF" by "otf2bdf 3.0".
COMMENT
FONT -FreeType-Bahnschrift-Medium-R-Normal--28-410-50-50-P-134-ISO10646-1
SIZE 41 50 50
FONTBOUNDINGBOX 61 36 -30 -7
STARTPROPERTIES 19
FOUNDRY "FreeType"
FAMILY_NAME "Bahnschrift"
WEIGHT_NAME "Medium"
SLANT "R"
SETWIDTH_NAME "Normal"
ADD_STYLE_NAME ""
PIXEL_SIZE 28
POINT_SIZE 410
RESOLUTION_X 50
RESOLUTION_Y 50
SPACING "P"
AVERAGE_WIDTH 134
CHARSET_REGISTRY "ISO10646"
CHARSET_ENCODING "1"
FONT_ASCENT 27
FONT_DESCENT 5
COPYRIGHT "© 2018 Microsoft Corporation. All rights reserved."
_OTF_FONTFILE "BAHNSCHRIFT.TTF"
_OTF_PSNAME "Bahnschrift"
ENDPROPERTIES
CHARS 803
STARTCHAR 0020
ENCODING 32
SWIDTH 175 0
DWIDTH 5 0
BBX 0 0 0 0
BITMAP
ENDCHAR
STARTCHAR 0021
ENCODING 33
SWIDTH 210 0
DWIDTH 6 0
BBX 3 20 2 0
BITMAP
E0
E0
E0
E0
E0
E0
E0
E0
E0
E0
E0
E0
E0
E0
00
00
00
E0
E0
E0
ENDCHAR
STARTCHAR 0022
ENCODING 34
SWIDTH 386 0
DWIDTH 11 0
BBX 7 7 2 13
BITMAP
EE
EE
EE
EE
EE
EE
EE
ENDCHAR
STARTCHAR 0023
ENCODING 35
SWIDTH 597 0
DWIDTH 17 0
BBX 16 20 1 0
BITMAP
0718
0618
0618
0618
0638
7FFF
7FFF
0C30
0C30
0C30
0C70
1C70
1C60
FFFE
FFFE
1860
18E0
38E0
38C0
30C0
ENDCHAR
STARTCHAR 0024
ENCODING 36
SWIDTH 561 0
DWIDTH 16 0
BBX 13 24 2 -2
BITMAP
0700
0700
1F80
3FF0
7FF0
F720
E700
E700
E700
F700
7F00
7FC0
1FE0
07F0
0770
0738
0738
4738
E770
FFF0
7FE0
1F80
0700
0700
ENDCHAR
STARTCHAR 0025
ENCODING 37
SWIDTH 667 0
DWIDTH 19 0
BBX 17 20 1 0
BITMAP
3C0E00
7C0C00
EE1C00
E61800
E63800
E63000
EE7000
7E6000
3CE000
00C000
01C000
038E00
031F00
073B80
063980
0E3980
0C3980
1C3B80
181F00
380E00
ENDCHAR
STARTCHAR 0026
ENCODING 38
SWIDTH 632 0
DWIDTH 18 0
BBX 15 20 2 0
BITMAP
0FC0
1FE0
3FF0
3870
3870
3830
3800
3800
3800
3C00
7E0C
FF0C
E79C
E3DC
C1FC
E0F8
E078
7FF8
7FFC
1F8E
ENDCHAR
STARTCHAR 0027
ENCODING 39
SWIDTH 175 0
DWIDTH 5 0
BBX 3 7 1 13
BITMAP
E0
E0
E0
E0
E0
E0
E0
ENDCHAR
STARTCHAR 0028
ENCODING 40
SWIDTH 351 0
DWIDTH 10 0
BBX 7 26 2 -4
BITMAP
04
0E
1E
1C
38
38
70
70
70
60
60
E0
E0
E0
60
60
60
70
70
70
38
38
1C
1E
0E
04
ENDCHAR
STARTCHAR 0029
ENCODING 41
SWIDTH 351 0
DWIDTH 10 0
BBX 6 26 1 -4
BITMAP
40
C0
E0
70
70
38
38
18
1C
1C
1C
1C
1C
1C
1C
1C
1C
1C
18
38
38
70
70
E0
C0
40
ENDCHAR
STARTCHAR 002A
ENCODING 42
SWIDTH 421 0
DWIDTH 12 0
BBX 10 10 1 11
BITMAP
0C00
0C00
0C00
EDC0
FFC0
1F00
1E00
3F00
7380
2100
ENDCHAR
STARTCHAR 002B
ENCODING 43
SWIDTH 526 0
DWIDTH 15 0
BBX 11 11 2 4
BITMAP
0E00
0E00
0E00
0E00
FFE0
FFE0
FFE0
0E00
0E00
0E00
0E00
ENDCHAR
STARTCHAR 002C
ENCODING 44
SWIDTH 210 0
DWIDTH 6 0
BBX 3 5 2 -3
BITMAP
E0
E0
E0
C0
80
ENDCHAR
STARTCHAR 002D
ENCODING 45
SWIDTH 456 0
DWIDTH 13 0
BBX 9 3 2 6
BITMAP
FF80
FF80
FF80
ENDCHAR
STARTCHAR 002E
ENCODING 46
SWIDTH 210 0
DWIDTH 6 0
BBX 3 3 2 0
BITMAP
E0
E0
E0
ENDCHAR
STARTCHAR 002F
ENCODING 47
SWIDTH 386 0
DWIDTH 11 0
BBX 12 26 0 -4
BITMAP
0070
0060
00E0
00E0
01C0
01C0
0180
0380
0380
0300
0700
0700
0600
0E00
0E00
0C00
1C00
1C00
1800
3800
3800
7000
7000
6000
E000
E000
ENDCHAR
STARTCHAR 0030
ENCODING 48
SWIDTH 526 0
DWIDTH 15 0
BBX 11 20 2 0
BITMAP
1F00
7FC0
7FE0
F0E0
E0E0
E060
E060
E060
E060
E060
E060
E060
E060
E060
E060
E0E0
F0E0
7FE0
7FC0
1F00
ENDCHAR
STARTCHAR 0031
ENCODING 49
SWIDTH 316 0
DWIDTH 9 0
BBX 6 20 1 0
BITMAP
3C
7C
FC
DC
9C
1C
1C
1C
1C
1C
1C
1C
1C
1C
1C
1C
1C
1C
1C
1C
ENDCHAR
STARTCHAR 0032
ENCODING 50
SWIDTH 491 0
DWIDTH 14 0
BBX 11 20 2 0
BITMAP
1F00
7FC0
FFC0
E1E0
E0E0
00E0
00E0
01C0
01C0
0380
0700
0F00
0E00
1C00
3C00
7800
7000
FFE0
FFE0
FFE0
ENDCHAR
STARTCHAR 0033
ENCODING 51
SWIDTH 526 0
DWIDTH 15 0
BBX 12 20 1 0
BITMAP
0F80
3FC0
7FE0
70E0
7070
0070
0060
00E0
07C0
0780
07C0
00E0
0070
0070
0070
E070
70F0
7FE0
3FE0
0F80
ENDCHAR
STARTCHAR 0034
ENCODING 52
SWIDTH 561 0
DWIDTH 16 0
BBX 13 20 2 0
BITMAP
0380
0380
0700
0700
0E00
0E00
1C00
1C00
1CE0
38E0
38E0
70E0
70E0
E0E0
FFF8
FFF8
FFF8
00E0
00E0
00E0
ENDCHAR
STARTCHAR 0035
ENCODING 53
SWIDTH 526 0
DWIDTH 15 0
BBX 11 20 2 0
BITMAP
FFE0
FFE0
FFE0
E000
E000
E000
EF00
FFC0
FFC0
F0E0
00E0
00E0
00E0
00E0
00E0
E0E0
F0E0
7FC0
3FC0
1F00
ENDCHAR
STARTCHAR 0036
ENCODING 54
SWIDTH 491 0
DWIDTH 14 0
BBX 11 20 2 0
BITMAP
0700
0700
0E00
0E00
1C00
1C00
3800
3800
7F00
7F80
FFC0
E1C0
E0E0
C0E0
C0E0
E0E0
E1C0
FFC0
7F80
1F00
ENDCHAR
STARTCHAR 0037
ENCODING 55
SWIDTH 491 0
DWIDTH 14 0
BBX 10 20 2 0
BITMAP
FFC0
FFC0
FFC0
C1C0
C1C0
C180
0380
0380
0380
0700
0700
0700
0E00
0E00
0E00
0E00
1C00
1C00
1C00
3800
ENDCHAR
STARTCHAR 0038
ENCODING 56
SWIDTH 561 0
DWIDTH 16 0
BBX 12 20 2 0
BITMAP
1F00
3FC0
7FE0
F0E0
E060
E070
E060
70E0
7FC0
3F80
7FE0
F0E0
E070
E070
E070
E070
F0F0
7FE0
3FC0
1F80
ENDCHAR
STARTCHAR 0039
ENCODING 57
SWIDTH 491 0
DWIDTH 14 0
BBX 11 20 2 0
BITMAP
1F00
7F80
FFC0
E1C0
E0E0
C0E0
C0E0
E0E0
E1C0
FFC0
7FC0
3F80
0380
0700
0700
0E00
0E00
1C00
1C00
3800
ENDCHAR
STARTCHAR 003A
ENCODING 58
SWIDTH 210 0
DWIDTH 6 0
BBX 3 14 2 0
BITMAP
E0
E0
E0
00
00
00
00
00
00
00
00
E0
E0
E0
ENDCHAR
STARTCHAR 003B
ENCODING 59
SWIDTH 210 0
DWIDTH 6 0
BBX 3 16 2 -3
BITMAP
E0
E0
E0
00
00
00
00
00
00
00
00
E0
E0
E0
C0
80
ENDCHAR
STARTCHAR 003C
ENCODING 60
SWIDTH 421 0
DWIDTH 12 0
BBX 9 11 1 4
BITMAP
0080
0180
0780
1F00
3E00
F800
3E00
1F00
0780
0180
0080
ENDCHAR
STARTCHAR 003D
ENCODING 61
SWIDTH 456 0
DWIDTH 13 0
BBX 9 8 2 5
BITMAP
FF80
FF80
FF80
0000
0000
FF80
FF80
FF80
ENDCHAR
STARTCHAR 003E
ENCODING 62
SWIDTH 421 0
DWIDTH 12 0
BBX 9 11 2 4
BITMAP
8000
C000
F000
7C00
3E00
0F80
3E00
7C00
F000
C000
8000
ENDCHAR
STARTCHAR 003F
ENCODING 63
SWIDTH 421 0
DWIDTH 12 0
BBX 10 20 1 0
BITMAP
3E00
7F80
FF80
E1C0
E1C0
C1C0
01C0
0380
0380
0700
0E00
0E00
1C00
1C00
1C00
0000
0000
1C00
1C00
1C00
ENDCHAR
STARTCHAR 0040
ENCODING 64
SWIDTH 878 0
DWIDTH 25 0
BBX 21 25 2 -5
BITMAP
01FC00
0FFF80
1FFFC0
3C01E0
7800E0
70F870
63FC30
E3FE38
E70738
E70738
E70738
E70738
E70738
E70738
E70738
E70738
E70738
E3FFF8
E3FBF0
60F1E0
700000
380000
3E0000
1FFE00
07FE00
ENDCHAR
STARTCHAR 0041
ENCODING 65
SWIDTH 632 0
DWIDTH 18 0
BBX 16 20 1 0
BITMAP
0180
03C0
03C0
03E0
07E0
0760
0E70
0E70
0C30
1C38
1C38
1818
381C
3FFC
3FFE
7FFE
700E
E007
E007
E007
ENDCHAR
STARTCHAR 0042
ENCODING 66
SWIDTH 632 0
DWIDTH 18 0
BBX 14 20 2 0
BITMAP
FFE0
FFF8
FFF8
E01C
E01C
E01C
E01C
E01C
E0F8
FFE0
FFF0
E038
E01C
E01C
E00C
E01C
E01C
E1FC
FFF8
FFE0
ENDCHAR
STARTCHAR 0043
ENCODING 67
SWIDTH 597 0
DWIDTH 17 0
BBX 14 20 2 0
BITMAP
0FC0
3FE0
3FF0
7878
F038
E01C
E000
E000
E000
E000
E000
E000
E000
E000
E01C
F038
7878
3FF0
3FE0
0FC0
ENDCHAR
STARTCHAR 0044
ENCODING 68
SWIDTH 632 0
DWIDTH 18 0
BBX 14 20 2 0
BITMAP
FFC0
FFF0
FFF8
E03C
E01C
E01C
E01C
E01C
E01C
E01C
E01C
E01C
E01C
E01C
E01C
E01C
E03C
FFF8
FFF0
FFC0
ENDCHAR
STARTCHAR 0045
ENCODING 69
SWIDTH 597 0
DWIDTH 17 0
BBX 13 20 2 0
BITMAP
FFF8
FFF8
FFF8
E000
E000
E000
E000
E000
FFF0
FFF0
FFF0
E000
E000
E000
E000
E000
E000
FFF8
FFF8
FFF8
ENDCHAR
STARTCHAR 0046
ENCODING 70
SWIDTH 561 0
DWIDTH 16 0
BBX 13 20 2 0
BITMAP
FFF8
FFF8
FFF8
E000
E000
E000
E000
E000
E000
FFE0
FFE0
FFE0
E000
E000
E000
E000
E000
E000
E000
E000
ENDCHAR
STARTCHAR 0047
ENCODING 71
SWIDTH 632 0
DWIDTH 18 0
BBX 14 20 2 0
BITMAP
0FC0
3FE0
3FF0
7878
F038
E01C
E000
E000
E000
E1FC
E1FC
E1FC
E01C
E01C
E01C
F03C
7838
7FF8
3FF0
0FC0
ENDCHAR
STARTCHAR 0048
ENCODING 72
SWIDTH 667 0
DWIDTH 19 0
BBX 15 20 2 0
BITMAP
E00E
E00E
E00E
E00E
E00E
E00E
E00E
E00E
FFFE
FFFE
FFFE
E00E
E00E
E00E
E00E
E00E
E00E
E00E
E00E
E00E
ENDCHAR
STARTCHAR 0049
ENCODING 73
SWIDTH 280 0
DWIDTH 8 0
BBX 3 20 2 0
BITMAP
E0
E0
E0
E0
E0
E0
E0
E0
E0
E0
E0
E0
E0
E0
E0
E0
E0
E0
E0
E0
ENDCHAR
STARTCHAR 004A
ENCODING 74
SWIDTH 491 0
DWIDTH 14 0
BBX 12 20 0 0
BITMAP
0070
0070
0070
0070
0070
0070
0070
0070
0070
0070
0070
0070
0070
0070
0070
00E0
20E0
FFE0
7FC0
1F00
ENDCHAR
STARTCHAR 004B
ENCODING 75
SWIDTH 632 0
DWIDTH 18 0
BBX 15 20 2 0
BITMAP
E01C
E03C
E078
E070
E0E0
E1C0
E3C0
E380
E780
EF80
FDC0
F9E0
F8E0
F0F0
E070
E038
E03C
E01C
E01E
E00E
ENDCHAR
STARTCHAR 004C
ENCODING 76
SWIDTH 561 0
DWIDTH 16 0
BBX 13 20 2 0
BITMAP
E000
E000
E000
E000
E000
E000
E000
E000
E000
E000
E000
E000
E000
E000
E000
E000
E000
FFF8
FFF8
FFF8
ENDCHAR
STARTCHAR 004D
ENCODING 77
SWIDTH 772 0
DWIDTH 22 0
BBX 17 20 2 0
BITMAP
E00180
F00380
F00380
F80780
F80780
FC0F80
FC0F80
EC1D80
EE1D80
E61980
E73980
E73180
E3F180
E3F180
E1E180
E1E180
E0C180
E00180
E00180
E00180
ENDCHAR
STARTCHAR 004E
ENCODING 78
SWIDTH 702 0
DWIDTH 20 0
BBX 15 20 2 0
BITMAP
E00E
F00E
F80E
F80E
FC0E
FC0E
EE0E
E70E
E70E
E38E
E1CE
E1CE
E0EE
E0EE
E07E
E03E
E03E
E01E
E00E
E00E
ENDCHAR
STARTCHAR 004F
ENCODING 79
SWIDTH 632 0
DWIDTH 18 0
BBX 14 20 2 0
BITMAP
0FC0
3FF0
7FF8
7878
F03C
E01C
E01C
E01C
E01C
E01C
E01C
E01C
E01C
E01C
E01C
F03C
7838
7FF8
3FF0
0FC0
ENDCHAR
STARTCHAR 0050
ENCODING 80
SWIDTH 597 0
DWIDTH 17 0
BBX 14 20 2 0
BITMAP
FFE0
FFF0
FFF8
E03C
E01C
E01C
E01C
E01C
E03C
FFF8
FFF0
FFE0
E000
E000
E000
E000
E000
E000
E000
E000
ENDCHAR
STARTCHAR 0051
ENCODING 81
SWIDTH 632 0
DWIDTH 18 0
BBX 16 20 2 0
BITMAP
0FC0
3FF0
7FF8
7878
F03C
E01C
E01C
E01C
E01C
E01C
E01C
E01C
E01C
E0DC
E1FC
F0FC
7838
7FFE
3FFF
0FC2
ENDCHAR
STARTCHAR 0052
ENCODING 82
SWIDTH 632 0
DWIDTH 18 0
BBX 15 20 2 0
BITMAP
FFE0
FFF0
FFF8
E03C
E01C
E01C
E01C
E01C
E03C
FFF8
FFF0
FFE0
E0E0
E0E0
E070
E070
E038
E03C
E01C
E01E
ENDCHAR
STARTCHAR 0053
ENCODING 83
SWIDTH 597 0
DWIDTH 17 0
BBX 15 20 1 0
BITMAP
07E0
1FFC
3FFC
3808
7000
7000
7000
7800
3E00
1FE0
0FF8
007C
001C
000E
000E
200E
701C
FFFC
3FF8
0FE0
ENDCHAR
STARTCHAR 0054
ENCODING 84
SWIDTH 456 0
DWIDTH 13 0
BBX 14 20 0 0
BITMAP
FFFC
FFFC
FFFC
0700
0700
0700
0700
0700
0700
0700
0700
0700
0700
0700
0700
0700
0700
0700
0700
0700
ENDCHAR
STARTCHAR 0055
ENCODING 85
SWIDTH 632 0
DWIDTH 18 0
BBX 14 20 2 0
BITMAP
E01C
E01C
E01C
E01C
E01C
E01C
E01C
E01C
E01C
E01C
E01C
E01C
E01C
E01C
E01C
701C
7838
3FF8
3FF0
0FC0
ENDCHAR
STARTCHAR 0056
ENCODING 86
SWIDTH 561 0
DWIDTH 16 0
BBX 15 20 1 0
BITMAP
E00E
E00E
E01C
701C
701C
7038
3038
3838
3870
3870
1C70
1CE0
1CE0
0EE0
0EC0
0FC0
07C0
0780
0780
0380
ENDCHAR
STARTCHAR 0057
ENCODING 87
SWIDTH 842 0
DWIDTH 24 0
BBX 22 20 1 0
BITMAP
C0301C
E0701C
E0701C
E07818
E07838
70F838
70F838
70FC30
70CC70
31CC70
39CE70
398E70
398660
1B86E0
1F87E0
1F07E0
1F03C0
0F03C0
0F03C0
0E03C0
ENDCHAR
STARTCHAR 0058
ENCODING 88
SWIDTH 561 0
DWIDTH 16 0
BBX 14 20 1 0
BITMAP
E01C
E038
7038
3870
3870
1CE0
1DC0
0FC0
0780
0780
0780
0F80
0FC0
1CE0
1CE0
3870
7070
7038
E01C
E01C
ENDCHAR
STARTCHAR 0059
ENCODING 89
SWIDTH 491 0
DWIDTH 14 0
BBX 14 20 0 0
BITMAP
E01C
E01C
7038
7038
3870
3870
1CE0
1CE0
0FC0
0FC0
0780
0780
0300
0300
0300
0300
0300
0300
0300
0300
ENDCHAR
STARTCHAR 005A
ENCODING 90
SWIDTH 526 0
DWIDTH 15 0
BBX 12 20 2 0
BITMAP
FFF0
FFF0
FFF0
00E0
01E0
01C0
0380
0380
0700
0F00
0E00
1C00
1C00
3800
7800
7000
F000
FFF0
FFF0
FFF0
ENDCHAR
STARTCHAR 005B
ENCODING 91
SWIDTH 280 0
DWIDTH 8 0
BBX 5 26 3 -4
BITMAP
F8
F8
F8
C0
C0
C0
C0
C0
C0
C0
C0
C0
C0
C0
C0
C0
C0
C0
C0
C0
C0
C0
C0
F8
F8
F8
ENDCHAR
STARTCHAR 005C
ENCODING 92
SWIDTH 386 0
DWIDTH 11 0
BBX 12 26 -1 -4
BITMAP
E000
E000
6000
7000
7000
3000
3800
1800
1C00
1C00
0C00
0E00
0E00
0600
0700
0700
0300
0380
0380
0180
01C0
01C0
00C0
00E0
0060
0070
ENDCHAR
STARTCHAR 005D
ENCODING 93
SWIDTH 280 0
DWIDTH 8 0
BBX 6 26 0 -4
BITMAP
FC
FC
FC
1C
1C
1C
1C
1C
1C
1C
1C
1C
1C
1C
1C
1C
1C
1C
1C
1C
1C
1C
1C
FC
FC
FC
ENDCHAR
STARTCHAR 005E
ENCODING 94
SWIDTH 491 0
DWIDTH 14 0
BBX 10 7 2 15
BITMAP
0C00
1E00
1F00
3F00
7380
73C0
E1C0
ENDCHAR
STARTCHAR 005F
ENCODING 95
SWIDTH 421 0
DWIDTH 12 0
BBX 12 3 0 -2
BITMAP
FFF0
FFF0
FFF0
ENDCHAR
STARTCHAR 0060
ENCODING 96
SWIDTH 280 0
DWIDTH 8 0
BBX 6 6 1 17
BITMAP
20
E0
70
38
1C
08
ENDCHAR
STARTCHAR 0061
ENCODING 97
SWIDTH 526 0
DWIDTH 15 0
BBX 11 14 2 0
BITMAP
3F00
7FC0
7FC0
00E0
00E0
00E0
7FE0
FFE0
E0E0
C0E0
C0E0
F1E0
FFE0
3EE0
ENDCHAR
STARTCHAR 0062
ENCODING 98
SWIDTH 526 0
DWIDTH 15 0
BBX 11 20 2 0
BITMAP
E000
E000
E000
E000
E000
E000
E780
FFC0
FFE0
F0E0
E060
E060
E060
E060
E060
E060
E0E0
FFE0
FFC0
E780
ENDCHAR
STARTCHAR 0063
ENCODING 99
SWIDTH 491 0
DWIDTH 14 0
BBX 11 14 2 0
BITMAP
1F80
7FC0
7FE0
F0C0
E000
E000
E000
E000
E000
E000
F0C0
7FE0
7FC0
1F80
ENDCHAR
STARTCHAR 0064
ENCODING 100
SWIDTH 526 0
DWIDTH 15 0
BBX 11 20 2 0
BITMAP
00E0
00E0
00E0
00E0
00E0
00E0
3EE0
7FE0
FFE0
E0E0
E0E0
E0E0
E0E0
E0E0
E0E0
E0E0
E0E0
FFE0
7FE0
3EE0
ENDCHAR
STARTCHAR 0065
ENCODING 101
SWIDTH 526 0
DWIDTH 15 0
BBX 11 14 2 0
BITMAP
1F00
7FC0
7FC0
E0E0
E0E0
C060
FFE0
FFE0
C000
E000
F040
7FE0
7FC0
1F00
ENDCHAR
STARTCHAR 0066
ENCODING 102
SWIDTH 316 0
DWIDTH 9 0
BBX 7 20 1 0
BITMAP
1E
3E
3E
30
30
30
FE
FE
FE
30
30
30
30
30
30
30
30
30
30
30
ENDCHAR
STARTCHAR 0067
ENCODING 103
SWIDTH 526 0
DWIDTH 15 0
BBX 11 20 2 -6
BITMAP
3EE0
7FE0
FFE0
E0E0
E0E0
E0E0
E0E0
E0E0
E0E0
E0E0
E0E0
FFE0
7FE0
3EE0
00E0
00E0
61E0
FFC0
7F80
1E00
ENDCHAR
STARTCHAR 0068
ENCODING 104
SWIDTH 561 0
DWIDTH 16 0
BBX 12 20 2 0
BITMAP
E000
E000
E000
E000
E000
E000
E780
EFC0
FFE0
F0E0
E070
E070
E070
E070
E070
E070
E070
E070
E070
E070
ENDCHAR
STARTCHAR 0069
ENCODING 105
SWIDTH 245 0
DWIDTH 7 0
BBX 3 20 2 0
BITMAP
E0
E0
E0
00
00
00
E0
E0
E0
E0
E0
E0
E0
E0
E0
E0
E0
E0
E0
E0
ENDCHAR
STARTCHAR 006A
ENCODING 106
SWIDTH 280 0
DWIDTH 8 0
BBX 5 26 0 -6
BITMAP
18
18
18
00
00
00
18
18
18
18
18
18
18
18
18
18
18
18
18
18
18
18
18
F8
F8
F0
ENDCHAR
STARTCHAR 006B
ENCODING 107
SWIDTH 526 0
DWIDTH 15 0
BBX 12 20 2 0
BITMAP
E000
E000
E000
E000
E000
E000
E0F0
E1E0
E1C0
E380
E700
EE00
FF00
FB80
F380
E1C0
E1C0
E0E0
E070
E070
ENDCHAR
STARTCHAR 006C
ENCODING 108
SWIDTH 280 0
DWIDTH 8 0
BBX 5 20 2 0
BITMAP
E0
E0
E0
E0
E0
E0
E0
E0
E0
E0
E0
E0
E0
E0
E0
E0
E0
F8
78
38
ENDCHAR
STARTCHAR 006D
ENCODING 109
SWIDTH 842 0
DWIDTH 24 0
BBX 20 14 2 0
BITMAP
E78780
EFCFE0
FFFFE0
F0F0F0
E0F070
E06070
E06070
E06070
E06070
E06070
E06070
E06070
E06070
E06070
ENDCHAR
STARTCHAR 006E
ENCODING 110
SWIDTH 561 0
DWIDTH 16 0
BBX 12 14 2 0
BITMAP
E780
EFC0
FFE0
F0E0
E070
E070
E070
E070
E070
E070
E070
E070
E070
E070
ENDCHAR
STARTCHAR 006F
ENCODING 111
SWIDTH 526 0
DWIDTH 15 0
BBX 11 14 2 0
BITMAP
1F00
7FC0
7FE0
E0E0
E0E0
E060
E060
E060
E060
E0E0
E0E0
7FE0
7FC0
1F00
ENDCHAR
STARTCHAR 0070
ENCODING 112
SWIDTH 526 0
DWIDTH 15 0
BBX 11 20 2 -6
BITMAP
E780
FFC0
FFE0
F0E0
E060
E060
E060
E060
E060
E060
E0E0
FFE0
FFC0
E780
E000
E000
E000
E000
E000
E000
ENDCHAR
STARTCHAR 0071
ENCODING 113
SWIDTH 526 0
DWIDTH 15 0
BBX 11 20 2 -6
BITMAP
3EE0
7FE0
FFE0
E0E0
E0E0
E0E0
E0E0
E0E0
E0E0
E0E0
E0E0
FFE0
7FE0
3EE0
00E0
00E0
00E0
00E0
00E0
00E0
ENDCHAR
STARTCHAR 0072
ENCODING 114
SWIDTH 421 0
DWIDTH 12 0
BBX 10 14 2 0
BITMAP
E780
EFC0
FF80
F000
E000
E000
E000
E000
E000
E000
E000
E000
E000
E000
ENDCHAR
STARTCHAR 0073
ENCODING 115
SWIDTH 526 0
DWIDTH 15 0
BBX 12 14 1 0
BITMAP
1F80
3FF0
7FF0
7020
6000
7800
7FE0
1FF0
0070
0030
6070
FFF0
7FE0
1FC0
ENDCHAR
STARTCHAR 0074
ENCODING 116
SWIDTH 316 0
DWIDTH 9 0
BBX 7 18 1 0
BITMAP
30
30
30
30
FE
FE
FE
30
30
30
30
30
30
30
30
3E
3E
1E
ENDCHAR
STARTCHAR 0075
ENCODING 117
SWIDTH 561 0
DWIDTH 16 0
BBX 12 14 2 0
BITMAP
E070
E070
E070
E070
E070
E070
E070
E070
E070
E070
F0F0
7FF0
7F70
1E70
ENDCHAR
STARTCHAR 0076
ENCODING 118
SWIDTH 491 0
DWIDTH 14 0
BBX 12 14 1 0
BITMAP
E070
E070
6070
70E0
70E0
38C0
39C0
19C0
1D80
1F80
0F00
0F00
0F00
0600
ENDCHAR
STARTCHAR 0077
ENCODING 119
SWIDTH 772 0
DWIDTH 22 0
BBX 20 14 1 0
BITMAP
E06070
E0E060
70F0E0
70F0E0
71F0C0
31B8C0
3999C0
3B9DC0
1B1D80
1B0D80
1F0F80
0E0F00
0E0700
0E0700
ENDCHAR
STARTCHAR 0078
ENCODING 120
SWIDTH 491 0
DWIDTH 14 0
BBX 12 14 1 0
BITMAP
E070
70E0
38E0
39C0
1F80
0F80
0F00
0F00
0F80
1F80
39C0
38E0
7070
E070
ENDCHAR
STARTCHAR 0079
ENCODING 121
SWIDTH 491 0
DWIDTH 14 0
BBX 12 20 1 -6
BITMAP
E070
E070
6060
70E0
70E0
38C0
39C0
19C0
1F80
1F80
0F80
0F00
0F00
0700
0E00
0E00
1C00
3C00
3C00
3000
ENDCHAR
STARTCHAR 007A
ENCODING 122
SWIDTH 491 0
DWIDTH 14 0
BBX 10 14 2 0
BITMAP
FFC0
FFC0
FFC0
0380
0700
0F00
0E00
1C00
3800
7800
7000
FFC0
FFC0
FFC0
ENDCHAR
STARTCHAR 007B
ENCODING 123
SWIDTH 351 0
DWIDTH 10 0
BBX 8 28 2 -5
BITMAP
07
1F
1F
3C
38
38
38
38
38
38
38
38
F8
F0
F0
38
38
38
38
38
38
38
38
38
3C
1F
0F
07
ENDCHAR
STARTCHAR 007C
ENCODING 124
SWIDTH 280 0
DWIDTH 8 0
BBX 3 24 2 -2
BITMAP
E0
E0
E0
E0
E0
E0
E0
E0
E0
E0
E0
E0
E0
E0
E0
E0
E0
E0
E0
E0
E0
E0
E0
E0
ENDCHAR
STARTCHAR 007D
ENCODING 125
SWIDTH 351 0
DWIDTH 10 0
BBX 7 28 1 -5
BITMAP
C0
F0
F0
38
38
38
38
38
38
38
38
38
3E
1E
1E
38
38
38
38
38
38
38
38
38
38
F0
F0
C0
ENDCHAR
STARTCHAR 007E
ENCODING 126
SWIDTH 491 0
DWIDTH 14 0
BBX 11 5 2 7
BITMAP
30E0
7CE0
FFC0
EFC0
C380
ENDCHAR
STARTCHAR 00A0
ENCODING 160
SWIDTH 175 0
DWIDTH 5 0
BBX 0 0 0 0
BITMAP
ENDCHAR
STARTCHAR 00A1
ENCODING 161
SWIDTH 210 0
DWIDTH 6 0
BBX 3 20 2 -6
BITMAP
E0
E0
E0
00
00
00
E0
E0
E0
E0
E0
E0
E0
E0
E0
E0
E0
E0
E0
E0
ENDCHAR
STARTCHAR 00A2
ENCODING 162
SWIDTH 456 0
DWIDTH 13 0
BBX 10 18 2 -2
BITMAP
0E00
0E00
1F00
7FC0
7FC0
FE80
EE00
EE00
EE00
EE00
EE00
EE00
EE80
7FC0
7FC0
1F00
0E00
0E00
ENDCHAR
STARTCHAR 00A3
ENCODING 163
SWIDTH 597 0
DWIDTH 17 0
BBX 14 20 1 0
BITMAP
03E0
0FF8
1FFC
1C1C
381C
380C
3800
3800
3800
3800
3800
7FE0
7FE0
3800
3800
3800
3800
FFFC
FFFC
FFFC
ENDCHAR
STARTCHAR 00A4
ENCODING 164
SWIDTH 561 0
DWIDTH 16 0
BBX 12 13 2 3
BITMAP
4020
FFF0
FFF0
7FE0
70E0
6070
E070
6070
70E0
7FE0
FFF0
FFF0
4020
ENDCHAR
STARTCHAR 00A5
ENCODING 165
SWIDTH 491 0
DWIDTH 14 0
BBX 14 20 0 0
BITMAP
E01C
E01C
7038
7038
3870
1870
1CE0
0EE0
0FC0
0780
0780
0300
3FF0
3FF0
0300
0300
3FF0
3FF0
0300
0300
ENDCHAR
STARTCHAR 00A6
ENCODING 166
SWIDTH 280 0
DWIDTH 8 0
BBX 3 24 2 -2
BITMAP
E0
E0
E0
E0
E0
E0
E0
E0
E0
E0
00
00
00
00
00
E0
E0
E0
E0
E0
E0
E0
E0
E0
ENDCHAR
STARTCHAR 00A7
ENCODING 167
SWIDTH 561 0
DWIDTH 16 0
BBX 14 23 1 -3
BITMAP
0FC0
1FF0
3FF0
3820
7000
3000
3C00
3FC0
3FF0
7FF8
E03C
E01C
E01C
783C
7FF8
1FF0
01F0
0038
0038
2038
7FF0
7FF0
1FC0
ENDCHAR
STARTCHAR 00A8
ENCODING 168
SWIDTH 386 0
DWIDTH 11 0
BBX 9 3 1 17
BITMAP
E380
E380
E380
ENDCHAR
STARTCHAR 00A9
ENCODING 169
SWIDTH 702 0
DWIDTH 20 0
BBX 16 17 2 5
BITMAP
0FE0
3FF8
783C
700E
E3C6
C7E7
CE43
CC03
CC03
CC03
CE63
C7E7
E3C6
700E
7C3C
3FF8
0FE0
ENDCHAR
STARTCHAR 00AA
ENCODING 170
SWIDTH 351 0
DWIDTH 10 0
BBX 7 9 1 11
BITMAP
3C
7E
06
06
7E
E6
E6
7E
7E
ENDCHAR
STARTCHAR 00AB
ENCODING 171
SWIDTH 491 0
DWIDTH 14 0
BBX 12 10 1 2
BITMAP
1E70
1CE0
39C0
73C0
E380
E380
73C0
39C0
1CE0
1E70
ENDCHAR
STARTCHAR 00AC
ENCODING 172
SWIDTH 526 0
DWIDTH 15 0
BBX 11 7 2 5
BITMAP
FFE0
FFE0
FFE0
00E0
00E0
00E0
00E0
ENDCHAR
STARTCHAR 00AD
ENCODING 173
SWIDTH 456 0
DWIDTH 13 0
BBX 9 3 2 6
BITMAP
FF80
FF80
FF80
ENDCHAR
STARTCHAR 00AE
ENCODING 174
SWIDTH 702 0
DWIDTH 20 0
BBX 16 17 2 5
BITMAP
0FE0
3FF8
783C
700E
EFC6
CFE7
CE63
CE63
CFE3
CFC3
CEE3
CE67
EE76
700E
7C3C
3FF8
0FE0
ENDCHAR
STARTCHAR 00AF
ENCODING 175
SWIDTH 421 0
DWIDTH 12 0
BBX 10 3 1 17
BITMAP
FFC0
FFC0
FFC0
ENDCHAR
STARTCHAR 00B0
ENCODING 176
SWIDTH 351 0
DWIDTH 10 0
BBX 8 8 1 12
BITMAP
3C
7E
E7
C3
C3
E7
7E
3C
ENDCHAR
STARTCHAR 00B1
ENCODING 177
SWIDTH 526 0
DWIDTH 15 0
BBX 11 11 2 4
BITMAP
0E00
0E00
0E00
FFE0
FFE0
FFE0
0E00
0E00
0E00
FFE0
FFE0
ENDCHAR
STARTCHAR 00B2
ENCODING 178
SWIDTH 316 0
DWIDTH 9 0
BBX 7 9 1 11
BITMAP
38
7C
EE
0C
1C
38
70
7E
7E
ENDCHAR
STARTCHAR 00B3
ENCODING 179
SWIDTH 316 0
DWIDTH 9 0
BBX 7 9 1 11
BITMAP
3C
7E
E6
1E
1C
06
E6
7E
3C
ENDCHAR
STARTCHAR 00B4
ENCODING 180
SWIDTH 280 0
DWIDTH 8 0
BBX 6 6 1 17
BITMAP
08
1C
38
70
E0
40
ENDCHAR
STARTCHAR 00B5
ENCODING 181
SWIDTH 597 0
DWIDTH 17 0
BBX 14 18 2 -4
BITMAP
E070
E070
E070
E070
E070
E070
E070
E070
E070
E070
F0F0
FFFC
FFFC
EF3C
E000
E000
E000
E000
ENDCHAR
STARTCHAR 00B6
ENCODING 182
SWIDTH 667 0
DWIDTH 19 0
BBX 17 23 1 -3
BITMAP
0FFF80
3FFF80
7FFF80
7FE700
FFE700
FFE700
FFE700
FFE700
FFE700
7FE700
7FE700
3FE700
1FE700
00E700
00E700
00E700
00E700
00E700
00E700
00E700
00E700
00E700
00E700
ENDCHAR
STARTCHAR 00B7
ENCODING 183
SWIDTH 210 0
DWIDTH 6 0
BBX 2 3 2 6
BITMAP
C0
C0
C0
ENDCHAR
STARTCHAR 00B8
ENCODING 184
SWIDTH 280 0
DWIDTH 8 0
BBX 6 7 1 -6
BITMAP
70
70
70
7C
1C
7C
F8
ENDCHAR
STARTCHAR 00B9
ENCODING 185
SWIDTH 245 0
DWIDTH 7 0
BBX 5 9 1 11
BITMAP
38
F8
F8
B8
38
38
38
38
38
ENDCHAR
STARTCHAR 00BA
ENCODING 186
SWIDTH 351 0
DWIDTH 10 0
BBX 7 9 1 11
BITMAP
3C
7E
E6
E6
E6
E6
E6
7E
3C
ENDCHAR
STARTCHAR 00BB
ENCODING 187
SWIDTH 491 0
DWIDTH 14 0
BBX 12 10 1 2
BITMAP
E780
7380
39C0
3CE0
1E70
1E70
3CE0
39C0
7380
E780
ENDCHAR
STARTCHAR 00BC
ENCODING 188
SWIDTH 667 0
DWIDTH 19 0
BBX 17 20 1 0
BITMAP
380C00
F81C00
F81800
B83800
383000
387000
386000
38E000
38C000
018000
038000
030000
070E00
060C00
0E1C00
0C1800
1C1B00
183F80
383F80
300300
ENDCHAR
STARTCHAR 00BD
ENCODING 189
SWIDTH 667 0
DWIDTH 19 0
BBX 17 20 1 0
BITMAP
380C00
F81C00
F81800
B83800
383000
387000
386000
38E000
38C000
018000
038000
030F00
071F00
063B80
0E0380
0C0700
1C0E00
181C00
381F80
301F80
ENDCHAR
STARTCHAR 00BE
ENCODING 190
SWIDTH 702 0
DWIDTH 20 0
BBX 17 20 1 0
BITMAP
3C0700
7E0600
E60E00
1E0C00
1C1C00
061800
E63000
7E7000
3C6000
00E000
00C000
01C000
018600
038E00
030C00
070D80
061980
0E1F80
1C1F80
180180
ENDCHAR
STARTCHAR 00BF
ENCODING 191
SWIDTH 421 0
DWIDTH 12 0
BBX 11 20 1 -6
BITMAP
0E00
0E00
0E00
0000
0000
0E00
0E00
0E00
1C00
1C00
3800
7000
7000
E000
E0E0
E0C0
E1C0
7FC0
7F80
1F00
ENDCHAR
STARTCHAR 00C0
ENCODING 192
SWIDTH 632 0
DWIDTH 18 0
BBX 16 26 1 0
BITMAP
0400
0E00
0780
0380
0100
0000
0180
03C0
03C0
03E0
07E0
0760
0E70
0E70
0C30
1C38
1C38
1818
381C
3FFC
3FFE
7FFE
700E
E007
E007
E007
ENDCHAR
STARTCHAR 00C1
ENCODING 193
SWIDTH 632 0
DWIDTH 18 0
BBX 16 26 1 1
BITMAP
0070
00F0
01E0
01C0
0000
0000
0180
03C0
03C0
03E0
07E0
0760
0E70
0E70
0C30
1C38
1C38
1818
381C
3FFC
3FFE
7FFE
700E
E007
E007
E007
ENDCHAR
STARTCHAR 00C2
ENCODING 194
SWIDTH 632 0
DWIDTH 18 0
BBX 16 26 1 0
BITMAP
0180
03C0
07E0
0E70
0420
0000
0180
03C0
03C0
03E0
07E0
0760
0E70
0E70
0C30
1C38
1C38
1818
381C
3FFC
3FFE
7FFE
700E
E007
E007
E007
ENDCHAR
STARTCHAR 00C3
ENCODING 195
SWIDTH 632 0
DWIDTH 18 0
BBX 16 26 1 0
BITMAP
0018
1F18
1FF8
18F8
1800
0000
0180
03C0
03C0
03E0
07E0
0760
0E70
0E70
0C30
1C38
1C38
1818
381C
3FFC
3FFE
7FFE
700E
E007
E007
E007
ENDCHAR
STARTCHAR 00C4
ENCODING 196
SWIDTH 632 0
DWIDTH 18 0
BBX 16 25 1 0
BITMAP
0E70
0E70
0E70
0000
0000
0180
03C0
03C0
03E0
07E0
0760
0E70
0E70
0C30
1C38
1C38
1818
381C
3FFC
3FFE
7FFE
700E
E007
E007
E007
ENDCHAR
STARTCHAR 00C5
ENCODING 197
SWIDTH 632 0
DWIDTH 18 0
BBX 16 26 1 0
BITMAP
03C0
07E0
0660
0660
0660
07E0
0180
03C0
03C0
03C0
07E0
0760
0670
0E70
0E30
1C38
1C38
1C18
381C
3FFC
3FFE
7FFE
700E
E007
E007
E007
ENDCHAR
STARTCHAR 00C6
ENCODING 198
SWIDTH 948 0
DWIDTH 27 0
BBX 26 20 0 0
BITMAP
001FFFC0
003FFFC0
003FFFC0
00770000
00770000
00E70000
01C70000
01C70000
0387FF00
0387FF00
0707FF00
07070000
0E070000
0FFF0000
1FFF0000
3FFF0000
38070000
7007FFC0
7007FFC0
E007FFC0
ENDCHAR
STARTCHAR 00C7
ENCODING 199
SWIDTH 597 0
DWIDTH 17 0
BBX 14 27 2 -7
BITMAP
0FC0
3FE0
3FF0
7878
F038
E01C
E000
E000
E000
E000
E000
E000
E000
E000
E01C
F038
7878
3FF0
3FE0
0FC0
0300
0300
0380
03C0
00C0
07C0
0F80
ENDCHAR
STARTCHAR 00C8
ENCODING 200
SWIDTH 597 0
DWIDTH 17 0
BBX 13 26 2 0
BITMAP
0800
1E00
0F00
0700
0200
0000
FFF8
FFF8
FFF8
E000
E000
E000
E000
E000
FFF0
FFF0
FFF0
E000
E000
E000
E000
E000
E000
FFF8
FFF8
FFF8
ENDCHAR
STARTCHAR 00C9
ENCODING 201
SWIDTH 597 0
DWIDTH 17 0
BBX 13 26 2 1
BITMAP
00E0
01E0
03C0
0380
0000
0000
FFF8
FFF8
FFF8
E000
E000
E000
E000
E000
FFF0
FFF0
FFF0
E000
E000
E000
E000
E000
E000
FFF8
FFF8
FFF8
ENDCHAR
STARTCHAR 00CA
ENCODING 202
SWIDTH 597 0
DWIDTH 17 0
BBX 13 26 2 0
BITMAP
0300
0780
0FC0
1CE0
0840
0000
FFF8
FFF8
FFF8
E000
E000
E000
E000
E000
FFF0
FFF0
FFF0
E000
E000
E000
E000
E000
E000
FFF8
FFF8
FFF8
ENDCHAR
STARTCHAR 00CB
ENCODING 203
SWIDTH 597 0
DWIDTH 17 0
BBX 13 25 2 0
BITMAP
1CE0
1CE0
1CE0
0000
0000
FFF8
FFF8
FFF8
E000
E000
E000
E000
E000
FFF0
FFF0
FFF0
E000
E000
E000
E000
E000
E000
FFF8
FFF8
FFF8
ENDCHAR
STARTCHAR 00CC
ENCODING 204
SWIDTH 280 0
DWIDTH 8 0
BBX 5 26 0 0
BITMAP
40
E0
70
38
10
00
38
38
38
38
38
38
38
38
38
38
38
38
38
38
38
38
38
38
38
38
ENDCHAR
STARTCHAR 00CD
ENCODING 205
SWIDTH 280 0
DWIDTH 8 0
BBX 6 26 2 1
BITMAP
18
3C
78
60
00
00
E0
E0
E0
E0
E0
E0
E0
E0
E0
E0
E0
E0
E0
E0
E0
E0
E0
E0
E0
E0
ENDCHAR
STARTCHAR 00CE
ENCODING 206
SWIDTH 280 0
DWIDTH 8 0
BBX 8 26 0 0
BITMAP
18
3C
FE
E7
02
00
38
38
38
38
38
38
38
38
38
38
38
38
38
38
38
38
38
38
38
38
ENDCHAR
STARTCHAR 00CF
ENCODING 207
SWIDTH 280 0
DWIDTH 8 0
BBX 8 25 0 0
BITMAP
C7
C7
C7
00
00
38
38
38
38
38
38
38
38
38
38
38
38
38
38
38
38
38
38
38
38
ENDCHAR
STARTCHAR 00D0
ENCODING 208
SWIDTH 667 0
DWIDTH 19 0
BBX 16 20 1 0
BITMAP
3FF0
3FF8
3FFE
381E
380F
3807
3807
3807
3807
FF87
FF87
3807
3807
3807
3807
380F
381E
3FFE
3FFC
3FF0
ENDCHAR
STARTCHAR 00D1
ENCODING 209
SWIDTH 702 0
DWIDTH 20 0
BBX 15 26 2 0
BITMAP
0018
1F18
1FF8
18F8
1800
0000
E00E
F00E
F80E
F80E
FC0E
FC0E
EE0E
E70E
E70E
E38E
E1CE
E1CE
E0EE
E0EE
E07E
E03E
E03E
E01E
E00E
E00E
ENDCHAR
STARTCHAR 00D2
ENCODING 210
SWIDTH 632 0
DWIDTH 18 0
BBX 14 26 2 0
BITMAP
0800
1C00
0E00
0700
0200
0000
0FC0
3FF0
7FF8
7878
F03C
E01C
E01C
E01C
E01C
E01C
E01C
E01C
E01C
E01C
E01C
F03C
7838
7FF8
3FF0
0FC0
ENDCHAR
STARTCHAR 00D3
ENCODING 211
SWIDTH 632 0
DWIDTH 18 0
BBX 14 26 2 0
BITMAP
0040
00E0
03C0
0380
0100
0000
0FC0
3FF0
7FF8
7878
F03C
E01C
E01C
E01C
E01C
E01C
E01C
E01C
E01C
E01C
E01C
F03C
7838
7FF8
3FF0
0FC0
ENDCHAR
STARTCHAR 00D4
ENCODING 212
SWIDTH 632 0
DWIDTH 18 0
BBX 14 26 2 0
BITMAP
0300
0780
0FC0
1CE0
0840
0000
0FC0
3FF0
7FF8
7878
F03C
E01C
E01C
E01C
E01C
E01C
E01C
E01C
E01C
E01C
E01C
F03C
7838
7FF8
3FF0
0FC0
ENDCHAR
STARTCHAR 00D5
ENCODING 213
SWIDTH 632 0
DWIDTH 18 0
BBX 14 25 2 0
BITMAP
1E30
3FF0
33F0
30E0
0000
0FC0
3FF0
7FF8
7878
F03C
E01C
E01C
E01C
E01C
E01C
E01C
E01C
E01C
E01C
E01C
F03C
7838
7FF8
3FF0
0FC0
ENDCHAR
STARTCHAR 00D6
ENCODING 214
SWIDTH 632 0
DWIDTH 18 0
BBX 14 24 2 0
BITMAP
1CE0
1CE0
1CE0
0000
0FC0
3FF0
7FF8
7878
F03C
E01C
E01C
E01C
E01C
E01C
E01C
E01C
E01C
E01C
E01C
F03C
7838
7FF8
3FF0
0FC0
ENDCHAR
STARTCHAR 00D7
ENCODING 215
SWIDTH 491 0
DWIDTH 14 0
BBX 10 10 2 4
BITMAP
4080
E1C0
73C0
3F80
1F00
1E00
3F80
73C0
E1C0
4080
ENDCHAR
STARTCHAR 00D8
ENCODING 216
SWIDTH 632 0
DWIDTH 18 0
BBX 14 24 2 -2
BITMAP
001C
0018
0FD8
3FF0
7FF8
7878
F07C
E0DC
E0DC
E19C
E19C
E31C
E31C
E61C
E61C
EE1C
EC1C
FC3C
7838
7FF8
3FF0
3FC0
6000
6000
ENDCHAR
STARTCHAR 00D9
ENCODING 217
SWIDTH 632 0
DWIDTH 18 0
BBX 14 26 2 0
BITMAP
0800
1E00
0F00
0700
0000
0000
E01C
E01C
E01C
E01C
E01C
E01C
E01C
E01C
E01C
E01C
E01C
E01C
E01C
E01C
E01C
701C
7838
3FF8
3FF0
0FC0
ENDCHAR
STARTCHAR 00DA
ENCODING 218
SWIDTH 632 0
DWIDTH 18 0
BBX 14 26 2 1
BITMAP
0060
01E0
03C0
0380
0000
0000
E01C
E01C
E01C
E01C
E01C
E01C
E01C
E01C
E01C
E01C
E01C
E01C
E01C
E01C
E01C
701C
7838
3FF8
3FF0
0FC0
ENDCHAR
STARTCHAR 00DB
ENCODING 219
SWIDTH 632 0
DWIDTH 18 0
BBX 14 26 2 0
BITMAP
0300
0780
0FE0
1CE0
0840
0000
E01C
E01C
E01C
E01C
E01C
E01C
E01C
E01C
E01C
E01C
E01C
E01C
E01C
E01C
E01C
701C
7838
3FF8
3FF0
0FC0
ENDCHAR
STARTCHAR 00DC
ENCODING 220
SWIDTH 632 0
DWIDTH 18 0
BBX 14 25 2 0
BITMAP
1C60
1C60
1C60
0000
0000
E01C
E01C
E01C
E01C
E01C
E01C
E01C
E01C
E01C
E01C
E01C
E01C
E01C
E01C
E01C
701C
7838
3FF8
3FF0
0FC0
ENDCHAR
STARTCHAR 00DD
ENCODING 221
SWIDTH 491 0
DWIDTH 14 0
BBX 14 26 0 1
BITMAP
00C0
01E0
03C0
0380
0000
0000
E01C
E01C
7038
7038
3870
3870
1CE0
1CE0
0FC0
0FC0
0780
0780
0300
0300
0300
0300
0300
0300
0300
0300
ENDCHAR
STARTCHAR 00DE
ENCODING 222
SWIDTH 597 0
DWIDTH 17 0
BBX 14 20 2 0
BITMAP
E000
E000
E000
E000
FFE0
FFF0
FFF8
E03C
E01C
E01C
E01C
E01C
E03C
FFF8
FFF0
FFE0
E000
E000
E000
E000
ENDCHAR
STARTCHAR 00DF
ENCODING 223
SWIDTH 561 0
DWIDTH 16 0
BBX 12 20 2 0
BITMAP
1F80
3FC0
7FE0
70E0
E060
E060
E0E0
E3E0
E3C0
E3E0
E060
E070
E070
E070
E070
E070
E070
E3E0
E3E0
E3C0
ENDCHAR
STARTCHAR 00E0
ENCODING 224
SWIDTH 526 0
DWIDTH 15 0
BBX 11 22 2 1
BITMAP
3000
7800
3800
1C00
0C00
0000
0000
0000
3F00
7FC0
7FC0
00E0
00E0
00E0
7FE0
FFE0
E0E0
C0E0
C0E0
F1E0
FFE0
3EE0
ENDCHAR
STARTCHAR 00E1
ENCODING 225
SWIDTH 526 0
DWIDTH 15 0
BBX 11 22 2 1
BITMAP
0180
0380
0700
0F00
0E00
0000
0000
0000
3F00
7FC0
7FC0
00E0
00E0
00E0
7FE0
FFE0
E0E0
C0E0
C0E0
F1E0
FFE0
3EE0
ENDCHAR
STARTCHAR 00E2
ENCODING 226
SWIDTH 526 0
DWIDTH 15 0
BBX 11 22 2 1
BITMAP
0C00
1E00
3F00
3B80
3180
0000
0000
0000
3F00
7FC0
7FC0
00E0
00E0
00E0
7FE0
FFE0
E0E0
C0E0
C0E0
F1E0
FFE0
3EE0
ENDCHAR
STARTCHAR 00E3
ENCODING 227
SWIDTH 526 0
DWIDTH 15 0
BBX 11 21 2 0
BITMAP
30C0
7CC0
7FC0
6780
0000
0000
0000
3F00
7FC0
7FC0
00E0
00E0
00E0
7FE0
FFE0
E0E0
C0E0
C0E0
F1E0
FFE0
3EE0
ENDCHAR
STARTCHAR 00E4
ENCODING 228
SWIDTH 526 0
DWIDTH 15 0
BBX 11 20 2 0
BITMAP
71C0
71C0
71C0
0000
0000
0000
3F00
7FC0
7FC0
00E0
00E0
00E0
7FE0
FFE0
E0E0
C0E0
C0E0
F1E0
FFE0
3EE0
ENDCHAR
STARTCHAR 00E5
ENCODING 229
SWIDTH 526 0
DWIDTH 15 0
BBX 11 22 2 1
BITMAP
1F00
3B80
3180
3B80
1F00
0000
0000
0000
3F00
7FC0
7FC0
00E0
00E0
00E0
7FE0
FFE0
E0E0
C0E0
C0E0
F1E0
FFE0
3EE0
ENDCHAR
STARTCHAR 00E6
ENCODING 230
SWIDTH 807 0
DWIDTH 23 0
BBX 20 14 2 0
BITMAP
3F0F00
7FBFC0
7FBFE0
00F0E0
00E060
00E070
7FFFF0
FFFFF0
E0E000
C0E000
C1F040
FFBFE0
FF9FE0
3E0F80
ENDCHAR
STARTCHAR 00E7
ENCODING 231
SWIDTH 491 0
DWIDTH 14 0
BBX 11 20 2 -6
BITMAP
1F80
7FC0
7FE0
F0C0
E000
E000
E000
E000
E000
E000
F0C0
7FE0
7FC0
1F80
0C00
0E00
0F80
0380
1F80
1E00
ENDCHAR
STARTCHAR 00E8
ENCODING 232
SWIDTH 526 0
DWIDTH 15 0
BBX 11 22 2 1
BITMAP
3000
7800
3C00
1C00
0E00
0000
0000
0000
1F00
7FC0
7FC0
E0E0
E0E0
C060
FFE0
FFE0
C000
E000
F040
7FE0
7FC0
1F00
ENDCHAR
STARTCHAR 00E9
ENCODING 233
SWIDTH 526 0
DWIDTH 15 0
BBX 11 22 2 1
BITMAP
0180
03C0
0780
0700
0E00
0000
0000
0000
1F00
7FC0
7FC0
E0E0
E0E0
C060
FFE0
FFE0
C000
E000
F040
7FE0
7FC0
1F00
ENDCHAR
STARTCHAR 00EA
ENCODING 234
SWIDTH 526 0
DWIDTH 15 0
BBX 11 22 2 1
BITMAP
0600
0F00
1F00
3B80
3180
0000
0000
0000
1F00
7FC0
7FC0
E0E0
E0E0
C060
FFE0
FFE0
C000
E000
F040
7FE0
7FC0
1F00
ENDCHAR
STARTCHAR 00EB
ENCODING 235
SWIDTH 526 0
DWIDTH 15 0
BBX 11 20 2 0
BITMAP
71C0
71C0
71C0
0000
0000
0000
1F00
7FC0
7FC0
E0E0
E0E0
C060
FFE0
FFE0
C000
E000
F040
7FE0
7FC0
1F00
ENDCHAR
STARTCHAR 00EC
ENCODING 236
SWIDTH 245 0
DWIDTH 7 0
BBX 5 22 0 1
BITMAP
C0
E0
70
38
10
00
00
00
38
38
38
38
38
38
38
38
38
38
38
38
38
38
ENDCHAR
STARTCHAR 00ED
ENCODING 237
SWIDTH 245 0
DWIDTH 7 0
BBX 6 22 2 1
BITMAP
1C
38
70
E0
60
00
00
00
E0
E0
E0
E0
E0
E0
E0
E0
E0
E0
E0
E0
E0
E0
ENDCHAR
STARTCHAR 00EE
ENCODING 238
SWIDTH 245 0
DWIDTH 7 0
BBX 9 23 -1 0
BITMAP
0800
1C00
3E00
7F00
F380
6100
0000
0000
0000
1C00
1C00
1C00
1C00
1C00
1C00
1C00
1C00
1C00
1C00
1C00
1C00
1C00
1C00
ENDCHAR
STARTCHAR 00EF
ENCODING 239
SWIDTH 245 0
DWIDTH 7 0
BBX 9 20 -1 0
BITMAP
E380
E380
E380
0000
0000
0000
1C00
1C00
1C00
1C00
1C00
1C00
1C00
1C00
1C00
1C00
1C00
1C00
1C00
1C00
ENDCHAR
STARTCHAR 00F0
ENCODING 240
SWIDTH 526 0
DWIDTH 15 0
BBX 11 20 2 0
BITMAP
0EC0
1FE0
7FC0
3B80
0180
01C0
3EC0
7FC0
FFE0
E0E0
E0E0
C0E0
C0E0
C0E0
C0E0
E0E0
E0E0
7FC0
7FC0
1F00
ENDCHAR
STARTCHAR 00F1
ENCODING 241
SWIDTH 561 0
DWIDTH 16 0
BBX 12 21 2 0
BITMAP
18E0
7CE0
7FC0
63C0
0000
0000
0000
E780
EFC0
FFE0
F0E0
E070
E070
E070
E070
E070
E070
E070
E070
E070
E070
ENDCHAR
STARTCHAR 00F2
ENCODING 242
SWIDTH 526 0
DWIDTH 15 0
BBX 11 22 2 1
BITMAP
3000
3800
3C00
1E00
0E00
0000
0000
0000
1F00
7FC0
7FE0
E0E0
E0E0
E060
E060
E060
E060
E0E0
E0E0
7FE0
7FC0
1F00
ENDCHAR
STARTCHAR 00F3
ENCODING 243
SWIDTH 526 0
DWIDTH 15 0
BBX 11 22 2 1
BITMAP
0180
03C0
0780
0700
0600
0000
0000
0000
1F00
7FC0
7FE0
E0E0
E0E0
E060
E060
E060
E060
E0E0
E0E0
7FE0
7FC0
1F00
ENDCHAR
STARTCHAR 00F4
ENCODING 244
SWIDTH 526 0
DWIDTH 15 0
BBX 11 22 2 1
BITMAP
0600
0F00
1F80
3BC0
3180
0000
0000
0000
1F00
7FC0
7FE0
E0E0
E0E0
E060
E060
E060
E060
E0E0
E0E0
7FE0
7FC0
1F00
ENDCHAR
STARTCHAR 00F5
ENCODING 245
SWIDTH 526 0
DWIDTH 15 0
BBX 11 21 2 0
BITMAP
38C0
7CC0
7FC0
63C0
0000
0000
0000
1F00
7FC0
7FE0
E0E0
E0E0
E060
E060
E060
E060
E0E0
E0E0
7FE0
7FC0
1F00
ENDCHAR
STARTCHAR 00F6
ENCODING 246
SWIDTH 526 0
DWIDTH 15 0
BBX 11 20 2 0
BITMAP
71C0
71C0
71C0
0000
0000
0000
1F00
7FC0
7FE0
E0E0
E0E0
E060
E060
E060
E060
E0E0
E0E0
7FE0
7FC0
1F00
ENDCHAR
STARTCHAR 00F7
ENCODING 247
SWIDTH 491 0
DWIDTH 14 0
BBX 10 11 2 4
BITMAP
0C00
0C00
0C00
0000
FFC0
FFC0
FFC0
0000
0C00
0C00
0C00
ENDCHAR
STARTCHAR 00F8
ENCODING 248
SWIDTH 526 0
DWIDTH 15 0
BBX 11 18 2 -2
BITMAP
0040
00C0
1FC0
7FC0
7FE0
E3E0
E3E0
E660
E660
E660
EC60
ECE0
F8E0
7FE0
7FC0
3F00
2000
6000
ENDCHAR
STARTCHAR 00F9
ENCODING 249
SWIDTH 561 0
DWIDTH 16 0
BBX 12 23 2 0
BITMAP
1000
3000
3800
1C00
0E00
0400
0000
0000
0000
E070
E070
E070
E070
E070
E070
E070
E070
E070
E070
F0F0
7FF0
7F70
1E70
ENDCHAR
STARTCHAR 00FA
ENCODING 250
SWIDTH 561 0
DWIDTH 16 0
BBX 12 22 2 1
BITMAP
01C0
03C0
0780
0700
0600
0000
0000
0000
E070
E070
E070
E070
E070
E070
E070
E070
E070
E070
F0F0
7FF0
7F70
1E70
ENDCHAR
STARTCHAR 00FB
ENCODING 251
SWIDTH 561 0
DWIDTH 16 0
BBX 12 22 2 1
BITMAP
0600
0F00
1F80
39C0
3080
0000
0000
0000
E070
E070
E070
E070
E070
E070
E070
E070
E070
E070
F0F0
7FF0
7F70
1E70
ENDCHAR
STARTCHAR 00FC
ENCODING 252
SWIDTH 561 0
DWIDTH 16 0
BBX 12 20 2 0
BITMAP
31C0
31C0
31C0
0000
0000
0000
E070
E070
E070
E070
E070
E070
E070
E070
E070
E070
F0F0
7FF0
7F70
1E70
ENDCHAR
STARTCHAR 00FD
ENCODING 253
SWIDTH 491 0
DWIDTH 14 0
BBX 12 29 1 -6
BITMAP
0080
01C0
01C0
0380
0700
0600
0000
0000
0000
E070
E070
6060
70E0
70E0
38C0
39C0
19C0
1F80
1F80
0F80
0F00
0F00
0700
0E00
0E00
1C00
3C00
3C00
3000
ENDCHAR
STARTCHAR 00FE
ENCODING 254
SWIDTH 526 0
DWIDTH 15 0
BBX 11 26 2 -6
BITMAP
E000
E000
E000
E000
E000
E000
E780
FFC0
FFE0
F0E0
E060
E060
E060
E060
E060
E060
E0E0
FFE0
FFC0
E780
E000
E000
E000
E000
E000
E000
ENDCHAR
STARTCHAR 00FF
ENCODING 255
SWIDTH 491 0
DWIDTH 14 0
BBX 12 26 1 -6
BITMAP
38C0
38C0
38C0
0000
0000
0000
E070
E070
6060
70E0
70E0
38C0
39C0
19C0
1F80
1F80
0F80
0F00
0F00
0700
0E00
0E00
1C00
3C00
3C00
3000
ENDCHAR
STARTCHAR 0100
ENCODING 256
SWIDTH 632 0
DWIDTH 18 0
BBX 16 25 1 0
BITMAP
1FF8
1FF8
1FF8
0000
0000
0180
03C0
03C0
03E0
07E0
0760
0E70
0E70
0C30
1C38
1C38
1818
381C
3FFC
3FFE
7FFE
700E
E007
E007
E007
ENDCHAR
STARTCHAR 0101
ENCODING 257
SWIDTH 526 0
DWIDTH 15 0
BBX 11 20 2 0
BITMAP
FFC0
FFC0
FFC0
0000
0000
0000
3F00
7FC0
7FC0
00E0
00E0
00E0
7FE0
FFE0
E0E0
C0E0
C0E0
F1E0
FFE0
3EE0
ENDCHAR
STARTCHAR 0102
ENCODING 258
SWIDTH 632 0
DWIDTH 18 0
BBX 16 26 1 0
BITMAP
1000
0C38
0FF0
07E0
0000
0000
0180
03C0
03C0
03E0
07E0
0760
0E70
0E70
0C30
1C38
1C38
1818
381C
3FFC
3FFE
7FFE
700E
E007
E007
E007
ENDCHAR
STARTCHAR 0103
ENCODING 259
SWIDTH 526 0
DWIDTH 15 0
BBX 11 22 2 0
BITMAP
61C0
61C0
7180
3F80
3F00
0400
0000
0000
3F00
7FC0
7FC0
00E0
00E0
00E0
7FE0
FFE0
E0E0
C0E0
C0E0
F1E0
FFE0
3EE0
ENDCHAR
STARTCHAR 0104
ENCODING 260
SWIDTH 632 0
DWIDTH 18 0
BBX 17 25 1 -5
BITMAP
018000
03C000
03C000
03E000
07E000
076000
0E7000
0E7000
0C3000
1C3800
1C3800
181800
381C00
3FFC00
3FFE00
7FFE00
700E00
E00700
E00700
E00F00
001C00
001C00
001C00
001F80
000F80
ENDCHAR
STARTCHAR 0105
ENCODING 261
SWIDTH 526 0
DWIDTH 15 0
BBX 11 19 2 -5
BITMAP
3F00
7FC0
7FC0
00E0
00E0
00E0
7FE0
FFE0
E0E0
C0E0
C0E0
F1E0
FFE0
3EE0
00C0
0180
0180
01E0
01E0
ENDCHAR
STARTCHAR 0106
ENCODING 262
SWIDTH 597 0
DWIDTH 17 0
BBX 14 26 2 0
BITMAP
0040
00E0
03C0
0380
0100
0000
0FC0
3FE0
3FF0
7878
F038
E01C
E000
E000
E000
E000
E000
E000
E000
E000
E01C
F038
7878
3FF0
3FE0
0FC0
ENDCHAR
STARTCHAR 0107
ENCODING 263
SWIDTH 491 0
DWIDTH 14 0
BBX 11 22 2 1
BITMAP
0180
03C0
0780
0700
0E00
0000
0000
0000
1F80
7FC0
7FE0
F0C0
E000
E000
E000
E000
E000
E000
F0C0
7FE0
7FC0
1F80
ENDCHAR
STARTCHAR 010A
ENCODING 266
SWIDTH 597 0
DWIDTH 17 0
BBX 14 24 2 0
BITMAP
0300
0300
0300
0000
0FC0
3FE0
3FF0
7878
F038
E01C
E000
E000
E000
E000
E000
E000
E000
E000
E01C
F038
7878
3FF0
3FE0
0FC0
ENDCHAR
STARTCHAR 010B
ENCODING 267
SWIDTH 491 0
DWIDTH 14 0
BBX 11 20 2 0
BITMAP
0E00
0E00
0E00
0000
0000
0000
1F80
7FC0
7FE0
F0C0
E000
E000
E000
E000
E000
E000
F0C0
7FE0
7FC0
1F80
ENDCHAR
STARTCHAR 010C
ENCODING 268
SWIDTH 597 0
DWIDTH 17 0
BBX 14 26 2 0
BITMAP
0840
1FE0
0FC0
0780
0000
0000
0FC0
3FE0
3FF0
7878
F038
E01C
E000
E000
E000
E000
E000
E000
E000
E000
E01C
F038
7878
3FF0
3FE0
0FC0
ENDCHAR
STARTCHAR 010D
ENCODING 269
SWIDTH 491 0
DWIDTH 14 0
BBX 11 22 2 1
BITMAP
3180
3B80
1F00
0E00
0400
0400
0000
0000
1F80
7FC0
7FE0
F0C0
E000
E000
E000
E000
E000
E000
F0C0
7FE0
7FC0
1F80
ENDCHAR
STARTCHAR 010E
ENCODING 270
SWIDTH 632 0
DWIDTH 18 0
BBX 14 26 2 1
BITMAP
1CE0
1FE0
0FC0
0300
0000
0000
FFC0
FFF0
FFF8
E03C
E01C
E01C
E01C
E01C
E01C
E01C
E01C
E01C
E01C
E01C
E01C
E01C
E03C
FFF8
FFF0
FFC0
ENDCHAR
STARTCHAR 010F
ENCODING 271
SWIDTH 632 0
DWIDTH 18 0
BBX 16 20 2 0
BITMAP
00E7
00E7
00E7
00E6
00E4
00E0
3EE0
7FE0
FFE0
E0E0
E0E0
E0E0
E0E0
E0E0
E0E0
E0E0
E0E0
FFE0
7FE0
3EE0
ENDCHAR
STARTCHAR 0110
ENCODING 272
SWIDTH 667 0
DWIDTH 19 0
BBX 16 20 1 0
BITMAP
3FF0
3FF8
3FFE
381E
380F
3807
3807
3807
3807
FF87
FF87
3807
3807
3807
3807
380F
381E
3FFE
3FFC
3FF0
ENDCHAR
STARTCHAR 0111
ENCODING 273
SWIDTH 526 0
DWIDTH 15 0
BBX 13 20 2 0
BITMAP
00E0
00E0
0FF8
0FF8
0FF8
00E0
3EE0
7FE0
FFE0
E0E0
E0E0
E0E0
E0E0
E0E0
E0E0
E0E0
E0E0
FFE0
7FE0
3EE0
ENDCHAR
STARTCHAR 0112
ENCODING 274
SWIDTH 597 0
DWIDTH 17 0
BBX 13 25 2 0
BITMAP
3FF0
3FF0
3FF0
0000
0000
FFF8
FFF8
FFF8
E000
E000
E000
E000
E000
FFF0
FFF0
FFF0
E000
E000
E000
E000
E000
E000
FFF8
FFF8
FFF8
ENDCHAR
STARTCHAR 0113
ENCODING 275
SWIDTH 526 0
DWIDTH 15 0
BBX 11 20 2 0
BITMAP
7FE0
7FE0
7FE0
0000
0000
0000
1F00
7FC0
7FC0
E0E0
E0E0
C060
FFE0
FFE0
C000
E000
F040
7FE0
7FC0
1F00
ENDCHAR
STARTCHAR 0116
ENCODING 278
SWIDTH 597 0
DWIDTH 17 0
BBX 13 25 2 0
BITMAP
0300
0300
0300
0000
0000
FFF8
FFF8
FFF8
E000
E000
E000
E000
E000
FFF0
FFF0
FFF0
E000
E000
E000
E000
E000
E000
FFF8
FFF8
FFF8
ENDCHAR
STARTCHAR 0117
ENCODING 279
SWIDTH 526 0
DWIDTH 15 0
BBX 11 20 2 0
BITMAP
0E00
0E00
0E00
0000
0000
0000
1F00
7FC0
7FC0
E0E0
E0E0
C060
FFE0
FFE0
C000
E000
F040
7FE0
7FC0
1F00
ENDCHAR
STARTCHAR 0118
ENCODING 280
SWIDTH 597 0
DWIDTH 17 0
BBX 13 25 2 -5
BITMAP
FFF8
FFF8
FFF8
E000
E000
E000
E000
E000
FFF0
FFF0
FFF0
E000
E000
E000
E000
E000
E000
FFF8
FFF8
FFF8
00E0
00C0
00C0
00F8
0078
ENDCHAR
STARTCHAR 0119
ENCODING 281
SWIDTH 526 0
DWIDTH 15 0
BBX 11 20 2 -6
BITMAP
1F00
7FC0
7FC0
E0E0
E0E0
C060
FFE0
FFE0
C000
E000
F040
7FE0
7FC0
1F80
0180
0380
0380
03C0
01E0
0060
ENDCHAR
STARTCHAR 011A
ENCODING 282
SWIDTH 597 0
DWIDTH 17 0
BBX 13 26 2 1
BITMAP
1CE0
1FE0
07C0
0300
0000
0000
FFF8
FFF8
FFF8
E000
E000
E000
E000
E000
FFF0
FFF0
FFF0
E000
E000
E000
E000
E000
E000
FFF8
FFF8
FFF8
ENDCHAR
STARTCHAR 011B
ENCODING 283
SWIDTH 526 0
DWIDTH 15 0
BBX 11 22 2 1
BITMAP
3180
3B80
1F00
0F00
0600
0000
0000
0000
1F00
7FC0
7FC0
E0E0
E0E0
C060
FFE0
FFE0
C000
E000
F040
7FE0
7FC0
1F00
ENDCHAR
STARTCHAR 011E
ENCODING 286
SWIDTH 632 0
DWIDTH 18 0
BBX 14 25 2 0
BITMAP
1870
1CE0
1FE0
0780
0000
0FC0
3FE0
3FF0
7878
F038
E01C
E000
E000
E000
E1FC
E1FC
E1FC
E01C
E01C
E01C
F03C
7838
7FF8
3FF0
0FC0
ENDCHAR
STARTCHAR 011F
ENCODING 287
SWIDTH 526 0
DWIDTH 15 0
BBX 11 28 2 -6
BITMAP
70C0
71C0
31C0
3F80
1F00
0400
0000
0000
3EE0
7FE0
FFE0
E0E0
E0E0
E0E0
E0E0
E0E0
E0E0
E0E0
E0E0
FFE0
7FE0
3EE0
00E0
00E0
61E0
FFC0
7F80
1E00
ENDCHAR
STARTCHAR 0120
ENCODING 288
SWIDTH 632 0
DWIDTH 18 0
BBX 14 24 2 0
BITMAP
0300
0300
0300
0000
0FC0
3FE0
3FF0
7878
F038
E01C
E000
E000
E000
E1FC
E1FC
E1FC
E01C
E01C
E01C
F03C
7838
7FF8
3FF0
0FC0
ENDCHAR
STARTCHAR 0121
ENCODING 289
SWIDTH 526 0
DWIDTH 15 0
BBX 11 26 2 -6
BITMAP
0E00
0E00
0E00
0000
0000
0000
3EE0
7FE0
FFE0
E0E0
E0E0
E0E0
E0E0
E0E0
E0E0
E0E0
E0E0
FFE0
7FE0
3EE0
00E0
00E0
61E0
FFC0
7F80
1E00
ENDCHAR
STARTCHAR 0122
ENCODING 290
SWIDTH 632 0
DWIDTH 18 0
BBX 14 26 2 -7
BITMAP
0FC0
3FE0
3FF0
7878
F038
E01C
E000
E000
E000
E1FC
E1FC
E1FC
E01C
E01C
E01C
F03C
7838
7FF8
3FF0
0FC0
0000
0000
0300
0300
0300
0200
ENDCHAR
STARTCHAR 0123
ENCODING 291
SWIDTH 526 0
DWIDTH 15 0
BBX 11 28 2 -6
BITMAP
0200
0600
0E00
0E00
0E00
0000
0000
0000
3EE0
7FE0
FFE0
E0E0
E0E0
E0E0
E0E0
E0E0
E0E0
E0E0
E0E0
FFE0
7FE0
3EE0
00E0
00E0
41E0
FFC0
7F80
3F00
ENDCHAR
STARTCHAR 0126
ENCODING 294
SWIDTH 737 0
DWIDTH 21 0
BBX 18 20 2 0
BITMAP
300700
300700
FFFFC0
FFFFC0
FFFFC0
300700
300700
300700
3FFF00
3FFF00
3FFF00
300700
300700
300700
300700
300700
300700
300700
300700
300700
ENDCHAR
STARTCHAR 0127
ENCODING 295
SWIDTH 561 0
DWIDTH 16 0
BBX 13 20 1 0
BITMAP
7000
FF80
FF80
FF80
7000
7000
73C0
77F0
7FF0
7878
7038
7038
7038
7038
7038
7038
7038
7038
7038
7038
ENDCHAR
STARTCHAR 012A
ENCODING 298
SWIDTH 280 0
DWIDTH 8 0
BBX 10 25 -1 0
BITMAP
FFC0
FFC0
FFC0
0000
0000
1C00
1C00
1C00
1C00
1C00
1C00
1C00
1C00
1C00
1C00
1C00
1C00
1C00
1C00
1C00
1C00
1C00
1C00
1C00
1C00
ENDCHAR
STARTCHAR 012B
ENCODING 299
SWIDTH 245 0
DWIDTH 7 0
BBX 10 20 -1 0
BITMAP
FFC0
FFC0
FFC0
0000
0000
0000
1C00
1C00
1C00
1C00
1C00
1C00
1C00
1C00
1C00
1C00
1C00
1C00
1C00
1C00
ENDCHAR
STARTCHAR 012E
ENCODING 302
SWIDTH 280 0
DWIDTH 8 0
BBX 5 26 1 -6
BITMAP
70
70
70
70
70
70
70
70
70
70
70
70
70
70
70
70
70
70
70
70
E0
C0
C0
E0
F8
78
ENDCHAR
STARTCHAR 012F
ENCODING 303
SWIDTH 245 0
DWIDTH 7 0
BBX 4 25 1 -5
BITMAP
70
70
70
00
00
00
70
70
70
70
70
70
70
70
70
70
70
70
70
70
60
C0
C0
F0
F0
ENDCHAR
STARTCHAR 0130
ENCODING 304
SWIDTH 280 0
DWIDTH 8 0
BBX 3 25 2 0
BITMAP
E0
E0
E0
00
00
E0
E0
E0
E0
E0
E0
E0
E0
E0
E0
E0
E0
E0
E0
E0
E0
E0
E0
E0
E0
ENDCHAR
STARTCHAR 0131
ENCODING 305
SWIDTH 245 0
DWIDTH 7 0
BBX 3 14 2 0
BITMAP
E0
E0
E0
E0
E0
E0
E0
E0
E0
E0
E0
E0
E0
E0
ENDCHAR
STARTCHAR 0136
ENCODING 310
SWIDTH 632 0
DWIDTH 18 0
BBX 15 26 2 -7
BITMAP
E01C
E03C
E078
E070
E0E0
E1C0
E3C0
E380
E780
EF80
FDC0
F9E0
F8E0
F0F0
E070
E038
E03C
E01C
E01E
E00E
0000
0000
0380
0380
0300
0200
ENDCHAR
STARTCHAR 0137
ENCODING 311
SWIDTH 526 0
DWIDTH 15 0
BBX 12 27 2 -7
BITMAP
E000
E000
E000
E000
E000
E000
E0F0
E1E0
E1C0
E380
E700
EE00
FF00
FB80
F380
E1C0
E1C0
E0E0
E070
E070
0000
0000
0E00
0E00
0C00
0800
0800
ENDCHAR
STARTCHAR 0139
ENCODING 313
SWIDTH 561 0
DWIDTH 16 0
BBX 13 26 2 1
BITMAP
1800
3C00
7800
6000
0000
0000
E000
E000
E000
E000
E000
E000
E000
E000
E000
E000
E000
E000
E000
E000
E000
E000
E000
FFF8
FFF8
FFF8
ENDCHAR
STARTCHAR 013A
ENCODING 314
SWIDTH 280 0
DWIDTH 8 0
BBX 6 26 2 1
BITMAP
18
3C
70
60
00
00
E0
E0
E0
E0
E0
E0
E0
E0
E0
E0
E0
E0
E0
E0
E0
E0
E0
F8
78
38
ENDCHAR
STARTCHAR 013B
ENCODING 315
SWIDTH 561 0
DWIDTH 16 0
BBX 13 26 2 -7
BITMAP
E000
E000
E000
E000
E000
E000
E000
E000
E000
E000
E000
E000
E000
E000
E000
E000
E000
FFF8
FFF8
FFF8
0000
0000
0700
0700
0600
0400
ENDCHAR
STARTCHAR 013C
ENCODING 316
SWIDTH 280 0
DWIDTH 8 0
BBX 5 26 2 -7
BITMAP
E0
E0
E0
E0
E0
E0
E0
E0
E0
E0
E0
E0
E0
E0
E0
E0
E0
F8
78
38
00
00
60
60
60
40
ENDCHAR
STARTCHAR 013D
ENCODING 317
SWIDTH 561 0
DWIDTH 16 0
BBX 13 20 2 0
BITMAP
E038
E038
E038
E030
E020
E000
E000
E000
E000
E000
E000
E000
E000
E000
E000
E000
E000
FFF8
FFF8
FFF8
ENDCHAR
STARTCHAR 013E
ENCODING 318
SWIDTH 351 0
DWIDTH 10 0
BBX 8 20 2 0
BITMAP
E7
E7
E7
E6
E4
E0
E0
E0
E0
E0
E0
E0
E0
E0
E0
E0
E0
F8
78
38
ENDCHAR
STARTCHAR 0141
ENCODING 321
SWIDTH 597 0
DWIDTH 17 0
BBX 14 20 2 0
BITMAP
3000
3000
3000
3000
3000
3000
30C0
37C0
3FC0
FF00
F800
F000
3000
3000
3000
3000
3000
3FFC
3FFC
3FFC
ENDCHAR
STARTCHAR 0142
ENCODING 322
SWIDTH 280 0
DWIDTH 8 0
BBX 7 20 0 0
BITMAP
38
38
38
38
38
38
38
3E
3E
7E
F8
F8
B8
38
38
38
38
3E
1E
0E
ENDCHAR
STARTCHAR 0143
ENCODING 323
SWIDTH 702 0
DWIDTH 20 0
BBX 15 27 2 0
BITMAP
0020
0060
00F0
01E0
01C0
0000
0000
E00E
F00E
F80E
F80E
FC0E
FC0E
EE0E
E70E
E70E
E38E
E1CE
E1CE
E0EE
E0EE
E07E
E03E
E03E
E01E
E00E
E00E
ENDCHAR
STARTCHAR 0144
ENCODING 324
SWIDTH 561 0
DWIDTH 16 0
BBX 12 23 2 0
BITMAP
0080
01C0
03C0
0780
0700
0600
0000
0000
0000
E780
EFC0
FFE0
F0E0
E070
E070
E070
E070
E070
E070
E070
E070
E070
E070
ENDCHAR
STARTCHAR 0145
ENCODING 325
SWIDTH 702 0
DWIDTH 20 0
BBX 15 26 2 -7
BITMAP
E00E
F00E
F80E
F80E
FC0E
FC0E
EE0E
E70E
E70E
E38E
E1CE
E1CE
E0EE
E0EE
E07E
E03E
E03E
E01E
E00E
E00E
0000
0000
0180
0180
0180
0100
ENDCHAR
STARTCHAR 0146
ENCODING 326
SWIDTH 561 0
DWIDTH 16 0
BBX 12 21 2 -7
BITMAP
E780
EFC0
FFE0
F0E0
E070
E070
E070
E070
E070
E070
E070
E070
E070
E070
0000
0000
0E00
0E00
0E00
0C00
0800
ENDCHAR
STARTCHAR 0147
ENCODING 327
SWIDTH 702 0
DWIDTH 20 0
BBX 15 26 2 1
BITMAP
0E70
0FF0
07E0
0180
0000
0000
E00E
F00E
F80E
F80E
FC0E
FC0E
EE0E
E70E
E70E
E38E
E1CE
E1CE
E0EE
E0EE
E07E
E03E
E03E
E01E
E00E
E00E
ENDCHAR
STARTCHAR 0148
ENCODING 328
SWIDTH 561 0
DWIDTH 16 0
BBX 12 23 2 0
BITMAP
0080
31C0
3B80
1F00
0F00
0600
0000
0000
0000
E780
EFC0
FFE0
F0E0
E070
E070
E070
E070
E070
E070
E070
E070
E070
E070
ENDCHAR
STARTCHAR 014A
ENCODING 330
SWIDTH 702 0
DWIDTH 20 0
BBX 15 25 2 -5
BITMAP
E00E
F00E
F80E
F80E
FC0E
FC0E
EE0E
E70E
E70E
E38E
E1CE
E1CE
E0EE
E07E
E07E
E03E
E01E
E01E
E00E
E00E
000E
000E
003E
003E
003C
ENDCHAR
STARTCHAR 014B
ENCODING 331
SWIDTH 561 0
DWIDTH 16 0
BBX 12 20 2 -6
BITMAP
E780
EFC0
FFE0
F0E0
E070
E070
E070
E070
E070
E070
E070
E070
E070
E070
0070
0070
0070
03E0
03E0
03C0
ENDCHAR
STARTCHAR 014C
ENCODING 332
SWIDTH 632 0
DWIDTH 18 0
BBX 14 24 2 0
BITMAP
3FF0
3FF0
3FF0
0000
0FC0
3FF0
7FF8
7878
F03C
E01C
E01C
E01C
E01C
E01C
E01C
E01C
E01C
E01C
E01C
F03C
7838
7FF8
3FF0
0FC0
ENDCHAR
STARTCHAR 014D
ENCODING 333
SWIDTH 526 0
DWIDTH 15 0
BBX 11 20 2 0
BITMAP
7FE0
7FE0
7FE0
0000
0000
0000
1F00
7FC0
7FE0
E0E0
E0E0
E060
E060
E060
E060
E0E0
E0E0
7FE0
7FC0
1F00
ENDCHAR
STARTCHAR 0150
ENCODING 336
SWIDTH 632 0
DWIDTH 18 0
BBX 14 26 2 0
BITMAP
0410
0E38
1E70
1CE0
0840
0000
0FC0
3FF0
7FF8
7878
F03C
E01C
E01C
E01C
E01C
E01C
E01C
E01C
E01C
E01C
E01C
F03C
7838
7FF8
3FF0
0FC0
ENDCHAR
STARTCHAR 0151
ENCODING 337
SWIDTH 526 0
DWIDTH 15 0
BBX 11 22 2 1
BITMAP
1860
1CE0
38E0
39C0
3180
0000
0000
0000
1F00
7FC0
7FE0
E0E0
E0E0
E060
E060
E060
E060
E0E0
E0E0
7FE0
7FC0
1F00
ENDCHAR
STARTCHAR 0152
ENCODING 338
SWIDTH 983 0
DWIDTH 28 0
BBX 25 20 2 0
BITMAP
0FCFFF80
1FEFFF80
3FFFFF80
783E0000
F01E0000
E01E0000
E00E0000
E00E0000
E00FFE00
E00FFE00
E00FFE00
E00E0000
E00E0000
E00E0000
E01E0000
F01E0000
783E0000
3FFFFF80
1FEFFF80
0FCFFF80
ENDCHAR
STARTCHAR 0153
ENCODING 339
SWIDTH 842 0
DWIDTH 24 0
BBX 20 14 2 0
BITMAP
1F0F80
7F9FC0
7FFFE0
E0F070
E0E070
C06030
C07FF0
C07FF0
C06000
E0E000
E0F060
7FFFF0
7FDFE0
1F0F80
ENDCHAR
STARTCHAR 0154
ENCODING 340
SWIDTH 632 0
DWIDTH 18 0
BBX 15 26 2 0
BITMAP
00C0
01E0
03C0
0380
0000
0000
FFE0
FFF0
FFF8
E03C
E01C
E01C
E01C
E01C
E03C
FFF8
FFF0
FFE0
E0E0
E0E0
E070
E070
E038
E03C
E01C
E01E
ENDCHAR
STARTCHAR 0155
ENCODING 341
SWIDTH 421 0
DWIDTH 12 0
BBX 10 23 2 0
BITMAP
0100
0380
0780
0F00
0E00
0C00
0000
0000
0000
E780
EFC0
FF80
F000
E000
E000
E000
E000
E000
E000
E000
E000
E000
E000
ENDCHAR
STARTCHAR 0156
ENCODING 342
SWIDTH 632 0
DWIDTH 18 0
BBX 15 27 2 -7
BITMAP
FFE0
FFF0
FFF8
E03C
E01C
E01C
E01C
E01C
E03C
FFF8
FFF0
FFE0
E0E0
E0E0
E070
E070
E038
E03C
E01C
E01E
0000
0000
0700
0700
0700
0600
0400
ENDCHAR
STARTCHAR 0157
ENCODING 343
SWIDTH 421 0
DWIDTH 12 0
BBX 10 21 2 -7
BITMAP
E780
EFC0
FF80
F000
E000
E000
E000
E000
E000
E000
E000
E000
E000
E000
0000
0000
E000
E000
E000
C000
8000
ENDCHAR
STARTCHAR 0158
ENCODING 344
SWIDTH 632 0
DWIDTH 18 0
BBX 15 26 2 1
BITMAP
18C0
1FE0
0F80
0300
0000
0000
FFE0
FFF0
FFF8
E03C
E01C
E01C
E01C
E01C
E03C
FFF8
FFF0
FFE0
E0E0
E0E0
E070
E070
E038
E03C
E01C
E01E
ENDCHAR
STARTCHAR 0159
ENCODING 345
SWIDTH 421 0
DWIDTH 12 0
BBX 10 23 2 0
BITMAP
0100
6380
7700
3E00
1E00
0C00
0000
0000
0000
E780
EFC0
FF80
F000
E000
E000
E000
E000
E000
E000
E000
E000
E000
E000
ENDCHAR
STARTCHAR 015A
ENCODING 346
SWIDTH 597 0
DWIDTH 17 0
BBX 15 26 1 0
BITMAP
0060
00F0
01E0
01C0
0000
0000
07E0
1FFC
3FFC
3808
7000
7000
7000
7800
3E00
1FE0
0FF8
007C
001C
000E
000E
200E
701C
FFFC
3FF8
0FE0
ENDCHAR
STARTCHAR 015B
ENCODING 347
SWIDTH 526 0
DWIDTH 15 0
BBX 12 22 1 1
BITMAP
00C0
01C0
0380
0700
0700
0000
0000
0000
1F80
3FF0
7FF0
7020
6000
7800
7FE0
1FF0
0070
0030
6070
FFF0
7FE0
1FC0
ENDCHAR
STARTCHAR 015E
ENCODING 350
SWIDTH 597 0
DWIDTH 17 0
BBX 15 26 1 -6
BITMAP
07E0
1FFC
3FFC
3808
7000
7000
7000
7800
3E00
1FE0
0FF8
007C
001C
000E
000E
200E
701C
FFFC
3FF8
0FE0
0180
01E0
01E0
0060
03E0
03C0
ENDCHAR
STARTCHAR 015F
ENCODING 351
SWIDTH 526 0
DWIDTH 15 0
BBX 12 20 1 -6
BITMAP
1F80
3FF0
7FF0
7020
6000
7800
7FE0
1FF0
0070
0030
6070
FFF0
7FE0
1FC0
0600
0700
0780
01C0
0F80
0F00
ENDCHAR
STARTCHAR 0160
ENCODING 352
SWIDTH 597 0
DWIDTH 17 0
BBX 15 26 1 0
BITMAP
0C60
0EF0
07E0
0380
0100
0000
07E0
1FFC
3FFC
3808
7000
7000
7000
7800
3E00
1FE0
0FF8
007C
001C
000E
000E
200E
701C
FFFC
3FF8
0FE0
ENDCHAR
STARTCHAR 0161
ENCODING 353
SWIDTH 526 0
DWIDTH 15 0
BBX 12 22 1 1
BITMAP
18C0
3DC0
1F80
0F00
0600
0000
0000
0000
1F80
3FF0
7FF0
7020
6000
7800
7FE0
1FF0
0070
0030
6070
FFF0
7FE0
1FC0
ENDCHAR
STARTCHAR 0162
ENCODING 354
SWIDTH 456 0
DWIDTH 13 0
BBX 14 26 0 -6
BITMAP
FFFC
FFFC
FFFC
0700
0700
0700
0700
0700
0700
0700
0700
0700
0700
0700
0700
0700
0700
0700
0700
0700
0300
0380
03C0
00C0
07C0
0780
ENDCHAR
STARTCHAR 0163
ENCODING 355
SWIDTH 316 0
DWIDTH 9 0
BBX 7 24 1 -6
BITMAP
30
30
30
30
FE
FE
FE
30
30
30
30
30
30
30
30
3E
3E
3E
38
3C
3E
0E
3E
78
ENDCHAR
STARTCHAR 0164
ENCODING 356
SWIDTH 456 0
DWIDTH 13 0
BBX 14 26 0 0
BITMAP
18C0
1DE0
0FC0
0700
0200
0000
FFFC
FFFC
FFFC
0700
0700
0700
0700
0700
0700
0700
0700
0700
0700
0700
0700
0700
0700
0700
0700
0700
ENDCHAR
STARTCHAR 0165
ENCODING 357
SWIDTH 386 0
DWIDTH 11 0
BBX 9 21 1 0
BITMAP
0180
0180
0180
3180
3100
3000
3000
FE00
FE00
FE00
3000
3000
3000
3000
3000
3000
3000
3000
3E00
3E00
1E00
ENDCHAR
STARTCHAR 016A
ENCODING 362
SWIDTH 632 0
DWIDTH 18 0
BBX 14 25 2 0
BITMAP
3FF0
3FF0
3FF0
0000
0000
E01C
E01C
E01C
E01C
E01C
E01C
E01C
E01C
E01C
E01C
E01C
E01C
E01C
E01C
E01C
701C
7838
3FF8
3FF0
0FC0
ENDCHAR
STARTCHAR 016B
ENCODING 363
SWIDTH 561 0
DWIDTH 16 0
BBX 12 20 2 0
BITMAP
7FE0
7FE0
7FE0
0000
0000
0000
E070
E070
E070
E070
E070
E070
E070
E070
E070
E070
F0F0
7FF0
7F70
1E70
ENDCHAR
STARTCHAR 016C
ENCODING 364
SWIDTH 632 0
DWIDTH 18 0
BBX 14 25 2 1
BITMAP
1870
1FE0
0FE0
0000
0000
E01C
E01C
E01C
E01C
E01C
E01C
E01C
E01C
E01C
E01C
E01C
E01C
E01C
E01C
E01C
701C
7838
3FF8
3FF0
0FC0
ENDCHAR
STARTCHAR 016D
ENCODING 365
SWIDTH 561 0
DWIDTH 16 0
BBX 12 22 2 0
BITMAP
30C0
30C0
31C0
3F80
1F00
0000
0000
0000
E070
E070
E070
E070
E070
E070
E070
E070
E070
E070
F0F0
7FF0
7F70
1E70
ENDCHAR
STARTCHAR 016E
ENCODING 366
SWIDTH 632 0
DWIDTH 18 0
BBX 14 27 2 0
BITMAP
07C0
0FC0
0CE0
0CC0
0FC0
0380
0000
E01C
E01C
E01C
E01C
E01C
E01C
E01C
E01C
E01C
E01C
E01C
E01C
E01C
E01C
E01C
701C
7838
3FF8
3FF0
0FC0
ENDCHAR
STARTCHAR 016F
ENCODING 367
SWIDTH 561 0
DWIDTH 16 0
BBX 12 23 2 0
BITMAP
0E00
1F80
3980
3180
1F80
1F00
0000
0000
0000
E070
E070
E070
E070
E070
E070
E070
E070
E070
E070
F0F0
7FF0
7F70
1E70
ENDCHAR
STARTCHAR 0170
ENCODING 368
SWIDTH 632 0
DWIDTH 18 0
BBX 14 26 2 0
BITMAP
0610
0F38
1E70
1C60
0800
0000
E01C
E01C
E01C
E01C
E01C
E01C
E01C
E01C
E01C
E01C
E01C
E01C
E01C
E01C
E01C
701C
7838
3FF8
3FF0
0FC0
ENDCHAR
STARTCHAR 0171
ENCODING 369
SWIDTH 561 0
DWIDTH 16 0
BBX 12 23 2 0
BITMAP
0040
1C60
1CE0
38E0
39C0
3080
0000
0000
0000
E070
E070
E070
E070
E070
E070
E070
E070
E070
E070
F0F0
7FF0
7F70
1E70
ENDCHAR
STARTCHAR 0172
ENCODING 370
SWIDTH 632 0
DWIDTH 18 0
BBX 14 26 2 -6
BITMAP
E01C
E01C
E01C
E01C
E01C
E01C
E01C
E01C
E01C
E01C
E01C
E01C
E01C
E01C
E01C
701C
7838
3FF8
3FF0
0FC0
0700
0600
0700
0700
03C0
01C0
ENDCHAR
STARTCHAR 0173
ENCODING 371
SWIDTH 561 0
DWIDTH 16 0
BBX 12 19 2 -5
BITMAP
E070
E070
E070
E070
E070
E070
E070
E070
E070
E070
F0F0
7FF0
7F70
1E70
0060
00C0
01C0
01F0
00F0
ENDCHAR
STARTCHAR 0178
ENCODING 376
SWIDTH 491 0
DWIDTH 14 0
BBX 14 25 0 0
BITMAP
1CE0
1CE0
1CE0
0000
0000
E01C
E01C
7038
7038
3870
3870
1CE0
1CE0
0FC0
0FC0
0780
0780
0300
0300
0300
0300
0300
0300
0300
0300
ENDCHAR
STARTCHAR 0179
ENCODING 377
SWIDTH 526 0
DWIDTH 15 0
BBX 12 26 2 1
BITMAP
0180
03C0
0780
0600
0000
0000
FFF0
FFF0
FFF0
00E0
01E0
01C0
0380
0380
0700
0F00
0E00
1C00
1C00
3800
7800
7000
F000
FFF0
FFF0
FFF0
ENDCHAR
STARTCHAR 017A
ENCODING 378
SWIDTH 491 0
DWIDTH 14 0
BBX 10 23 2 0
BITMAP
0100
0380
0380
0700
0E00
0C00
0000
0000
0000
FFC0
FFC0
FFC0
0380
0700
0F00
0E00
1C00
3800
7800
7000
FFC0
FFC0
FFC0
ENDCHAR
STARTCHAR 017B
ENCODING 379
SWIDTH 526 0
DWIDTH 15 0
BBX 12 25 2 0
BITMAP
0E00
0E00
0E00
0000
0000
FFF0
FFF0
FFF0
00E0
01E0
01C0
0380
0380
0700
0F00
0E00
1C00
1C00
3800
7800
7000
F000
FFF0
FFF0
FFF0
ENDCHAR
STARTCHAR 017C
ENCODING 380
SWIDTH 491 0
DWIDTH 14 0
BBX 10 20 2 0
BITMAP
0C00
0C00
0C00
0000
0000
0000
FFC0
FFC0
FFC0
0380
0700
0F00
0E00
1C00
3800
7800
7000
FFC0
FFC0
FFC0
ENDCHAR
STARTCHAR 017D
ENCODING 381
SWIDTH 526 0
DWIDTH 15 0
BBX 12 26 2 1
BITMAP
3980
3FC0
1F00
0600
0000
0000
FFF0
FFF0
FFF0
00E0
01E0
01C0
0380
0380
0700
0F00
0E00
1C00
1C00
3800
7800
7000
F000
FFF0
FFF0
FFF0
ENDCHAR
STARTCHAR 017E
ENCODING 382
SWIDTH 491 0
DWIDTH 14 0
BBX 10 23 2 0
BITMAP
2000
7180
7B80
3F00
1E00
0C00
0000
0000
0000
FFC0
FFC0
FFC0
0380
0700
0F00
0E00
1C00
3800
7800
7000
FFC0
FFC0
FFC0
ENDCHAR
STARTCHAR 0181
ENCODING 385
SWIDTH 737 0
DWIDTH 21 0
BBX 19 20 0 0
BITMAP
7FFF00
FFFF80
F7FFC0
E701C0
0700C0
0700E0
0700C0
0701C0
070780
07FF00
07FF80
0701C0
0700C0
0700E0
0700E0
0700E0
0701C0
070FC0
07FF80
07FF00
ENDCHAR
STARTCHAR 0186
ENCODING 390
SWIDTH 597 0
DWIDTH 17 0
BBX 13 20 2 0
BITMAP
0F80
3FE0
7FF0
F070
E038
E038
0038
0038
0038
0038
0038
0038
0038
0038
E038
E038
F070
7FF0
3FE0
0F80
ENDCHAR
STARTCHAR 0189
ENCODING 393
SWIDTH 667 0
DWIDTH 19 0
BBX 16 20 1 0
BITMAP
3FF0
3FF8
3FFE
381E
380F
3807
3807
3807
3807
FF87
FF87
3807
3807
3807
3807
380F
381E
3FFE
3FFC
3FF0
ENDCHAR
STARTCHAR 018A
ENCODING 394
SWIDTH 737 0
DWIDTH 21 0
BBX 19 20 0 0
BITMAP
7FFC00
FFFF00
F7FF80
E703C0
E701C0
0700E0
0700E0
0700E0
0700E0
0700E0
0700E0
0700E0
0700E0
0700E0
0700E0
0701C0
0703C0
07FF80
07FF00
07FC00
ENDCHAR
STARTCHAR 018E
ENCODING 398
SWIDTH 597 0
DWIDTH 17 0
BBX 12 20 2 0
BITMAP
FFF0
FFF0
FFF0
0070
0070
0070
0070
0070
7FF0
7FF0
7FF0
0070
0070
0070
0070
0070
0070
FFF0
FFF0
FFF0
ENDCHAR
STARTCHAR 018F
ENCODING 399
SWIDTH 632 0
DWIDTH 18 0
BBX 13 20 2 0
BITMAP
0FC0
3FE0
7FF0
7078
2038
0038
0018
0018
0018
FFF8
FFF8
FFF8
E018
E018
E038
7038
7078
7FF0
3FF0
0FC0
ENDCHAR
STARTCHAR 0190
ENCODING 400
SWIDTH 526 0
DWIDTH 15 0
BBX 12 20 2 0
BITMAP
1F80
7FC0
7FE0
F0E0
E070
E000
E000
7000
7F00
1F00
7F00
7000
E000
E000
E000
E070
E0F0
7FE0
7FE0
1F80
ENDCHAR
STARTCHAR 0191
ENCODING 401
SWIDTH 561 0
DWIDTH 16 0
BBX 15 26 0 -6
BITMAP
1FFE
1FFE
1FFE
1800
1800
1800
1800
1800
1800
1FFC
1FFC
1FFC
1800
1800
1800
1800
1800
1800
1800
1800
1800
1800
1800
F800
F800
F000
ENDCHAR
STARTCHAR 0192
ENCODING 402
SWIDTH 316 0
DWIDTH 9 0
BBX 7 26 1 -6
BITMAP
1E
3E
3E
30
30
30
FE
FE
FE
30
30
30
30
30
30
30
30
30
30
30
30
30
70
F0
F0
E0
ENDCHAR
STARTCHAR 0194
ENCODING 404
SWIDTH 561 0
DWIDTH 16 0
BBX 15 26 1 -6
BITMAP
E00E
E00E
E01C
701C
701C
7038
7038
3838
3870
3870
1C70
1C60
1CE0
0EE0
0EC0
0FC0
07C0
0780
0780
0780
0780
07C0
0EC0
0EC0
0FC0
0780
ENDCHAR
STARTCHAR 0198
ENCODING 408
SWIDTH 632 0
DWIDTH 18 0
BBX 15 20 2 0
BITMAP
E01E
E03E
E07E
E070
E0E0
E1E0
E3C0
E780
E780
EF80
FDC0
FDE0
F8E0
F0F0
E070
E038
E03C
E01C
E01E
E00E
ENDCHAR
STARTCHAR 0199
ENCODING 409
SWIDTH 526 0
DWIDTH 15 0
BBX 12 20 2 0
BITMAP
3800
7800
F800
E000
E000
E000
E0F0
E1E0
E1C0
E380
E700
EE00
FF00
FB80
F380
E1C0
E1C0
E0E0
E070
E070
ENDCHAR
STARTCHAR 01A0
ENCODING 416
SWIDTH 667 0
DWIDTH 19 0
BBX 17 22 2 0
BITMAP
000380
000380
0FFF80
3FFF00
7FFC00
787800
F03C00
E01C00
E01C00
E01C00
E01C00
E01C00
E01C00
E01C00
E01C00
E01C00
E01C00
F03C00
783800
7FF800
3FF000
0FC000
ENDCHAR
STARTCHAR 01A1
ENCODING 417
SWIDTH 526 0
DWIDTH 15 0
BBX 14 17 2 0
BITMAP
001C
001C
0038
1FF8
7FF0
7FE0
E0E0
E0E0
E060
E060
E060
E060
E0E0
E0E0
7FE0
7FC0
1F00
ENDCHAR
STARTCHAR 01AF
ENCODING 431
SWIDTH 702 0
DWIDTH 20 0
BBX 18 23 2 0
BITMAP
0001C0
0001C0
0001C0
E01F80
E01F00
E01C00
E01C00
E01C00
E01C00
E01C00
E01C00
E01C00
E01C00
E01C00
E01C00
E01C00
E01C00
E01C00
701C00
783800
3FF800
3FF000
0FC000
ENDCHAR
STARTCHAR 01B0
ENCODING 432
SWIDTH 597 0
DWIDTH 17 0
BBX 16 17 2 0
BITMAP
0007
0006
000E
E07E
E078
E070
E070
E070
E070
E070
E070
E070
E070
F0F0
7FF0
7F70
1E70
ENDCHAR
STARTCHAR 01B2
ENCODING 434
SWIDTH 632 0
DWIDTH 18 0
BBX 14 20 2 0
BITMAP
E078
E07C
E07C
E01C
E01C
E01C
E01C
E01C
E01C
E01C
E01C
E01C
E01C
E01C
E01C
701C
7838
3FF8
3FF0
0FC0
ENDCHAR
STARTCHAR 01B3
ENCODING 435
SWIDTH 491 0
DWIDTH 14 0
BBX 15 20 0 0
BITMAP
E00E
E01E
703E
7038
3870
3870
1CE0
1CE0
0FC0
0FC0
0780
0780
0300
0300
0300
0300
0300
0300
0300
0300
ENDCHAR
STARTCHAR 01B4
ENCODING 436
SWIDTH 491 0
DWIDTH 14 0
BBX 13 20 1 -6
BITMAP
E038
E078
6078
70E0
70E0
30C0
39C0
39C0
1D80
1F80
0F80
0F00
0F00
0700
0600
0E00
0E00
3C00
3C00
3800
ENDCHAR
STARTCHAR 01B7
ENCODING 439
SWIDTH 526 0
DWIDTH 15 0
BBX 12 20 1 0
BITMAP
7FF0
7FF0
7FF0
00E0
01C0
0380
0780
0700
0F00
0FE0
0FE0
00F0
0070
0070
0030
E070
7070
7FF0
3FE0
1F80
ENDCHAR
STARTCHAR 01DD
ENCODING 477
SWIDTH 526 0
DWIDTH 15 0
BBX 11 14 2 0
BITMAP
1F00
7F80
FFC0
61E0
00E0
0060
FFE0
FFE0
C060
E0E0
E0E0
7FC0
7FC0
1F00
ENDCHAR
STARTCHAR 0218
ENCODING 536
SWIDTH 597 0
DWIDTH 17 0
BBX 15 27 1 -7
BITMAP
07E0
1FFC
3FFC
3808
7000
7000
7000
7800
3E00
1FE0
0FF8
007C
001C
000E
000E
200E
701C
FFFC
3FF8
0FE0
0000
0000
0380
0380
0380
0300
0200
ENDCHAR
STARTCHAR 0219
ENCODING 537
SWIDTH 526 0
DWIDTH 15 0
BBX 12 20 1 -7
BITMAP
1F80
3FF0
7FF0
7020
6000
7800
7FE0
1FF0
0070
0030
6070
FFF0
7FE0
1FC0
0000
0000
0700
0700
0600
0400
ENDCHAR
STARTCHAR 021A
ENCODING 538
SWIDTH 456 0
DWIDTH 13 0
BBX 14 27 0 -7
BITMAP
FFFC
FFFC
FFFC
0700
0700
0700
0700
0700
0700
0700
0700
0700
0700
0700
0700
0700
0700
0700
0700
0700
0000
0000
0700
0700
0700
0600
0400
ENDCHAR
STARTCHAR 021B
ENCODING 539
SWIDTH 316 0
DWIDTH 9 0
BBX 7 25 1 -7
BITMAP
30
30
30
30
FE
FE
FE
30
30
30
30
30
30
30
30
3E
3E
1E
00
00
38
38
38
30
20
ENDCHAR
STARTCHAR 0253
ENCODING 595
SWIDTH 526 0
DWIDTH 15 0
BBX 11 20 2 0
BITMAP
3800
7800
F800
E000
E000
E000
E780
FFC0
FFE0
F0E0
E060
E060
E060
E060
E060
E060
E0E0
FFE0
FFC0
E780
ENDCHAR
STARTCHAR 0254
ENCODING 596
SWIDTH 491 0
DWIDTH 14 0
BBX 11 14 1 0
BITMAP
3F00
7FC0
FFC0
61E0
00E0
00E0
00E0
00E0
00E0
00E0
40E0
FFC0
7FC0
3F00
ENDCHAR
STARTCHAR 0256
ENCODING 598
SWIDTH 526 0
DWIDTH 15 0
BBX 13 26 2 -6
BITMAP
00E0
00E0
00E0
00E0
00E0
00E0
3EE0
7FE0
FFE0
E0E0
E0E0
E0E0
E0E0
E0E0
E0E0
E0E0
E0E0
FFE0
7FE0
3EE0
00E0
00E0
00E0
00F8
0078
0038
ENDCHAR
STARTCHAR 0257
ENCODING 599
SWIDTH 526 0
DWIDTH 15 0
BBX 13 20 2 0
BITMAP
0038
0078
00F8
00E0
00E0
00E0
3EE0
7FE0
FFE0
E0E0
E0E0
E0E0
E0E0
E0E0
E0E0
E0E0
E0E0
FFE0
7FE0
3EE0
ENDCHAR
STARTCHAR 0259
ENCODING 601
SWIDTH 526 0
DWIDTH 15 0
BBX 11 14 2 0
BITMAP
1F00
7F80
FFC0
61E0
00E0
0060
FFE0
FFE0
C060
E0E0
E0E0
7FC0
7FC0
1F00
ENDCHAR
STARTCHAR 025B
ENCODING 603
SWIDTH 456 0
DWIDTH 13 0
BBX 10 14 2 0
BITMAP
3F00
7FC0
FFC0
E080
E000
7E00
3E00
FE00
E000
C000
E080
FFC0
7FC0
3F00
ENDCHAR
STARTCHAR 02BB
ENCODING 699
SWIDTH 175 0
DWIDTH 5 0
BBX 3 5 1 15
BITMAP
20
60
E0
E0
E0
ENDCHAR
STARTCHAR 02BC
ENCODING 700
SWIDTH 175 0
DWIDTH 5 0
BBX 3 6 1 14
BITMAP
E0
E0
E0
C0
C0
80
ENDCHAR
STARTCHAR 02C6
ENCODING 710
SWIDTH 386 0
DWIDTH 11 0
BBX 9 6 1 17
BITMAP
0800
1C00
3E00
7700
E380
4100
ENDCHAR
STARTCHAR 02C7
ENCODING 711
SWIDTH 386 0
DWIDTH 11 0
BBX 9 6 1 17
BITMAP
4100
E380
7700
3E00
1C00
0800
ENDCHAR
STARTCHAR 02C9
ENCODING 713
SWIDTH 421 0
DWIDTH 12 0
BBX 10 3 1 17
BITMAP
FFC0
FFC0
FFC0
ENDCHAR
STARTCHAR 02D8
ENCODING 728
SWIDTH 386 0
DWIDTH 11 0
BBX 8 5 1 17
BITMAP
C3
E3
E7
7F
3E
ENDCHAR
STARTCHAR 02D9
ENCODING 729
SWIDTH 245 0
DWIDTH 7 0
BBX 3 3 2 17
BITMAP
E0
E0
E0
ENDCHAR
STARTCHAR 02DB
ENCODING 731
SWIDTH 175 0
DWIDTH 5 0
BBX 4 6 0 -5
BITMAP
10
30
60
E0
F0
70
ENDCHAR
STARTCHAR 02DC
ENCODING 732
SWIDTH 421 0
DWIDTH 12 0
BBX 10 4 1 17
BITMAP
71C0
FDC0
CF80
C780
ENDCHAR
STARTCHAR 02DD
ENCODING 733
SWIDTH 386 0
DWIDTH 11 0
BBX 10 6 1 17
BITMAP
2100
71C0
7380
E380
E700
4200
ENDCHAR
STARTCHAR 0300
ENCODING 768
SWIDTH 0 0
DWIDTH 0 0
BBX 6 6 -6 17
BITMAP
40
E0
70
38
1C
18
ENDCHAR
STARTCHAR 0301
ENCODING 769
SWIDTH 0 0
DWIDTH 0 0
BBX 6 6 -6 17
BITMAP
10
3C
38
70
E0
40
ENDCHAR
STARTCHAR 0302
ENCODING 770
SWIDTH 0 0
DWIDTH 0 0
BBX 9 6 -9 17
BITMAP
0800
1C00
3E00
7700
E380
4100
ENDCHAR
STARTCHAR 0303
ENCODING 771
SWIDTH 0 0
DWIDTH 0 0
BBX 10 4 -10 17
BITMAP
78C0
7DC0
EF80
C380
ENDCHAR
STARTCHAR 0304
ENCODING 772
SWIDTH 0 0
DWIDTH 0 0
BBX 10 3 -11 17
BITMAP
FFC0
FFC0
FFC0
ENDCHAR
STARTCHAR 0306
ENCODING 774
SWIDTH 0 0
DWIDTH 0 0
BBX 8 5 -9 17
BITMAP
C3
C3
E7
7E
3C
ENDCHAR
STARTCHAR 0307
ENCODING 775
SWIDTH 0 0
DWIDTH 0 0
BBX 3 3 -3 17
BITMAP
E0
E0
E0
ENDCHAR
STARTCHAR 0308
ENCODING 776
SWIDTH 0 0
DWIDTH 0 0
BBX 8 3 -9 17
BITMAP
E3
E3
E3
ENDCHAR
STARTCHAR 0309
ENCODING 777
SWIDTH 0 0
DWIDTH 0 0
BBX 5 6 -6 17
BITMAP
F0
F8
18
18
70
60
ENDCHAR
STARTCHAR 030A
ENCODING 778
SWIDTH 0 0
DWIDTH 0 0
BBX 6 6 -7 17
BITMAP
78
FC
CC
CC
FC
78
ENDCHAR
STARTCHAR 030B
ENCODING 779
SWIDTH 0 0
DWIDTH 0 0
BBX 10 6 -10 17
BITMAP
2100
71C0
7380
E380
E700
4200
ENDCHAR
STARTCHAR 030C
ENCODING 780
SWIDTH 0 0
DWIDTH 0 0
BBX 8 6 -9 17
BITMAP
42
E7
7F
3E
1C
08
ENDCHAR
STARTCHAR 031B
ENCODING 795
SWIDTH 0 0
DWIDTH 0 0
BBX 7 5 -7 12
BITMAP
0E
0E
0E
FC
F8
ENDCHAR
STARTCHAR 0323
ENCODING 803
SWIDTH 0 0
DWIDTH 0 0
BBX 2 3 -3 -5
BITMAP
C0
C0
C0
ENDCHAR
STARTCHAR 0326
ENCODING 806
SWIDTH 0 0
DWIDTH 0 0
BBX 3 5 -3 -7
BITMAP
E0
E0
E0
C0
80
ENDCHAR
STARTCHAR 0327
ENCODING 807
SWIDTH 0 0
DWIDTH 0 0
BBX 6 7 -6 -6
BITMAP
60
60
70
78
1C
FC
F8
ENDCHAR
STARTCHAR 0328
ENCODING 808
SWIDTH 0 0
DWIDTH 0 0
BBX 4 5 -4 -4
BITMAP
60
C0
C0
F0
F0
ENDCHAR
STARTCHAR 0335
ENCODING 821
SWIDTH 0 0
DWIDTH 0 0
BBX 9 3 -10 9
BITMAP
FF80
FF80
FF80
ENDCHAR
STARTCHAR 0345
ENCODING 837
SWIDTH 0 0
DWIDTH 0 0
BBX 4 5 -5 -6
BITMAP
C0
C0
F0
F0
70
ENDCHAR
STARTCHAR 0370
ENCODING 880
SWIDTH 561 0
DWIDTH 16 0
BBX 12 20 2 0
BITMAP
E000
E000
E000
E000
E000
E000
E000
E000
FFF0
FFF0
FFF0
E000
E000
E000
E000
E000
E000
E000
E000
E000
ENDCHAR
STARTCHAR 0371
ENCODING 881
SWIDTH 351 0
DWIDTH 10 0
BBX 7 14 2 0
BITMAP
E0
E0
E0
E0
E0
FE
FE
FE
E0
E0
E0
E0
E0
E0
ENDCHAR
STARTCHAR 0372
ENCODING 882
SWIDTH 526 0
DWIDTH 15 0
BBX 14 20 0 0
BITMAP
FFFC
FFFC
FFFC
E38C
E38C
E38C
E38C
0380
0380
0380
0380
0380
0380
0380
0380
0380
0380
0380
0380
0380
ENDCHAR
STARTCHAR 0373
ENCODING 883
SWIDTH 456 0
DWIDTH 13 0
BBX 12 20 0 0
BITMAP
FFF0
FFF0
FFF0
E730
E730
E730
0700
0700
0700
0700
0700
0700
0700
0700
0700
0700
0700
0700
0700
0700
ENDCHAR
STARTCHAR 0374
ENCODING 884
SWIDTH 175 0
DWIDTH 5 0
BBX 3 6 1 14
BITMAP
20
60
60
E0
E0
E0
ENDCHAR
STARTCHAR 0375
ENCODING 885
SWIDTH 210 0
DWIDTH 6 0
BBX 3 6 2 -3
BITMAP
20
60
E0
E0
E0
E0
ENDCHAR
STARTCHAR 0376
ENCODING 886
SWIDTH 702 0
DWIDTH 20 0
BBX 15 20 2 0
BITMAP
E006
E00E
E01E
E01E
E03E
E07E
E07E
E0EE
E1CE
E1CE
E38E
E30E
E70E
EE0E
EC0E
FC0E
F80E
F00E
F00E
E00E
ENDCHAR
STARTCHAR 0377
ENCODING 887
SWIDTH 561 0
DWIDTH 16 0
BBX 12 14 2 0
BITMAP
E070
E0F0
E0F0
E1F0
E3F0
E3F0
E770
EE70
EE70
FC70
F870
F070
F070
E070
ENDCHAR
STARTCHAR 037A
ENCODING 890
SWIDTH 175 0
DWIDTH 5 0
BBX 5 4 1 -5
BITMAP
C0
C0
F8
F8
ENDCHAR
STARTCHAR 037B
ENCODING 891
SWIDTH 491 0
DWIDTH 14 0
BBX 11 14 1 0
BITMAP
3F00
7FC0
FFC0
61E0
00E0
00E0
00E0
00E0
00E0
00E0
40E0
FFC0
7FC0
3F00
ENDCHAR
STARTCHAR 037C
ENCODING 892
SWIDTH 491 0
DWIDTH 14 0
BBX 11 14 2 0
BITMAP
1F80
7FC0
7FE0
F0C0
E000
E000
E700
E700
E700
E000
F0C0
7FE0
7FC0
1F80
ENDCHAR
STARTCHAR 037D
ENCODING 893
SWIDTH 491 0
DWIDTH 14 0
BBX 11 14 1 0
BITMAP
3F00
7FC0
FFC0
61E0
00E0
1CE0
1CE0
1CE0
00E0
00E0
40E0
FFC0
7FC0
3F00
ENDCHAR
STARTCHAR 037E
ENCODING 894
SWIDTH 210 0
DWIDTH 6 0
BBX 3 16 2 -3
BITMAP
E0
E0
E0
00
00
00
00
00
00
00
00
E0
E0
E0
C0
80
ENDCHAR
STARTCHAR 037F
ENCODING 895
SWIDTH 491 0
DWIDTH 14 0
BBX 12 20 0 0
BITMAP
0070
0070
0070
0070
0070
0070
0070
0070
0070
0070
0070
0070
0070
0070
0070
00E0
20E0
FFE0
7FC0
1F00
ENDCHAR
STARTCHAR 0384
ENCODING 900
SWIDTH 245 0
DWIDTH 7 0
BBX 4 6 1 16
BITMAP
20
30
70
70
60
E0
ENDCHAR
STARTCHAR 0385
ENCODING 901
SWIDTH 456 0
DWIDTH 13 0
BBX 11 7 1 17
BITMAP
0200
0700
0700
0600
EEE0
ECE0
ECE0
ENDCHAR
STARTCHAR 0386
ENCODING 902
SWIDTH 667 0
DWIDTH 19 0
BBX 17 20 1 0
BITMAP
60E000
71E000
61E000
E1F000
C3F000
C3B000
033800
073800
071800
0E1C00
0E1C00
0E0E00
1C0E00
1FFE00
1FFF00
3FFF00
380700
300380
700380
700380
ENDCHAR
STARTCHAR 0387
ENCODING 903
SWIDTH 210 0
DWIDTH 6 0
BBX 3 3 2 11
BITMAP
E0
E0
E0
ENDCHAR
STARTCHAR 0388
ENCODING 904
SWIDTH 702 0
DWIDTH 20 0
BBX 18 20 0 0
BITMAP
67FFC0
77FFC0
67FFC0
E70000
C70000
C70000
070000
070000
07FF80
07FF80
07FF80
070000
070000
070000
070000
070000
070000
07FFC0
07FFC0
07FFC0
ENDCHAR
STARTCHAR 0389
ENCODING 905
SWIDTH 772 0
DWIDTH 22 0
BBX 20 20 0 0
BITMAP
670070
770070
670070
E70070
C70070
C70070
070070
070070
07FFF0
07FFF0
07FFF0
070070
070070
070070
070070
070070
070070
070070
070070
070070
ENDCHAR
STARTCHAR 038A
ENCODING 906
SWIDTH 351 0
DWIDTH 10 0
BBX 8 20 0 0
BITMAP
67
77
67
E7
C7
C7
07
07
07
07
07
07
07
07
07
07
07
07
07
07
ENDCHAR
STARTCHAR 038C
ENCODING 908
SWIDTH 737 0
DWIDTH 21 0
BBX 19 20 0 0
BITMAP
607C00
71FF00
63FF80
E383C0
E701C0
C700E0
0700E0
0700E0
0700E0
0700E0
0700E0
0700E0
0700E0
0700E0
0700E0
0701C0
0383C0
03FF80
01FF00
007E00
ENDCHAR
STARTCHAR 038E
ENCODING 910
SWIDTH 702 0
DWIDTH 20 0
BBX 19 20 1 0
BITMAP
6700E0
7780E0
6381C0
E181C0
C1C380
C0C380
00E700
006700
007E00
003E00
003C00
001C00
001C00
001C00
001C00
001C00
001C00
001C00
001C00
001C00
ENDCHAR
STARTCHAR 038F
ENCODING 911
SWIDTH 772 0
DWIDTH 22 0
BBX 19 20 1 0
BITMAP
607C00
71FF00
63FF80
E383C0
C701C0
C700E0
0700E0
0700E0
0700E0
0700E0
0700E0
0700E0
0700E0
0700E0
0700E0
0701C0
0381C0
07E7E0
07E7E0
07E7E0
ENDCHAR
STARTCHAR 0390
ENCODING 912
SWIDTH 280 0
DWIDTH 8 0
BBX 11 24 -2 0
BITMAP
0200
0700
0700
0600
EEE0
EEE0
E4E0
0000
0000
0000
0E00
0E00
0E00
0E00
0E00
0E00
0E00
0E00
0E00
0E00
0E00
0F80
0780
0380
ENDCHAR
STARTCHAR 0391
ENCODING 913
SWIDTH 632 0
DWIDTH 18 0
BBX 16 20 1 0
BITMAP
0180
03C0
03C0
03E0
07E0
0760
0E70
0E70
0C30
1C38
1C38
1818
381C
3FFC
3FFE
7FFE
700E
E007
E007
E007
ENDCHAR
STARTCHAR 0392
ENCODING 914
SWIDTH 632 0
DWIDTH 18 0
BBX 14 20 2 0
BITMAP
FFE0
FFF8
FFF8
E01C
E01C
E01C
E01C
E01C
E0F8
FFE0
FFF0
E038
E01C
E01C
E00C
E01C
E01C
E1FC
FFF8
FFE0
ENDCHAR
STARTCHAR 0393
ENCODING 915
SWIDTH 456 0
DWIDTH 13 0
BBX 12 20 2 0
BITMAP
FFF0
FFF0
FFF0
E000
E000
E000
E000
E000
E000
E000
E000
E000
E000
E000
E000
E000
E000
E000
E000
E000
ENDCHAR
STARTCHAR 0394
ENCODING 916
SWIDTH 632 0
DWIDTH 18 0
BBX 16 20 1 0
BITMAP
0180
03C0
03C0
03E0
07E0
0760
0E70
0E70
0C30
1C38
1C38
1818
381C
381C
300E
700E
700E
FFFF
FFFF
FFFF
ENDCHAR
STARTCHAR 0395
ENCODING 917
SWIDTH 597 0
DWIDTH 17 0
BBX 13 20 2 0
BITMAP
FFF8
FFF8
FFF8
E000
E000
E000
E000
E000
FFF0
FFF0
FFF0
E000
E000
E000
E000
E000
E000
FFF8
FFF8
FFF8
ENDCHAR
STARTCHAR 0396
ENCODING 918
SWIDTH 526 0
DWIDTH 15 0
BBX 12 20 2 0
BITMAP
FFF0
FFF0
FFF0
00E0
01E0
01C0
0380
0380
0700
0F00
0E00
1C00
1C00
3800
7800
7000
F000
FFF0
FFF0
FFF0
ENDCHAR
STARTCHAR 0397
ENCODING 919
SWIDTH 667 0
DWIDTH 19 0
BBX 15 20 2 0
BITMAP
E00E
E00E
E00E
E00E
E00E
E00E
E00E
E00E
FFFE
FFFE
FFFE
E00E
E00E
E00E
E00E
E00E
E00E
E00E
E00E
E00E
ENDCHAR
STARTCHAR 0398
ENCODING 920
SWIDTH 632 0
DWIDTH 18 0
BBX 14 20 2 0
BITMAP
0FC0
3FF0
7FF8
7878
F03C
E01C
E01C
E01C
E7DC
E7DC
E7DC
E01C
E01C
E01C
E01C
F03C
7838
7FF8
3FF0
0FC0
ENDCHAR
STARTCHAR 0399
ENCODING 921
SWIDTH 280 0
DWIDTH 8 0
BBX 3 20 2 0
BITMAP
E0
E0
E0
E0
E0
E0
E0
E0
E0
E0
E0
E0
E0
E0
E0
E0
E0
E0
E0
E0
ENDCHAR
STARTCHAR 039A
ENCODING 922
SWIDTH 632 0
DWIDTH 18 0
BBX 15 20 2 0
BITMAP
E01C
E03C
E078
E070
E0E0
E1C0
E3C0
E380
E780
EF80
FDC0
F9E0
F8E0
F0F0
E070
E038
E03C
E01C
E01E
E00E
ENDCHAR
STARTCHAR 039B
ENCODING 923
SWIDTH 632 0
DWIDTH 18 0
BBX 16 20 1 0
BITMAP
0180
03C0
03C0
03E0
07E0
0760
0E70
0E70
0C30
1C38
1C38
1818
381C
381C
300E
700E
700E
E007
E007
E007
ENDCHAR
STARTCHAR 039C
ENCODING 924
SWIDTH 772 0
DWIDTH 22 0
BBX 17 20 2 0
BITMAP
E00180
F00380
F00380
F80780
F80780
FC0F80
FC0F80
EC1D80
EE1D80
E61980
E73980
E73180
E3F180
E3F180
E1E180
E1E180
E0C180
E00180
E00180
E00180
ENDCHAR
STARTCHAR 039D
ENCODING 925
SWIDTH 702 0
DWIDTH 20 0
BBX 15 20 2 0
BITMAP
E00E
F00E
F80E
F80E
FC0E
FC0E
EE0E
E70E
E70E
E38E
E1CE
E1CE
E0EE
E0EE
E07E
E03E
E03E
E01E
E00E
E00E
ENDCHAR
STARTCHAR 039E
ENCODING 926
SWIDTH 667 0
DWIDTH 19 0
BBX 14 20 2 0
BITMAP
FFFC
FFFC
FFFC
0000
0000
0000
0000
0000
3FF8
3FF8
3FF8
0000
0000
0000
0000
0000
0000
FFFC
FFFC
FFFC
ENDCHAR
STARTCHAR 039F
ENCODING 927
SWIDTH 632 0
DWIDTH 18 0
BBX 14 20 2 0
BITMAP
0FC0
3FF0
7FF8
7878
F03C
E01C
E01C
E01C
E01C
E01C
E01C
E01C
E01C
E01C
E01C
F03C
7838
7FF8
3FF0
0FC0
ENDCHAR
STARTCHAR 03A0
ENCODING 928
SWIDTH 667 0
DWIDTH 19 0
BBX 15 20 2 0
BITMAP
FFFE
FFFE
FFFE
E00E
E00E
E00E
E00E
E00E
E00E
E00E
E00E
E00E
E00E
E00E
E00E
E00E
E00E
E00E
E00E
E00E
ENDCHAR
STARTCHAR 03A1
ENCODING 929
SWIDTH 597 0
DWIDTH 17 0
BBX 14 20 2 0
BITMAP
FFE0
FFF0
FFF8
E03C
E01C
E01C
E01C
E01C
E03C
FFF8
FFF0
FFE0
E000
E000
E000
E000
E000
E000
E000
E000
ENDCHAR
STARTCHAR 03A3
ENCODING 931
SWIDTH 456 0
DWIDTH 13 0
BBX 11 20 1 0
BITMAP
FFE0
FFE0
FFE0
7000
7800
3800
1C00
1E00
0F00
0700
0700
0F00
1E00
1C00
3800
7800
7000
FFE0
FFE0
FFE0
ENDCHAR
STARTCHAR 03A4
ENCODING 932
SWIDTH 456 0
DWIDTH 13 0
BBX 14 20 0 0
BITMAP
FFFC
FFFC
FFFC
0700
0700
0700
0700
0700
0700
0700
0700
0700
0700
0700
0700
0700
0700
0700
0700
0700
ENDCHAR
STARTCHAR 03A5
ENCODING 933
SWIDTH 491 0
DWIDTH 14 0
BBX 14 20 0 0
BITMAP
E01C
E01C
7038
7038
3870
3870
1CE0
1CE0
0FC0
0FC0
0780
0780
0300
0300
0300
0300
0300
0300
0300
0300
ENDCHAR
STARTCHAR 03A6
ENCODING 934
SWIDTH 772 0
DWIDTH 22 0
BBX 20 20 1 0
BITMAP
006000
006000
03FC00
0FFF80
3FFFC0
7861E0
7060E0
E06070
E06070
E06070
E06070
E06070
606070
7060E0
7861E0
3FFFC0
0FFF80
03FC00
006000
006000
ENDCHAR
STARTCHAR 03A7
ENCODING 935
SWIDTH 561 0
DWIDTH 16 0
BBX 14 20 1 0
BITMAP
E01C
E038
7038
3870
3870
1CE0
1DC0
0FC0
0780
0780
0780
0F80
0FC0
1CE0
1CE0
3870
7070
7038
E01C
E01C
ENDCHAR
STARTCHAR 03A8
ENCODING 936
SWIDTH 702 0
DWIDTH 20 0
BBX 16 20 2 0
BITMAP
E187
E187
E187
E187
E187
E187
E187
E187
E187
E187
718E
799E
3FFC
1FF8
07E0
0180
0180
0180
0180
0180
ENDCHAR
STARTCHAR 03A9
ENCODING 937
SWIDTH 632 0
DWIDTH 18 0
BBX 14 20 2 0
BITMAP
0FC0
3FF0
7FF8
7878
F03C
E01C
E01C
E01C
E01C
E01C
E01C
E01C
E01C
E01C
E01C
6018
7038
FCFC
FCFC
FCFC
ENDCHAR
STARTCHAR 03AA
ENCODING 938
SWIDTH 280 0
DWIDTH 8 0
BBX 8 25 0 0
BITMAP
C7
C7
C7
00
00
38
38
38
38
38
38
38
38
38
38
38
38
38
38
38
38
38
38
38
38
ENDCHAR
STARTCHAR 03AB
ENCODING 939
SWIDTH 491 0
DWIDTH 14 0
BBX 14 25 0 0
BITMAP
1CE0
1CE0
1CE0
0000
0000
E01C
E01C
7038
7038
3870
3870
1CE0
1CE0
0FC0
0FC0
0780
0780
0300
0300
0300
0300
0300
0300
0300
0300
ENDCHAR
STARTCHAR 03AC
ENCODING 940
SWIDTH 561 0
DWIDTH 16 0
BBX 13 23 2 0
BITMAP
0200
0380
0300
0700
0600
0600
0200
0000
0000
3EE0
7FE0
FFE0
E1E0
E0E0
E0E0
E0E0
E0E0
E0E0
E0E0
E1E0
FFF8
7F78
3E78
ENDCHAR
STARTCHAR 03AD
ENCODING 941
SWIDTH 456 0
DWIDTH 13 0
BBX 10 22 2 1
BITMAP
0700
0700
0600
0E00
0C00
0400
0000
0000
3F00
7FC0
FFC0
E080
E000
7E00
3E00
FE00
E000
C000
E080
FFC0
7FC0
3F00
ENDCHAR
STARTCHAR 03AE
ENCODING 942
SWIDTH 561 0
DWIDTH 16 0
BBX 12 27 2 -4
BITMAP
0100
0380
0380
0300
0700
0600
0000
0000
0000
E780
EFC0
FFE0
F0E0
E070
E070
E070
E070
E070
E070
E070
E070
E070
E070
0070
0070
0070
0070
ENDCHAR
STARTCHAR 03AF
ENCODING 943
SWIDTH 280 0
DWIDTH 8 0
BBX 5 23 2 0
BITMAP
10
38
30
70
70
60
00
00
00
E0
E0
E0
E0
E0
E0
E0
E0
E0
E0
E0
F8
78
38
ENDCHAR
STARTCHAR 03B0
ENCODING 944
SWIDTH 561 0
DWIDTH 16 0
BBX 13 24 1 0
BITMAP
0100
0180
0380
0380
7370
7770
7270
0000
0000
0000
E038
F038
F038
7038
7038
7038
7038
7038
7038
7038
3870
3FF0
1FE0
0FC0
ENDCHAR
STARTCHAR 03B1
ENCODING 945
SWIDTH 561 0
DWIDTH 16 0
BBX 13 14 2 0
BITMAP
3EE0
7FE0
FFE0
E1E0
E0E0
E0E0
E0E0
E0E0
E0E0
E0E0
E1E0
FFF8
7F78
3E78
ENDCHAR
STARTCHAR 03B2
ENCODING 946
SWIDTH 526 0
DWIDTH 15 0
BBX 12 26 2 -6
BITMAP
1F80
3FC0
7FE0
F0E0
E0E0
E060
E0E0
E0E0
E7C0
E780
E7C0
E0E0
E070
E070
E070
E070
F0F0
FFE0
FFE0
EF80
E000
E000
E000
E000
E000
E000
ENDCHAR
STARTCHAR 03B3
ENCODING 947
SWIDTH 526 0
DWIDTH 15 0
BBX 13 20 1 -6
BITMAP
C038
E030
F070
7070
3860
38E0
18E0
1CC0
1DC0
0DC0
0F80
0F80
0780
0700
0700
0700
0700
0700
0700
0700
ENDCHAR
STARTCHAR 03B4
ENCODING 948
SWIDTH 526 0
DWIDTH 15 0
BBX 11 20 2 0
BITMAP
7FE0
7FE0
7FE0
3C00
1E00
0F00
1FC0
7BC0
60E0
E0E0
E060
E060
E060
E060
E060
E0E0
F0E0
7FE0
7FC0
1F00
ENDCHAR
STARTCHAR 03B5
ENCODING 949
SWIDTH 456 0
DWIDTH 13 0
BBX 10 14 2 0
BITMAP
3F00
7FC0
FFC0
E080
E000
7E00
3E00
FE00
E000
C000
E080
FFC0
7FC0
3F00
ENDCHAR
STARTCHAR 03B6
ENCODING 950
SWIDTH 491 0
DWIDTH 14 0
BBX 12 23 2 -3
BITMAP
7FE0
7FE0
7FE0
01C0
0780
0F00
1E00
1C00
3800
7000
F000
E000
E000
E000
E000
E000
E000
7F80
7FE0
1FF0
0070
0070
0070
ENDCHAR
STARTCHAR 03B7
ENCODING 951
SWIDTH 561 0
DWIDTH 16 0
BBX 12 18 2 -4
BITMAP
E780
EFC0
FFE0
F0E0
E070
E070
E070
E070
E070
E070
E070
E070
E070
E070
0070
0070
0070
0070
ENDCHAR
STARTCHAR 03B8
ENCODING 952
SWIDTH 526 0
DWIDTH 15 0
BBX 11 20 2 0
BITMAP
1F00
7FC0
7FE0
F0E0
E0E0
E060
E060
E060
FFE0
FFE0
FFE0
E060
E060
E060
E060
E0E0
E0E0
7FE0
7FC0
1F00
ENDCHAR
STARTCHAR 03B9
ENCODING 953
SWIDTH 280 0
DWIDTH 8 0
BBX 5 14 2 0
BITMAP
E0
E0
E0
E0
E0
E0
E0
E0
E0
E0
E0
F8
78
38
ENDCHAR
STARTCHAR 03BA
ENCODING 954
SWIDTH 526 0
DWIDTH 15 0
BBX 12 14 2 0
BITMAP
E070
E0F0
E1F0
E3C0
E780
E700
EF00
FF80
FB80
F1C0
E1C0
E0E0
E070
E070
ENDCHAR
STARTCHAR 03BB
ENCODING 955
SWIDTH 526 0
DWIDTH 15 0
BBX 13 20 1 0
BITMAP
3800
3C00
3C00
0C00
0E00
0E00
0700
0700
0F00
0F80
0F80
1D80
19C0
39C0
38E0
70E0
70E0
6078
E078
C038
ENDCHAR
STARTCHAR 03BC
ENCODING 956
SWIDTH 597 0
DWIDTH 17 0
BBX 14 18 2 -4
BITMAP
E070
E070
E070
E070
E070
E070
E070
E070
E070
E070
F0F0
FFFC
FFFC
EF3C
E000
E000
E000
E000
ENDCHAR
STARTCHAR 03BD
ENCODING 957
SWIDTH 491 0
DWIDTH 14 0
BBX 12 14 1 0
BITMAP
E070
F070
F060
30E0
38E0
38C0
19C0
19C0
1D80
0F80
0F80
0F00
0700
0600
ENDCHAR
STARTCHAR 03BE
ENCODING 958
SWIDTH 526 0
DWIDTH 15 0
BBX 12 23 2 -3
BITMAP
FFE0
FFE0
FFE0
7000
7000
6000
7000
7000
3FC0
1FC0
7FC0
7000
E000
E000
E000
E000
F000
7F80
3FE0
1FF0
0070
0070
0070
ENDCHAR
STARTCHAR 03BF
ENCODING 959
SWIDTH 526 0
DWIDTH 15 0
BBX 11 14 2 0
BITMAP
1F00
7FC0
7FE0
E0E0
E0E0
E060
E060
E060
E060
E0E0
E0E0
7FE0
7FC0
1F00
ENDCHAR
STARTCHAR 03C0
ENCODING 960
SWIDTH 667 0
DWIDTH 19 0
BBX 15 14 2 0
BITMAP
FFFE
FFFE
FFFE
3838
3838
3838
3838
3838
3838
3838
3838
383E
383E
381E
ENDCHAR
STARTCHAR 03C1
ENCODING 961
SWIDTH 526 0
DWIDTH 15 0
BBX 11 20 2 -6
BITMAP
1F00
3FC0
7FE0
F0E0
E060
E060
E060
E060
E060
E060
F0E0
FFE0
FFC0
E780
E000
E000
E000
E000
E000
E000
ENDCHAR
STARTCHAR 03C2
ENCODING 962
SWIDTH 491 0
DWIDTH 14 0
BBX 11 17 2 -3
BITMAP
1F80
7FC0
7FE0
F0C0
E000
E000
E000
E000
E000
E000
E000
7E00
7F80
1FC0
01C0
01C0
01C0
ENDCHAR
STARTCHAR 03C3
ENCODING 963
SWIDTH 597 0
DWIDTH 17 0
BBX 14 14 2 0
BITMAP
1FFC
7FFC
7FFC
E0E0
E0E0
E0E0
E0E0
E0E0
E0E0
E0E0
E0E0
7FC0
7FC0
1F00
ENDCHAR
STARTCHAR 03C4
ENCODING 964
SWIDTH 491 0
DWIDTH 14 0
BBX 11 14 2 0
BITMAP
FFE0
FFE0
FFE0
0C00
0C00
0C00
0C00
0C00
0C00
0C00
0C00
0F80
0F80
0780
ENDCHAR
STARTCHAR 03C5
ENCODING 965
SWIDTH 561 0
DWIDTH 16 0
BBX 13 14 1 0
BITMAP
E038
F038
F038
7038
7038
7038
7038
7038
7038
7038
3870
3FF0
1FE0
0FC0
ENDCHAR
STARTCHAR 03C6
ENCODING 966
SWIDTH 667 0
DWIDTH 19 0
BBX 15 22 2 -4
BITMAP
0380
0380
0380
0380
0FE0
3FF8
73BC
E38C
E38E
C38E
C386
C38E
C38E
C38E
E38C
73BC
3FF8
0FE0
0380
0380
0380
0380
ENDCHAR
STARTCHAR 03C7
ENCODING 967
SWIDTH 491 0
DWIDTH 14 0
BBX 13 20 0 -6
BITMAP
E038
F038
F870
3870
1CE0
1CE0
0EC0
0FC0
0780
0780
0780
0780
0FC0
0FC0
1CC0
1CE0
3860
3878
7038
7038
ENDCHAR
STARTCHAR 03C8
ENCODING 968
SWIDTH 702 0
DWIDTH 20 0
BBX 16 22 2 -4
BITMAP
0180
0180
0180
0180
E187
E187
E187
E187
E187
E187
E187
E187
E187
718E
799E
3FFC
1FF8
07E0
0180
0180
0180
0180
ENDCHAR
STARTCHAR 03C9
ENCODING 969
SWIDTH 702 0
DWIDTH 20 0
BBX 17 14 2 0
BITMAP
181C00
781E00
F81F00
E00700
E00380
E00380
E1C380
E1C380
E1C380
E1C380
E3C700
FFFF00
7F7F00
3E3C00
ENDCHAR
STARTCHAR 03CA
ENCODING 970
SWIDTH 280 0
DWIDTH 8 0
BBX 9 20 -1 0
BITMAP
E380
E380
E380
0000
0000
0000
1C00
1C00
1C00
1C00
1C00
1C00
1C00
1C00
1C00
1C00
1C00
1F00
0F00
0700
ENDCHAR
STARTCHAR 03CB
ENCODING 971
SWIDTH 561 0
DWIDTH 16 0
BBX 13 20 1 0
BITMAP
38E0
38E0
38E0
0000
0000
0000
E038
F038
F038
7038
7038
7038
7038
7038
7038
7038
3870
3FF0
1FE0
0FC0
ENDCHAR
STARTCHAR 03CC
ENCODING 972
SWIDTH 526 0
DWIDTH 15 0
BBX 11 22 2 1
BITMAP
0380
0380
0300
0700
0600
0200
0000
0000
1F00
7FC0
7FE0
E0E0
E0E0
E060
E060
E060
E060
E0E0
E0E0
7FE0
7FC0
1F00
ENDCHAR
STARTCHAR 03CD
ENCODING 973
SWIDTH 561 0
DWIDTH 16 0
BBX 13 23 1 0
BITMAP
0080
01C0
01C0
0180
0380
0300
0000
0000
0000
E038
F038
F038
7038
7038
7038
7038
7038
7038
7038
3870
3FF0
1FE0
0FC0
ENDCHAR
STARTCHAR 03CE
ENCODING 974
SWIDTH 702 0
DWIDTH 20 0
BBX 17 23 2 0
BITMAP
004000
007000
006000
00E000
00C000
01C000
000000
000000
000000
181C00
781E00
F81F00
E00700
E00380
E00380
E1C380
E1C380
E1C380
E1C380
E3C700
FFFF00
7F7F00
3E3C00
ENDCHAR
STARTCHAR 03CF
ENCODING 975
SWIDTH 632 0
DWIDTH 18 0
BBX 15 26 2 -6
BITMAP
E01C
E03C
E078
E070
E0E0
E1C0
E3C0
E380
E780
EF80
FDC0
F9E0
F8E0
F0F0
E070
E038
E03C
E01C
E01E
E00E
000E
001E
001C
003C
0038
0078
ENDCHAR
STARTCHAR 03D0
ENCODING 976
SWIDTH 561 0
DWIDTH 16 0
BBX 12 20 2 0
BITMAP
1F00
3FC0
7FE0
F0E0
E0E0
E0E0
E0E0
E0E0
EFC0
EF80
EFC0
E0E0
E070
E070
E070
E070
F0E0
7FE0
3FC0
1F80
ENDCHAR
STARTCHAR 03D1
ENCODING 977
SWIDTH 597 0
DWIDTH 17 0
BBX 15 20 1 0
BITMAP
07C0
0FE0
1FF0
1C78
1838
1838
1C38
1FFE
0FFE
E3FE
F038
F038
3838
3838
3838
3838
3878
3FF0
1FE0
07C0
ENDCHAR
STARTCHAR 03D2
ENCODING 978
SWIDTH 526 0
DWIDTH 15 0
BBX 15 20 0 0
BITMAP
E00E
F83E
FC7E
1EF0
0FE0
07C0
0780
0380
0380
0380
0380
0380
0380
0380
0380
0380
0380
0380
0380
0380
ENDCHAR
STARTCHAR 03D3
ENCODING 979
SWIDTH 702 0
DWIDTH 20 0
BBX 20 20 0 0
BITMAP
270070
77C1F0
67F3F0
E0F780
E03F00
C03E00
001E00
001C00
001C00
001C00
001C00
001C00
001C00
001C00
001C00
001C00
001C00
001C00
001C00
001C00
ENDCHAR
STARTCHAR 03D4
ENCODING 980
SWIDTH 526 0
DWIDTH 15 0
BBX 15 24 0 0
BITMAP
1C60
1C60
1C60
0000
E00E
F83E
FC7E
1EF0
0FE0
07C0
0780
0380
0380
0380
0380
0380
0380
0380
0380
0380
0380
0380
0380
0380
ENDCHAR
STARTCHAR 03D5
ENCODING 981
SWIDTH 667 0
DWIDTH 19 0
BBX 15 18 2 -4
BITMAP
00F8
21FC
73FE
E38E
E38E
C386
C386
C38E
C38E
E38E
E39C
7BBC
3FF8
0FE0
0380
0380
0380
0380
ENDCHAR
STARTCHAR 03D6
ENCODING 982
SWIDTH 842 0
DWIDTH 24 0
BBX 21 14 2 0
BITMAP
FFFFF8
FFFFF8
FFFFF8
3801C0
3000E0
7000E0
7070E0
7070E0
7070E0
7070E0
78F0E0
3FFFE0
3FDFC0
0F0F80
ENDCHAR
STARTCHAR 03D7
ENCODING 983
SWIDTH 667 0
DWIDTH 19 0
BBX 16 19 2 -5
BITMAP
F00C
F81C
F83C
187C
1C7C
18F8
19D8
1BB8
1B38
3F38
3E38
3C3F
381F
380F
0003
0007
001F
001F
001C
ENDCHAR
STARTCHAR 03D8
ENCODING 984
SWIDTH 632 0
DWIDTH 18 0
BBX 14 20 2 0
BITMAP
0FC0
3FF0
3FF8
7878
F03C
E01C
E01C
E01C
E01C
E01C
E01C
F03C
7838
7FF8
3FF0
0FC0
0300
0300
0300
0300
ENDCHAR
STARTCHAR 03D9
ENCODING 985
SWIDTH 526 0
DWIDTH 15 0
BBX 11 18 2 -4
BITMAP
1F00
7FC0
7FE0
E0E0
E0E0
E060
E060
E060
E060
E0E0
E0E0
7FE0
7FC0
1F00
0E00
0E00
0E00
0E00
ENDCHAR
STARTCHAR 03DA
ENCODING 986
SWIDTH 561 0
DWIDTH 16 0
BBX 14 25 2 -4
BITMAP
001C
003C
03F8
0FF0
3F00
3800
7000
7000
E000
E000
E000
E000
E000
E000
E000
E000
7000
7800
3FC0
1FF8
0FF8
0038
0018
0018
0008
ENDCHAR
STARTCHAR 03DB
ENCODING 987
SWIDTH 526 0
DWIDTH 15 0
BBX 12 18 2 -3
BITMAP
0070
01E0
1FE0
3F80
7800
E000
E000
E000
E000
E000
E000
F000
7F00
3FE0
1FE0
00E0
00E0
00E0
ENDCHAR
STARTCHAR 03DC
ENCODING 988
SWIDTH 561 0
DWIDTH 16 0
BBX 13 20 2 0
BITMAP
FFF8
FFF8
FFF8
E000
E000
E000
E000
E000
E000
FFE0
FFE0
FFE0
E000
E000
E000
E000
E000
E000
E000
E000
ENDCHAR
STARTCHAR 03DD
ENCODING 989
SWIDTH 491 0
DWIDTH 14 0
BBX 11 20 2 -6
BITMAP
FFE0
FFE0
FFE0
E000
E000
E000
E000
E000
E000
FFC0
FFC0
FFC0
E000
E000
E000
E000
E000
E000
E000
E000
ENDCHAR
STARTCHAR 03DE
ENCODING 990
SWIDTH 632 0
DWIDTH 18 0
BBX 16 20 1 0
BITMAP
0700
0700
0E00
0E00
1C00
1C00
3800
3800
7FFF
FFFF
FFFE
000E
001C
001C
0038
0038
0070
0070
00E0
00E0
ENDCHAR
STARTCHAR 03DF
ENCODING 991
SWIDTH 597 0
DWIDTH 17 0
BBX 15 20 1 -6
BITMAP
0780
0700
0F00
0E00
1E00
1C00
3800
3800
7FFE
7FFC
FFFC
0038
0038
0070
0070
00E0
00E0
01E0
01C0
03C0
ENDCHAR
STARTCHAR 03E0
ENCODING 992
SWIDTH 561 0
DWIDTH 16 0
BBX 13 20 1 0
BITMAP
7E00
FF80
FFC0
01E0
00F0
01F0
0FF0
3FB0
FC38
7038
01F8
0FF8
3FB0
3C70
3070
0070
0070
00E0
00E0
01C0
ENDCHAR
STARTCHAR 03E1
ENCODING 993
SWIDTH 561 0
DWIDTH 16 0
BBX 13 26 1 -6
BITMAP
7E00
FF80
FFC0
01E0
00E0
0070
01F0
0FF0
3FB8
FC38
7038
0038
0078
01F8
0FF8
3FB8
1C38
0038
0038
0038
0070
0070
0070
0070
00E0
00E0
ENDCHAR
STARTCHAR 03E2
ENCODING 994
SWIDTH 948 0
DWIDTH 27 0
BBX 23 26 2 -6
BITMAP
E0380E
E0380E
E0380E
E0380E
E0380E
E0380E
E0380E
E0380E
E0380E
E0380E
E0380E
E0380E
E0380E
E0380E
E0380E
70380E
707C1E
7FFFFE
3FEFFE
0F83EE
00000E
00001E
1FFFFC
3FFFFC
3FFFE0
700000
ENDCHAR
STARTCHAR 03E3
ENCODING 995
SWIDTH 772 0
DWIDTH 22 0
BBX 18 20 2 -6
BITMAP
E0E1C0
E0E1C0
E0E1C0
E0E1C0
E0E1C0
E0E1C0
E0E1C0
E0E1C0
E0E1C0
E0E1C0
F1E1C0
7FFFC0
7FFFC0
1F1FC0
0001C0
0001C0
3FFFC0
7FFF80
7FFE00
600000
ENDCHAR
STARTCHAR 03E4
ENCODING 996
SWIDTH 597 0
DWIDTH 17 0
BBX 14 20 1 0
BITMAP
0E1C
3E1C
7E1C
701C
F01C
E01C
E01C
E01C
E01C
703C
703C
7FFC
3FDC
0F9C
001C
001C
001C
001C
001C
001C
ENDCHAR
STARTCHAR 03E5
ENCODING 997
SWIDTH 597 0
DWIDTH 17 0
BBX 13 20 2 -6
BITMAP
1C18
3C18
7C18
F018
E018
E018
E018
E018
E038
E038
F078
7FF8
3FD8
1F18
0018
0018
0018
0018
0018
0018
ENDCHAR
STARTCHAR 03E6
ENCODING 998
SWIDTH 632 0
DWIDTH 18 0
BBX 14 26 2 -6
BITMAP
E000
E000
E000
E000
E000
E000
E000
E000
E000
FFE0
FFF0
FFF8
E038
E01C
E01C
E01C
E01C
E01C
E01C
E01C
001C
003C
3FF8
7FF0
7FC0
E000
ENDCHAR
STARTCHAR 03E7
ENCODING 999
SWIDTH 561 0
DWIDTH 16 0
BBX 14 15 1 -1
BITMAP
1F9C
3FDC
7FFC
70F8
7078
7078
7FF8
3FF8
1FB8
0038
0078
3FF0
7FE0
7FC0
E000
ENDCHAR
STARTCHAR 03E8
ENCODING 1000
SWIDTH 597 0
DWIDTH 17 0
BBX 14 20 2 0
BITMAP
0FC0
3FE0
7FF0
2070
0070
0070
0070
01E0
1FE0
7F80
FC00
E000
E000
C000
C000
E008
E01C
FFFC
7FF8
1FE0
ENDCHAR
STARTCHAR 03E9
ENCODING 1001
SWIDTH 491 0
DWIDTH 14 0
BBX 12 14 1 0
BITMAP
0F80
3FC0
3FE0
10E0
00E0
0FE0
3FC0
7E00
7000
E000
E020
7FF0
7FF0
1FC0
ENDCHAR
STARTCHAR 03EA
ENCODING 1002
SWIDTH 667 0
DWIDTH 19 0
BBX 17 20 1 0
BITMAP
380E00
3C1E00
3E3E00
0E3800
077000
07E000
03E000
01C000
01C000
03E000
07E000
077000
0E3800
1E3800
1C1C00
381C00
380E00
7FFF00
FFFF00
FFFF80
ENDCHAR
STARTCHAR 03EB
ENCODING 1003
SWIDTH 526 0
DWIDTH 15 0
BBX 13 14 1 0
BITMAP
7070
78F0
7CF0
1DC0
0F80
0780
0700
0F80
0FC0
1DC0
38E0
3FF0
7FF0
FFF8
ENDCHAR
STARTCHAR 03EC
ENCODING 1004
SWIDTH 667 0
DWIDTH 19 0
BBX 15 21 2 0
BITMAP
000C
007C
3FFC
7FF8
7000
E000
E7E0
EFF8
FFFC
F01C
E00E
E00E
E00E
E00E
E00E
E00E
E00E
701C
7FFC
3FF8
0FE0
ENDCHAR
STARTCHAR 03ED
ENCODING 1005
SWIDTH 561 0
DWIDTH 16 0
BBX 12 20 2 0
BITMAP
00E0
0FE0
3FC0
7E00
7000
E000
EF80
FFC0
FFE0
F0F0
E070
E070
E070
E070
E070
E070
70F0
7FE0
3FC0
1F80
ENDCHAR
STARTCHAR 03EE
ENCODING 1006
SWIDTH 491 0
DWIDTH 14 0
BBX 14 20 -1 0
BITMAP
0380
0380
0380
7FFC
7FFC
FFFC
E380
E380
0380
0380
0380
0380
0380
0380
0380
0380
0380
0380
0380
0380
ENDCHAR
STARTCHAR 03EF
ENCODING 1007
SWIDTH 456 0
DWIDTH 13 0
BBX 11 24 1 -6
BITMAP
0E00
0E00
0E00
0E00
FFE0
FFE0
FFE0
0E00
0E00
0E00
0E00
0E00
0E00
0E00
0E00
0E00
0E00
0E00
0E00
0E00
0E00
7E00
7C00
7800
ENDCHAR
STARTCHAR 03F0
ENCODING 1008
SWIDTH 597 0
DWIDTH 17 0
BBX 15 14 1 0
BITMAP
F00C
F81C
F83C
1C7C
1C7C
1CF8
19D8
1BB8
1B38
3F38
3E38
3C3E
381E
380E
ENDCHAR
STARTCHAR 03F1
ENCODING 1009
SWIDTH 526 0
DWIDTH 15 0
BBX 11 20 2 -6
BITMAP
1F00
3FC0
7FE0
70E0
E060
E060
E060
E060
E060
E060
F0E0
FFE0
FFC0
E780
E000
F000
7F80
7FC0
1FE0
00E0
ENDCHAR
STARTCHAR 03F2
ENCODING 1010
SWIDTH 491 0
DWIDTH 14 0
BBX 11 14 2 0
BITMAP
1F80
7FC0
7FE0
F0C0
E000
E000
E000
E000
E000
E000
F0C0
7FE0
7FC0
1F80
ENDCHAR
STARTCHAR 03F3
ENCODING 1011
SWIDTH 280 0
DWIDTH 8 0
BBX 5 26 0 -6
BITMAP
18
18
18
00
00
00
18
18
18
18
18
18
18
18
18
18
18
18
18
18
18
18
18
F8
F8
F0
ENDCHAR
STARTCHAR 03F4
ENCODING 1012
SWIDTH 632 0
DWIDTH 18 0
BBX 14 20 2 0
BITMAP
0FC0
3FF0
7FF8
7878
F03C
E01C
E01C
E01C
FFFC
FFFC
FFFC
E01C
E01C
E01C
E01C
F03C
7838
7FF8
3FF0
0FC0
ENDCHAR
STARTCHAR 03F5
ENCODING 1013
SWIDTH 491 0
DWIDTH 14 0
BBX 11 14 2 0
BITMAP
1F80
7FC0
7FE0
F0C0
E000
FF80
FF80
FF80
E000
E000
F0C0
7FE0
7FC0
1F80
ENDCHAR
STARTCHAR 03F6
ENCODING 1014
SWIDTH 491 0
DWIDTH 14 0
BBX 11 14 1 0
BITMAP
3F00
7FC0
FFC0
61E0
00E0
3FE0
3FE0
3FE0
00E0
00E0
40E0
FFC0
7FC0
3F00
ENDCHAR
STARTCHAR 03F7
ENCODING 1015
SWIDTH 597 0
DWIDTH 17 0
BBX 14 20 2 0
BITMAP
E000
E000
E000
E000
FFE0
FFF0
FFF8
E03C
E01C
E01C
E01C
E01C
E03C
FFF8
FFF0
FFE0
E000
E000
E000
E000
ENDCHAR
STARTCHAR 03F8
ENCODING 1016
SWIDTH 526 0
DWIDTH 15 0
BBX 11 26 2 -6
BITMAP
E000
E000
E000
E000
E000
E000
E780
FFC0
FFE0
F0E0
E060
E060
E060
E060
E060
E060
E0E0
FFE0
FFC0
E780
E000
E000
E000
E000
E000
E000
ENDCHAR
STARTCHAR 03F9
ENCODING 1017
SWIDTH 597 0
DWIDTH 17 0
BBX 14 20 2 0
BITMAP
0FC0
3FE0
3FF0
7878
F038
E01C
E000
E000
E000
E000
E000
E000
E000
E000
E01C
F038
7878
3FF0
3FE0
0FC0
ENDCHAR
STARTCHAR 03FA
ENCODING 1018
SWIDTH 772 0
DWIDTH 22 0
BBX 17 20 2 0
BITMAP
E00180
F00380
F00380
F80780
F80780
FC0F80
FC0F80
EC1D80
EE1D80
E61980
E73980
E73180
E3F180
E3F180
E1E180
E1E180
E0C180
E00180
E00180
E00180
ENDCHAR
STARTCHAR 03FB
ENCODING 1019
SWIDTH 632 0
DWIDTH 18 0
BBX 14 18 2 -4
BITMAP
E01C
E03C
F03C
F87C
F87C
FCFC
FCDC
EFDC
EF9C
E79C
E31C
E01C
E01C
E01C
E000
E000
E000
E000
ENDCHAR
STARTCHAR 03FC
ENCODING 1020
SWIDTH 526 0
DWIDTH 15 0
BBX 12 20 1 -6
BITMAP
0F80
1FE0
3FF0
7870
7030
7030
7030
7030
7030
7030
7870
7FF0
7FE0
73C0
7000
FF80
FF80
FF80
7000
7000
ENDCHAR
STARTCHAR 03FD
ENCODING 1021
SWIDTH 597 0
DWIDTH 17 0
BBX 13 20 2 0
BITMAP
0F80
3FE0
7FF0
F070
E038
E038
0038
0038
0038
0038
0038
0038
0038
0038
E038
E038
F070
7FF0
3FE0
0F80
ENDCHAR
STARTCHAR 03FE
ENCODING 1022
SWIDTH 597 0
DWIDTH 17 0
BBX 14 20 2 0
BITMAP
0FC0
3FE0
3FF0
7878
F038
E01C
E000
E000
E380
E380
E380
E000
E000
E000
E01C
F038
7878
3FF0
3FE0
0FC0
ENDCHAR
STARTCHAR 03FF
ENCODING 1023
SWIDTH 597 0
DWIDTH 17 0
BBX 13 20 2 0
BITMAP
0F80
3FE0
7FF0
F070
E038
E038
0038
0038
0E38
0E38
0E38
0038
0038
0038
E038
E038
F070
7FF0
3FE0
0F80
ENDCHAR
STARTCHAR 0400
ENCODING 1024
SWIDTH 597 0
DWIDTH 17 0
BBX 13 26 2 0
BITMAP
0800
1E00
0F00
0700
0200
0000
FFF8
FFF8
FFF8
E000
E000
E000
E000
E000
FFF0
FFF0
FFF0
E000
E000
E000
E000
E000
E000
FFF8
FFF8
FFF8
ENDCHAR
STARTCHAR 0401
ENCODING 1025
SWIDTH 597 0
DWIDTH 17 0
BBX 13 25 2 0
BITMAP
1CE0
1CE0
1CE0
0000
0000
FFF8
FFF8
FFF8
E000
E000
E000
E000
E000
FFF0
FFF0
FFF0
E000
E000
E000
E000
E000
E000
FFF8
FFF8
FFF8
ENDCHAR
STARTCHAR 0402
ENCODING 1026
SWIDTH 702 0
DWIDTH 20 0
BBX 19 20 0 0
BITMAP
FFFC00
FFFC00
FFFC00
070000
070000
070000
070000
071E00
077F80
07FFC0
07C1C0
0780E0
0700E0
0700E0
0700E0
0700E0
0701E0
070FC0
070F80
070F00
ENDCHAR
STARTCHAR 0403
ENCODING 1027
SWIDTH 456 0
DWIDTH 13 0
BBX 12 26 2 1
BITMAP
00C0
01C0
0780
0300
0000
0000
FFF0
FFF0
FFF0
E000
E000
E000
E000
E000
E000
E000
E000
E000
E000
E000
E000
E000
E000
E000
E000
E000
ENDCHAR
STARTCHAR 0404
ENCODING 1028
SWIDTH 597 0
DWIDTH 17 0
BBX 14 20 2 0
BITMAP
0FC0
3FE0
3FF0
7878
F038
E01C
E000
E000
FFE0
FFE0
FFE0
E000
E000
E000
E01C
F038
7878
3FF0
3FE0
0FC0
ENDCHAR
STARTCHAR 0405
ENCODING 1029
SWIDTH 597 0
DWIDTH 17 0
BBX 15 20 1 0
BITMAP
07E0
1FFC
3FFC
3808
7000
7000
7000
7800
3E00
1FE0
0FF8
007C
001C
000E
000E
200E
701C
FFFC
3FF8
0FE0
ENDCHAR
STARTCHAR 0406
ENCODING 1030
SWIDTH 280 0
DWIDTH 8 0
BBX 3 20 2 0
BITMAP
E0
E0
E0
E0
E0
E0
E0
E0
E0
E0
E0
E0
E0
E0
E0
E0
E0
E0
E0
E0
ENDCHAR
STARTCHAR 0407
ENCODING 1031
SWIDTH 280 0
DWIDTH 8 0
BBX 8 25 0 0
BITMAP
C7
C7
C7
00
00
38
38
38
38
38
38
38
38
38
38
38
38
38
38
38
38
38
38
38
38
ENDCHAR
STARTCHAR 0408
ENCODING 1032
SWIDTH 491 0
DWIDTH 14 0
BBX 12 20 0 0
BITMAP
0070
0070
0070
0070
0070
0070
0070
0070
0070
0070
0070
0070
0070
0070
0070
00E0
20E0
FFE0
7FC0
1F00
ENDCHAR
STARTCHAR 0409
ENCODING 1033
SWIDTH 1018 0
DWIDTH 29 0
BBX 25 20 2 0
BITMAP
1FFF0000
1FFF0000
1FFF0000
1C070000
1C070000
1C070000
1C070000
1C070000
1C07F800
1C07FE00
1C07FF00
1C070700
1C070380
1C070380
1C070380
38070380
38070700
F807FF00
F007FE00
E007FC00
ENDCHAR
STARTCHAR 040A
ENCODING 1034
SWIDTH 1018 0
DWIDTH 29 0
BBX 25 20 2 0
BITMAP
E00E0000
E00E0000
E00E0000
E00E0000
E00E0000
E00E0000
E00E0000
E00E0000
FFFFF800
FFFFFE00
FFFFFF00
E00E0700
E00E0380
E00E0380
E00E0380
E00E0380
E00E0700
E00FFF00
E00FFE00
E00FFC00
ENDCHAR
STARTCHAR 040B
ENCODING 1035
SWIDTH 737 0
DWIDTH 21 0
BBX 19 20 0 0
BITMAP
FFFC00
FFFC00
FFFC00
070000
070000
070000
073F00
077FC0
07FFC0
07C1E0
0780E0
0700E0
070060
070060
070060
070060
070060
070060
070060
070060
ENDCHAR
STARTCHAR 040C
ENCODING 1036
SWIDTH 632 0
DWIDTH 18 0
BBX 15 26 2 1
BITMAP
00C0
01E0
0380
0300
0000
0000
E01E
E03C
E038
E070
E0F0
E0E0
E1C0
E3C0
FF80
FF00
FF80
E3C0
E1C0
E1E0
E0F0
E070
E078
E03C
E01E
E01E
ENDCHAR
STARTCHAR 040D
ENCODING 1037
SWIDTH 702 0
DWIDTH 20 0
BBX 15 26 2 0
BITMAP
0400
0E00
0700
0380
0100
0000
E006
E00E
E01E
E01E
E03E
E07E
E07E
E0EE
E1CE
E1CE
E38E
E30E
E70E
EE0E
EC0E
FC0E
F80E
F00E
F00E
E00E
ENDCHAR
STARTCHAR 040E
ENCODING 1038
SWIDTH 597 0
DWIDTH 17 0
BBX 16 25 1 1
BITMAP
1C30
0FF0
0FE0
0000
0000
E00F
F00E
700E
701C
381C
381C
1C38
1C38
0C38
0E70
0E70
0760
07E0
03E0
03C0
01C0
01C0
1F80
1F00
1E00
ENDCHAR
STARTCHAR 040F
ENCODING 1039
SWIDTH 667 0
DWIDTH 19 0
BBX 15 24 2 -4
BITMAP
E00E
E00E
E00E
E00E
E00E
E00E
E00E
E00E
E00E
E00E
E00E
E00E
E00E
E00E
E00E
E00E
E00E
FFFE
FFFE
FFFE
0380
0380
0380
0380
ENDCHAR
STARTCHAR 0410
ENCODING 1040
SWIDTH 632 0
DWIDTH 18 0
BBX 16 20 1 0
BITMAP
0180
03C0
03C0
03E0
07E0
0760
0E70
0E70
0C30
1C38
1C38
1818
381C
3FFC
3FFE
7FFE
700E
E007
E007
E007
ENDCHAR
STARTCHAR 0411
ENCODING 1041
SWIDTH 632 0
DWIDTH 18 0
BBX 14 20 2 0
BITMAP
FFF8
FFF8
FFF8
E000
E000
E000
E000
E000
FFC0
FFF0
FFF8
E03C
E01C
E01C
E01C
E01C
E03C
FFF8
FFF8
FFE0
ENDCHAR
STARTCHAR 0412
ENCODING 1042
SWIDTH 632 0
DWIDTH 18 0
BBX 14 20 2 0
BITMAP
FFE0
FFF8
FFF8
E01C
E01C
E01C
E01C
E01C
E0F8
FFE0
FFF0
E038
E01C
E01C
E00C
E01C
E01C
E1FC
FFF8
FFE0
ENDCHAR
STARTCHAR 0413
ENCODING 1043
SWIDTH 456 0
DWIDTH 13 0
BBX 12 20 2 0
BITMAP
FFF0
FFF0
FFF0
E000
E000
E000
E000
E000
E000
E000
E000
E000
E000
E000
E000
E000
E000
E000
E000
E000
ENDCHAR
STARTCHAR 0414
ENCODING 1044
SWIDTH 667 0
DWIDTH 19 0
BBX 18 24 1 -4
BITMAP
1FFE00
1FFE00
1FFE00
1C0600
1C0600
1C0600
1C0600
1C0600
1C0600
1C0600
1C0600
1C0600
1C0600
1C0600
1C0600
380600
780600
FFFFC0
FFFFC0
FFFFC0
C001C0
C001C0
C001C0
C001C0
ENDCHAR
STARTCHAR 0415
ENCODING 1045
SWIDTH 597 0
DWIDTH 17 0
BBX 13 20 2 0
BITMAP
FFF8
FFF8
FFF8
E000
E000
E000
E000
E000
FFF0
FFF0
FFF0
E000
E000
E000
E000
E000
E000
FFF8
FFF8
FFF8
ENDCHAR
STARTCHAR 0416
ENCODING 1046
SWIDTH 948 0
DWIDTH 27 0
BBX 25 20 1 0
BITMAP
F01C0700
781C0F00
381C0E00
3C1C1C00
1C1C3C00
0E1C3800
0F1C7000
071CF000
03FFE000
03FFC000
03FFE000
079CF000
071C7000
0F1C7800
1E1C3C00
1C1C1C00
3C1C1E00
781C0F00
F01C0700
E01C0780
ENDCHAR
STARTCHAR 0417
ENCODING 1047
SWIDTH 597 0
DWIDTH 17 0
BBX 13 20 2 0
BITMAP
0F80
3FE0
7FF0
F070
E070
0030
0070
0070
0FE0
0FC0
0FE0
0070
0038
0038
0038
E038
E070
FFF0
7FE0
1F80
ENDCHAR
STARTCHAR 0418
ENCODING 1048
SWIDTH 702 0
DWIDTH 20 0
BBX 15 20 2 0
BITMAP
E006
E00E
E01E
E01E
E03E
E07E
E07E
E0EE
E1CE
E1CE
E38E
E30E
E70E
EE0E
EC0E
FC0E
F80E
F00E
F00E
E00E
ENDCHAR
STARTCHAR 0419
ENCODING 1049
SWIDTH 702 0
DWIDTH 20 0
BBX 15 25 2 1
BITMAP
1C30
0FF0
0FE0
0000
0000
E006
E00E
E01E
E01E
E03E
E07E
E07E
E0EE
E1CE
E1CE
E38E
E30E
E70E
EE0E
EC0E
FC0E
F80E
F00E
F00E
E00E
ENDCHAR
STARTCHAR 041A
ENCODING 1050
SWIDTH 632 0
DWIDTH 18 0
BBX 15 20 2 0
BITMAP
E01E
E03C
E038
E070
E0F0
E0E0
E1C0
E3C0
FF80
FF00
FF80
E3C0
E1C0
E1E0
E0F0
E070
E078
E03C
E01E
E01E
ENDCHAR
STARTCHAR 041B
ENCODING 1051
SWIDTH 702 0
DWIDTH 20 0
BBX 16 20 2 0
BITMAP
1FFF
1FFF
1FFF
1C07
1C07
1C07
1C07
1C07
1C07
1C07
1C07
1C07
1C07
1C07
1C07
3807
3807
F807
F007
E007
ENDCHAR
STARTCHAR 041C
ENCODING 1052
SWIDTH 772 0
DWIDTH 22 0
BBX 17 20 2 0
BITMAP
E00180
F00380
F00380
F80780
F80780
FC0F80
FC0F80
EC1D80
EE1D80
E61980
E73980
E73180
E3F180
E3F180
E1E180
E1E180
E0C180
E00180
E00180
E00180
ENDCHAR
STARTCHAR 041D
ENCODING 1053
SWIDTH 667 0
DWIDTH 19 0
BBX 15 20 2 0
BITMAP
E00E
E00E
E00E
E00E
E00E
E00E
E00E
E00E
FFFE
FFFE
FFFE
E00E
E00E
E00E
E00E
E00E
E00E
E00E
E00E
E00E
ENDCHAR
STARTCHAR 041E
ENCODING 1054
SWIDTH 632 0
DWIDTH 18 0
BBX 14 20 2 0
BITMAP
0FC0
3FF0
7FF8
7878
F03C
E01C
E01C
E01C
E01C
E01C
E01C
E01C
E01C
E01C
E01C
F03C
7838
7FF8
3FF0
0FC0
ENDCHAR
STARTCHAR 041F
ENCODING 1055
SWIDTH 667 0
DWIDTH 19 0
BBX 15 20 2 0
BITMAP
FFFE
FFFE
FFFE
E00E
E00E
E00E
E00E
E00E
E00E
E00E
E00E
E00E
E00E
E00E
E00E
E00E
E00E
E00E
E00E
E00E
ENDCHAR
STARTCHAR 0420
ENCODING 1056
SWIDTH 597 0
DWIDTH 17 0
BBX 14 20 2 0
BITMAP
FFE0
FFF0
FFF8
E03C
E01C
E01C
E01C
E01C
E03C
FFF8
FFF0
FFE0
E000
E000
E000
E000
E000
E000
E000
E000
ENDCHAR
STARTCHAR 0421
ENCODING 1057
SWIDTH 597 0
DWIDTH 17 0
BBX 14 20 2 0
BITMAP
0FC0
3FE0
3FF0
7878
F038
E01C
E000
E000
E000
E000
E000
E000
E000
E000
E01C
F038
7878
3FF0
3FE0
0FC0
ENDCHAR
STARTCHAR 0422
ENCODING 1058
SWIDTH 456 0
DWIDTH 13 0
BBX 14 20 0 0
BITMAP
FFFC
FFFC
FFFC
0700
0700
0700
0700
0700
0700
0700
0700
0700
0700
0700
0700
0700
0700
0700
0700
0700
ENDCHAR
STARTCHAR 0423
ENCODING 1059
SWIDTH 597 0
DWIDTH 17 0
BBX 16 20 1 0
BITMAP
E00F
F00E
700E
701C
381C
381C
1C38
1C38
0C38
0E70
0E70
0760
07E0
03E0
03C0
01C0
01C0
1F80
1F00
1E00
ENDCHAR
STARTCHAR 0424
ENCODING 1060
SWIDTH 772 0
DWIDTH 22 0
BBX 20 20 1 0
BITMAP
006000
006000
03FC00
0FFF80
3FFFC0
7861E0
7060E0
E06070
E06070
E06070
E06070
E06070
606070
7060E0
7861E0
3FFFC0
0FFF80
03FC00
006000
006000
ENDCHAR
STARTCHAR 0425
ENCODING 1061
SWIDTH 561 0
DWIDTH 16 0
BBX 14 20 1 0
BITMAP
E01C
E038
7038
3870
3870
1CE0
1DC0
0FC0
0780
0780
0780
0F80
0FC0
1CE0
1CE0
3870
7070
7038
E01C
E01C
ENDCHAR
STARTCHAR 0426
ENCODING 1062
SWIDTH 702 0
DWIDTH 20 0
BBX 17 24 2 -4
BITMAP
E00E00
E00E00
E00E00
E00E00
E00E00
E00E00
E00E00
E00E00
E00E00
E00E00
E00E00
E00E00
E00E00
E00E00
E00E00
E00E00
E00E00
FFFF80
FFFF80
FFFF80
000380
000380
000380
000380
ENDCHAR
STARTCHAR 0427
ENCODING 1063
SWIDTH 632 0
DWIDTH 18 0
BBX 13 20 2 0
BITMAP
E038
E038
E038
E038
E038
E038
E038
E038
E038
E038
F078
7FF8
3FF8
1F38
0038
0038
0038
0038
0038
0038
ENDCHAR
STARTCHAR 0428
ENCODING 1064
SWIDTH 913 0
DWIDTH 26 0
BBX 21 20 2 0
BITMAP
E03018
E03018
E03018
E03018
E03018
E03018
E03018
E03018
E03018
E03018
E03018
E03018
E03018
E03018
E03018
E03018
E03018
FFFFF8
FFFFF8
FFFFF8
ENDCHAR
STARTCHAR 0429
ENCODING 1065
SWIDTH 948 0
DWIDTH 27 0
BBX 24 24 2 -4
BITMAP
E03018
E03018
E03018
E03018
E03018
E03018
E03018
E03018
E03018
E03018
E03018
E03018
E03018
E03018
E03018
E03018
E03018
FFFFFF
FFFFFF
FFFFFF
000007
000007
000007
000007
ENDCHAR
STARTCHAR 042A
ENCODING 1066
SWIDTH 702 0
DWIDTH 20 0
BBX 18 20 0 0
BITMAP
FE0000
FE0000
FE0000
060000
060000
060000
060000
060000
07FC00
07FF00
07FF80
0603C0
0601C0
0601C0
0601C0
0601C0
0603C0
07FF80
07FF00
07FE00
ENDCHAR
STARTCHAR 042B
ENCODING 1067
SWIDTH 807 0
DWIDTH 23 0
BBX 19 20 2 0
BITMAP
E000E0
E000E0
E000E0
E000E0
E000E0
E000E0
E000E0
E000E0
FFC0E0
FFF0E0
FFF8E0
E078E0
E038E0
E018E0
E01CE0
E038E0
E038E0
FFF8E0
FFF0E0
FFC0E0
ENDCHAR
STARTCHAR 042C
ENCODING 1068
SWIDTH 632 0
DWIDTH 18 0
BBX 14 20 2 0
BITMAP
E000
E000
E000
E000
E000
E000
E000
E000
FFC0
FFF0
FFF8
E03C
E01C
E01C
E01C
E01C
E03C
FFF8
FFF0
FFE0
ENDCHAR
STARTCHAR 042D
ENCODING 1069
SWIDTH 597 0
DWIDTH 17 0
BBX 13 20 2 0
BITMAP
0F80
3FE0
7FF0
F070
E038
E038
0038
0038
3FF8
3FF8
3FF8
0038
0038
0038
E038
E038
F070
7FF0
3FE0
0F80
ENDCHAR
STARTCHAR 042E
ENCODING 1070
SWIDTH 913 0
DWIDTH 26 0
BBX 21 20 2 0
BITMAP
E00F80
E03FE0
E07FF0
E0F078
E0E038
E0E038
E1C018
E1C018
FFC018
FFC018
FFC018
E1C018
E1C018
E1C018
E0E038
E0E038
E0F078
E07FF0
E03FE0
E00F80
ENDCHAR
STARTCHAR 042F
ENCODING 1071
SWIDTH 597 0
DWIDTH 17 0
BBX 14 20 1 0
BITMAP
0FFC
3FFC
7FFC
701C
701C
E01C
E01C
701C
701C
7FFC
3FFC
0FFC
071C
0E1C
1E1C
1C1C
3C1C
381C
701C
701C
ENDCHAR
STARTCHAR 0430
ENCODING 1072
SWIDTH 526 0
DWIDTH 15 0
BBX 11 14 2 0
BITMAP
3F00
7FC0
7FC0
00E0
00E0
00E0
7FE0
FFE0
E0E0
C0E0
C0E0
F1E0
FFE0
3EE0
ENDCHAR
STARTCHAR 0431
ENCODING 1073
SWIDTH 561 0
DWIDTH 16 0
BBX 12 20 2 0
BITMAP
00E0
0FE0
3FC0
7E00
7000
E000
EF80
FFC0
FFE0
F0F0
E070
E070
E070
E070
E070
E070
70F0
7FE0
3FC0
1F80
ENDCHAR
STARTCHAR 0432
ENCODING 1074
SWIDTH 526 0
DWIDTH 15 0
BBX 12 14 2 0
BITMAP
FFC0
FFE0
FFE0
E0E0
E0E0
E1E0
FF80
FFC0
E0E0
E070
E070
E1E0
FFE0
FFC0
ENDCHAR
STARTCHAR 0433
ENCODING 1075
SWIDTH 421 0
DWIDTH 12 0
BBX 9 14 2 0
BITMAP
FF80
FF80
FF80
E000
E000
E000
E000
E000
E000
E000
E000
E000
E000
E000
ENDCHAR
STARTCHAR 0434
ENCODING 1076
SWIDTH 632 0
DWIDTH 18 0
BBX 16 18 1 -4
BITMAP
1FF8
1FF8
1FF8
1C38
1C38
1C38
1C38
1C38
1C38
1C38
1C38
FFFF
FFFF
FFFF
E007
E007
E007
E007
ENDCHAR
STARTCHAR 0435
ENCODING 1077
SWIDTH 526 0
DWIDTH 15 0
BBX 11 14 2 0
BITMAP
1F00
7FC0
7FC0
E0E0
E0E0
C060
FFE0
FFE0
C000
E000
F040
7FE0
7FC0
1F00
ENDCHAR
STARTCHAR 0436
ENCODING 1078
SWIDTH 702 0
DWIDTH 20 0
BBX 20 14 0 0
BITMAP
7060E0
3861C0
1C6380
1C6380
0E6700
07FE00
07FE00
07FE00
0E6700
1C6380
3C63C0
3861C0
7861E0
F060F0
ENDCHAR
STARTCHAR 0437
ENCODING 1079
SWIDTH 456 0
DWIDTH 13 0
BBX 11 14 1 0
BITMAP
1F00
3FC0
7FC0
E1C0
00C0
03C0
0F00
0FC0
00E0
00E0
E0E0
7FE0
7FC0
1F00
ENDCHAR
STARTCHAR 0438
ENCODING 1080
SWIDTH 561 0
DWIDTH 16 0
BBX 12 14 2 0
BITMAP
E070
E0F0
E0F0
E1F0
E3F0
E3F0
E770
EE70
EE70
FC70
F870
F070
F070
E070
ENDCHAR
STARTCHAR 0439
ENCODING 1081
SWIDTH 561 0
DWIDTH 16 0
BBX 12 22 2 0
BITMAP
30C0
30C0
39C0
1FC0
1F80
0000
0000
0000
E070
E0F0
E0F0
E1F0
E3F0
E3F0
E770
EE70
EE70
FC70
F870
F070
F070
E070
ENDCHAR
STARTCHAR 043A
ENCODING 1082
SWIDTH 491 0
DWIDTH 14 0
BBX 12 14 2 0
BITMAP
E0E0
E1C0
E3C0
E380
E700
FF00
FE00
FF00
E700
E380
E3C0
E1E0
E0E0
E0F0
ENDCHAR
STARTCHAR 043B
ENCODING 1083
SWIDTH 561 0
DWIDTH 16 0
BBX 13 14 1 0
BITMAP
1FF8
1FF8
1FF8
1838
1838
1838
1838
1838
3838
3838
3838
F838
F038
E038
ENDCHAR
STARTCHAR 043C
ENCODING 1084
SWIDTH 632 0
DWIDTH 18 0
BBX 14 14 2 0
BITMAP
E01C
E03C
F03C
F87C
F87C
FCFC
FCDC
EFDC
EF9C
E79C
E31C
E01C
E01C
E01C
ENDCHAR
STARTCHAR 043D
ENCODING 1085
SWIDTH 561 0
DWIDTH 16 0
BBX 12 14 2 0
BITMAP
E070
E070
E070
E070
E070
FFF0
FFF0
FFF0
E070
E070
E070
E070
E070
E070
ENDCHAR
STARTCHAR 043E
ENCODING 1086
SWIDTH 526 0
DWIDTH 15 0
BBX 11 14 2 0
BITMAP
1F00
7FC0
7FE0
E0E0
E0E0
E060
E060
E060
E060
E0E0
E0E0
7FE0
7FC0
1F00
ENDCHAR
STARTCHAR 043F
ENCODING 1087
SWIDTH 561 0
DWIDTH 16 0
BBX 12 14 2 0
BITMAP
FFF0
FFF0
FFF0
E070
E070
E070
E070
E070
E070
E070
E070
E070
E070
E070
ENDCHAR
STARTCHAR 0440
ENCODING 1088
SWIDTH 526 0
DWIDTH 15 0
BBX 11 20 2 -6
BITMAP
E780
FFC0
FFE0
F0E0
E060
E060
E060
E060
E060
E060
E0E0
FFE0
FFC0
E780
E000
E000
E000
E000
E000
E000
ENDCHAR
STARTCHAR 0441
ENCODING 1089
SWIDTH 491 0
DWIDTH 14 0
BBX 11 14 2 0
BITMAP
1F80
7FC0
7FE0
F0C0
E000
E000
E000
E000
E000
E000
F0C0
7FE0
7FC0
1F80
ENDCHAR
STARTCHAR 0442
ENCODING 1090
SWIDTH 491 0
DWIDTH 14 0
BBX 11 14 2 0
BITMAP
FFE0
FFE0
FFE0
0C00
0C00
0C00
0C00
0C00
0C00
0C00
0C00
0C00
0C00
0C00
ENDCHAR
STARTCHAR 0443
ENCODING 1091
SWIDTH 491 0
DWIDTH 14 0
BBX 12 20 1 -6
BITMAP
E070
E070
6060
70E0
70E0
38C0
39C0
19C0
1F80
1F80
0F80
0F00
0F00
0700
0E00
0E00
1C00
3C00
3C00
3000
ENDCHAR
STARTCHAR 0444
ENCODING 1092
SWIDTH 702 0
DWIDTH 20 0
BBX 16 22 2 -4
BITMAP
0180
0180
0180
0180
3DBC
7FFE
FFFF
E3C7
E187
E187
E187
E187
E187
E187
E3C7
FFFF
7FFE
3DBC
0180
0180
0180
0180
ENDCHAR
STARTCHAR 0445
ENCODING 1093
SWIDTH 491 0
DWIDTH 14 0
BBX 12 14 1 0
BITMAP
E070
70E0
38E0
39C0
1F80
0F80
0F00
0F00
0F80
1F80
39C0
38E0
7070
E070
ENDCHAR
STARTCHAR 0446
ENCODING 1094
SWIDTH 597 0
DWIDTH 17 0
BBX 14 18 2 -4
BITMAP
E070
E070
E070
E070
E070
E070
E070
E070
E070
E070
E070
FFFC
FFFC
FFFC
001C
001C
001C
001C
ENDCHAR
STARTCHAR 0447
ENCODING 1095
SWIDTH 561 0
DWIDTH 16 0
BBX 12 14 2 0
BITMAP
E070
E070
E070
E070
E070
E070
F0F0
7FF0
7F70
1E70
0070
0070
0070
0070
ENDCHAR
STARTCHAR 0448
ENCODING 1096
SWIDTH 772 0
DWIDTH 22 0
BBX 17 14 2 0
BITMAP
E1C180
E1C180
E1C180
E1C180
E1C180
E1C180
E1C180
E1C180
E1C180
E1C180
E1C180
FFFF80
FFFF80
FFFF80
ENDCHAR
STARTCHAR 0449
ENCODING 1097
SWIDTH 807 0
DWIDTH 23 0
BBX 20 18 2 -4
BITMAP
E1C180
E1C180
E1C180
E1C180
E1C180
E1C180
E1C180
E1C180
E1C180
E1C180
E1C180
FFFFF0
FFFFF0
FFFFF0
000070
000070
000070
000070
ENDCHAR
STARTCHAR 044A
ENCODING 1098
SWIDTH 597 0
DWIDTH 17 0
BBX 15 14 1 0
BITMAP
FE00
FE00
FE00
0E00
0E00
0FE0
0FF8
0FFC
0E1E
0E0E
0E1E
0FFC
0FFC
0FF0
ENDCHAR
STARTCHAR 044B
ENCODING 1099
SWIDTH 702 0
DWIDTH 20 0
BBX 16 14 2 0
BITMAP
E007
E007
E007
E007
E007
FE07
FF87
FFC7
E1E7
E0E7
E1E7
FFC7
FFC7
FF07
ENDCHAR
STARTCHAR 044C
ENCODING 1100
SWIDTH 526 0
DWIDTH 15 0
BBX 11 14 2 0
BITMAP
E000
E000
E000
E000
E000
FF00
FFC0
FFE0
E0E0
E0E0
E0E0
FFE0
FFC0
FF80
ENDCHAR
STARTCHAR 044D
ENCODING 1101
SWIDTH 491 0
DWIDTH 14 0
BBX 11 14 1 0
BITMAP
3F00
7FC0
FFC0
61E0
00E0
3FE0
3FE0
3FE0
00E0
00E0
40E0
FFC0
7FC0
3F00
ENDCHAR
STARTCHAR 044E
ENCODING 1102
SWIDTH 772 0
DWIDTH 22 0
BBX 18 14 2 0
BITMAP
E07E00
E0FF00
E1FF80
E1C3C0
E381C0
FF81C0
FF81C0
FF81C0
E381C0
E381C0
E1C3C0
E1FF80
E0FF00
E07E00
ENDCHAR
STARTCHAR 044F
ENCODING 1103
SWIDTH 526 0
DWIDTH 15 0
BBX 11 14 2 0
BITMAP
3FE0
7FE0
FFE0
E0E0
C0E0
E0E0
FFE0
7FE0
3FE0
38E0
78E0
70E0
E0E0
E0E0
ENDCHAR
STARTCHAR 0450
ENCODING 1104
SWIDTH 526 0
DWIDTH 15 0
BBX 11 22 2 1
BITMAP
3000
7800
3C00
1C00
0E00
0000
0000
0000
1F00
7FC0
7FC0
E0E0
E0E0
C060
FFE0
FFE0
C000
E000
F040
7FE0
7FC0
1F00
ENDCHAR
STARTCHAR 0451
ENCODING 1105
SWIDTH 526 0
DWIDTH 15 0
BBX 11 20 2 0
BITMAP
71C0
71C0
71C0
0000
0000
0000
1F00
7FC0
7FC0
E0E0
E0E0
C060
FFE0
FFE0
C000
E000
F040
7FE0
7FC0
1F00
ENDCHAR
STARTCHAR 0452
ENCODING 1106
SWIDTH 561 0
DWIDTH 16 0
BBX 14 26 0 -6
BITMAP
3800
3800
FFE0
FFE0
FFE0
3800
3800
39E0
3BF8
3FF8
3C3C
381C
381C
381C
381C
381C
381C
381C
381C
381C
001C
001C
001C
007C
0078
0070
ENDCHAR
STARTCHAR 0453
ENCODING 1107
SWIDTH 421 0
DWIDTH 12 0
BBX 9 23 2 0
BITMAP
0100
0380
0780
0700
0E00
0C00
0000
0000
0000
FF80
FF80
FF80
E000
E000
E000
E000
E000
E000
E000
E000
E000
E000
E000
ENDCHAR
STARTCHAR 0454
ENCODING 1108
SWIDTH 491 0
DWIDTH 14 0
BBX 11 14 2 0
BITMAP
1F80
7FC0
7FE0
F0C0
E000
FF80
FF80
FF80
E000
E000
F0C0
7FE0
7FC0
1F80
ENDCHAR
STARTCHAR 0455
ENCODING 1109
SWIDTH 526 0
DWIDTH 15 0
BBX 12 14 1 0
BITMAP
1F80
3FF0
7FF0
7020
6000
7800
7FE0
1FF0
0070
0030
6070
FFF0
7FE0
1FC0
ENDCHAR
STARTCHAR 0456
ENCODING 1110
SWIDTH 245 0
DWIDTH 7 0
BBX 3 20 2 0
BITMAP
E0
E0
E0
00
00
00
E0
E0
E0
E0
E0
E0
E0
E0
E0
E0
E0
E0
E0
E0
ENDCHAR
STARTCHAR 0457
ENCODING 1111
SWIDTH 245 0
DWIDTH 7 0
BBX 9 20 -1 0
BITMAP
E380
E380
E380
0000
0000
0000
1C00
1C00
1C00
1C00
1C00
1C00
1C00
1C00
1C00
1C00
1C00
1C00
1C00
1C00
ENDCHAR
STARTCHAR 0458
ENCODING 1112
SWIDTH 280 0
DWIDTH 8 0
BBX 5 26 0 -6
BITMAP
18
18
18
00
00
00
18
18
18
18
18
18
18
18
18
18
18
18
18
18
18
18
18
F8
F8
F0
ENDCHAR
STARTCHAR 0459
ENCODING 1113
SWIDTH 807 0
DWIDTH 23 0
BBX 20 14 1 0
BITMAP
1FF800
1FF800
1FF800
183800
183F80
183FE0
183FE0
183870
383870
383870
383870
F83FF0
F03FE0
E03FC0
ENDCHAR
STARTCHAR 045A
ENCODING 1114
SWIDTH 807 0
DWIDTH 23 0
BBX 20 14 2 0
BITMAP
E07000
E07000
E07000
E07000
E07000
FFFF00
FFFFC0
FFFFE0
E070F0
E07070
E070F0
E07FE0
E07FE0
E07F80
ENDCHAR
STARTCHAR 045B
ENCODING 1115
SWIDTH 561 0
DWIDTH 16 0
BBX 14 20 0 0
BITMAP
3800
3800
FFE0
FFE0
FFE0
3800
3800
39E0
3BF8
3FF8
3C3C
381C
381C
381C
381C
381C
381C
381C
381C
381C
ENDCHAR
STARTCHAR 045C
ENCODING 1116
SWIDTH 491 0
DWIDTH 14 0
BBX 12 23 2 0
BITMAP
0100
0180
0380
0700
0E00
0C00
0000
0000
0000
E0E0
E1C0
E3C0
E380
E700
FF00
FE00
FF00
E700
E380
E3C0
E1E0
E0E0
E0F0
ENDCHAR
STARTCHAR 045D
ENCODING 1117
SWIDTH 561 0
DWIDTH 16 0
BBX 12 23 2 0
BITMAP
1000
3800
3800
1C00
0E00
0600
0000
0000
0000
E070
E0F0
E0F0
E1F0
E3F0
E3F0
E770
EE70
EE70
FC70
F870
F070
F070
E070
ENDCHAR
STARTCHAR 045E
ENCODING 1118
SWIDTH 491 0
DWIDTH 14 0
BBX 12 28 1 -6
BITMAP
30C0
30C0
39C0
1FC0
1F80
0000
0000
0000
E070
E070
6060
70E0
70E0
38C0
39C0
19C0
1F80
1F80
0F80
0F00
0F00
0700
0E00
0E00
1C00
3C00
3C00
3000
ENDCHAR
STARTCHAR 045F
ENCODING 1119
SWIDTH 561 0
DWIDTH 16 0
BBX 12 18 2 -4
BITMAP
E070
E070
E070
E070
E070
E070
E070
E070
E070
E070
E070
FFF0
FFF0
FFF0
0600
0600
0600
0600
ENDCHAR
STARTCHAR 0460
ENCODING 1120
SWIDTH 1018 0
DWIDTH 29 0
BBX 25 20 2 0
BITMAP
0E003800
3E003E00
7E003F00
78000700
F0000380
E0000380
E0000380
E0000380
E0000380
E01C0380
E01C0380
E01C0380
E01C0380
E01C0380
E01C0380
F03E0380
783F0700
7FF7FF00
3FE3FE00
0FC0F800
ENDCHAR
STARTCHAR 0461
ENCODING 1121
SWIDTH 737 0
DWIDTH 21 0
BBX 19 14 1 0
BITMAP
E1C0E0
E0E0E0
E0E0C0
70E0C0
7071C0
7071C0
38F1C0
38F180
19FB80
1DBB80
1F1F00
0F1F00
0E1E00
0E0C00
ENDCHAR
STARTCHAR 0462
ENCODING 1122
SWIDTH 632 0
DWIDTH 18 0
BBX 17 20 -1 0
BITMAP
1C0000
1C0000
FFE000
FFE000
FFE000
1C0000
1C0000
1C0000
1FF800
1FFE00
1FFF00
1C0700
1C0380
1C0380
1C0380
1C0380
1C0780
1FFF00
1FFE00
1FFC00
ENDCHAR
STARTCHAR 0463
ENCODING 1123
SWIDTH 526 0
DWIDTH 15 0
BBX 14 18 0 0
BITMAP
3800
3800
3800
FFC0
FFC0
FFC0
3800
3800
3800
3FC0
3FF0
3FF8
383C
381C
383C
3FF8
3FF8
3FE0
ENDCHAR
STARTCHAR 0464
ENCODING 1124
SWIDTH 807 0
DWIDTH 23 0
BBX 20 20 2 0
BITMAP
E03E00
E0FF80
E1FFC0
E1C1E0
E380E0
E38060
E38000
E38000
FFFF80
FFFF80
FFFF80
E38000
E38000
E38000
E38070
E380E0
E1C1E0
E1FFC0
E0FF80
E03E00
ENDCHAR
STARTCHAR 0465
ENCODING 1125
SWIDTH 702 0
DWIDTH 20 0
BBX 17 14 2 0
BITMAP
E03E00
E0FF80
E1FF80
E1C100
E38000
FFFE00
FFFE00
FFFE00
E38000
E38000
E1C100
E1FF80
E0FF80
E03E00
ENDCHAR
STARTCHAR 0466
ENCODING 1126
SWIDTH 632 0
DWIDTH 18 0
BBX 16 20 1 0
BITMAP
0180
03C0
03C0
03E0
07E0
0660
0E70
0E70
0C30
1C38
1FF8
1FF8
3FFC
399C
318E
718E
718E
E187
E187
E187
ENDCHAR
STARTCHAR 0467
ENCODING 1127
SWIDTH 526 0
DWIDTH 15 0
BBX 13 14 1 0
BITMAP
0700
0700
0F80
0F80
1D80
1DC0
18C0
38E0
38E0
7FE0
7FF0
6770
E738
E738
ENDCHAR
STARTCHAR 0468
ENCODING 1128
SWIDTH 842 0
DWIDTH 24 0
BBX 21 20 2 0
BITMAP
E00E00
E01E00
E01E00
E01F00
E03F00
E03B00
E03380
E07380
E07180
E0E1C0
FFFFC0
FFFFE0
FFFFE0
E1CEE0
E1CE70
E38E70
E38E70
E30E38
E70E38
E70E38
ENDCHAR
STARTCHAR 0469
ENCODING 1129
SWIDTH 737 0
DWIDTH 21 0
BBX 18 14 2 0
BITMAP
E03800
E03800
E07C00
E07C00
E06E00
E0EE00
E0C600
E1C700
E1C300
FFFF80
FFFF80
E3B9C0
E739C0
E739C0
ENDCHAR
STARTCHAR 046A
ENCODING 1130
SWIDTH 737 0
DWIDTH 21 0
BBX 20 20 0 0
BITMAP
7FFFF0
3FFFE0
3FFFC0
1C03C0
0E0380
0F0700
070F00
038E00
03DC00
01FC00
0FFF00
1E7780
1C71C0
3C71C0
3871E0
3870E0
7870E0
7070F0
7070F0
F07070
ENDCHAR
STARTCHAR 046B
ENCODING 1131
SWIDTH 561 0
DWIDTH 16 0
BBX 16 14 0 0
BITMAP
7FFF
7FFE
3FFC
1C1C
0E38
0E70
1FF8
3FFC
3DDE
71CE
71CE
71C7
E1C7
E1C7
ENDCHAR
STARTCHAR 046C
ENCODING 1132
SWIDTH 948 0
DWIDTH 27 0
BBX 25 20 2 0
BITMAP
E7FFFF00
E3FFFF00
E1FFFE00
E0E01C00
E0F03C00
E0707800
E0387000
E03CF000
E01DE000
FFFFC000
FFFFF800
E0F73C00
E1E71C00
E1C70E00
E1C70E00
E3C70F00
E3870700
E3870700
E7870700
E7070780
ENDCHAR
STARTCHAR 046D
ENCODING 1133
SWIDTH 807 0
DWIDTH 23 0
BBX 21 14 2 0
BITMAP
E7FFF0
E3FFE0
E3FFE0
E1C1C0
E0E380
FFF700
FFF780
FFFFC0
E39CE0
E39C60
E71C70
E71C70
E71C70
EF1C38
ENDCHAR
STARTCHAR 046E
ENCODING 1134
SWIDTH 597 0
DWIDTH 17 0
BBX 13 32 2 -6
BITMAP
10C0
3DE0
1FC0
0F00
0200
0000
1F80
7FE0
7FF0
E070
E070
0070
0070
0070
07E0
07C0
07E0
00F0
0070
0030
0038
0070
0070
3FF0
FFE0
FF80
E000
C000
E000
FF80
FF80
3F80
ENDCHAR
STARTCHAR 046F
ENCODING 1135
SWIDTH 456 0
DWIDTH 13 0
BBX 10 29 1 -6
BITMAP
2100
7180
7B80
3F00
1E00
0C00
0400
0000
0000
1F00
7F80
7FC0
E1C0
01C0
0F80
0F00
0F80
01C0
01C0
01C0
1FC0
7F80
7F00
E000
E000
E000
7F80
7F80
1F80
ENDCHAR
STARTCHAR 0470
ENCODING 1136
SWIDTH 702 0
DWIDTH 20 0
BBX 16 20 2 0
BITMAP
E187
E187
E187
E187
E187
E187
E187
E187
E187
E187
718E
799E
3FFC
1FF8
07E0
0180
0180
0180
0180
0180
ENDCHAR
STARTCHAR 0471
ENCODING 1137
SWIDTH 702 0
DWIDTH 20 0
BBX 16 22 2 -4
BITMAP
0180
0180
0180
0180
E187
E187
E187
E187
E187
E187
E187
E187
E187
718E
799E
3FFC
1FF8
07E0
0180
0180
0180
0180
ENDCHAR
STARTCHAR 0472
ENCODING 1138
SWIDTH 632 0
DWIDTH 18 0
BBX 14 20 2 0
BITMAP
0FC0
3FF0
7FF8
7878
F03C
E01C
E01C
E01C
FFFC
FFFC
FFFC
E01C
E01C
E01C
E01C
F03C
7838
7FF8
3FF0
0FC0
ENDCHAR
STARTCHAR 0473
ENCODING 1139
SWIDTH 526 0
DWIDTH 15 0
BBX 11 14 2 0
BITMAP
1F00
7FC0
7FE0
E0E0
E0E0
E060
FFE0
FFE0
E060
E0E0
E0E0
7FE0
7FC0
1F00
ENDCHAR
STARTCHAR 0474
ENCODING 1140
SWIDTH 597 0
DWIDTH 17 0
BBX 16 20 1 0
BITMAP
E007
E00F
E01F
701C
701C
7038
3038
3838
3870
3870
1C70
1CE0
1CE0
0EE0
0EC0
0FC0
07C0
0780
0780
0380
ENDCHAR
STARTCHAR 0475
ENCODING 1141
SWIDTH 491 0
DWIDTH 14 0
BBX 12 14 1 0
BITMAP
E030
E070
70F0
70E0
70C0
39C0
39C0
1980
1F80
1F80
0F00
0F00
0F00
0600
ENDCHAR
STARTCHAR 0476
ENCODING 1142
SWIDTH 597 0
DWIDTH 17 0
BBX 16 26 1 0
BITMAP
1040
38E0
3CF0
1E70
0C20
0000
E007
E00F
E01F
601C
701C
7038
7038
3838
3870
3870
1C70
1CE0
1CE0
0EE0
0EC0
0FC0
07C0
0780
0780
0380
ENDCHAR
STARTCHAR 0477
ENCODING 1143
SWIDTH 491 0
DWIDTH 14 0
BBX 12 23 1 0
BITMAP
4100
E380
F3C0
79C0
3CE0
1040
0000
0000
0000
E030
E070
70F0
70E0
70C0
39C0
39C0
1980
1F80
1F80
0F00
0F00
0F00
0600
ENDCHAR
STARTCHAR 0478
ENCODING 1144
SWIDTH 1088 0
DWIDTH 31 0
BBX 28 26 2 -6
BITMAP
0FC00000
3FF00000
7FF80000
78780000
F03C0000
E01C0000
E01CE070
E01CE070
E01C7070
E01C70E0
E01C30E0
E01C38C0
E01C39C0
E01C19C0
E01C1D80
F03C1F80
78380F80
7FF80F00
3FF00700
0FC00700
00000600
00000E00
00001E00
00003C00
00003C00
00003000
ENDCHAR
STARTCHAR 0479
ENCODING 1145
SWIDTH 983 0
DWIDTH 28 0
BBX 26 20 2 -6
BITMAP
1F0701C0
7FC38380
7FE38380
E0E38300
E0E1C700
E061C700
E060C600
E060EE00
E060EE00
E0E06C00
E0E07C00
7FE07C00
7FC03800
1F003800
00003800
00003000
00007000
0001F000
0001E000
0001C000
ENDCHAR
STARTCHAR 047A
ENCODING 1146
SWIDTH 632 0
DWIDTH 18 0
BBX 14 24 2 -2
BITMAP
0300
0300
0FC0
3FF0
7FF8
7B78
F33C
E31C
E01C
E01C
E01C
E01C
E01C
E01C
E01C
E01C
E31C
F33C
7B38
7FF8
3FF0
0FC0
0300
0300
ENDCHAR
STARTCHAR 047B
ENCODING 1147
SWIDTH 526 0
DWIDTH 15 0
BBX 11 18 2 -2
BITMAP
0600
0600
1F00
7FC0
7FE0
E6E0
E6E0
E060
E060
E060
E060
E6E0
E6E0
7FE0
7FC0
1F00
0600
0600
ENDCHAR
STARTCHAR 047C
ENCODING 1148
SWIDTH 1018 0
DWIDTH 29 0
BBX 25 29 2 0
BITMAP
0001C000
0001C000
01FFC000
01FFC000
01FFC000
01C00000
01C00000
00000000
00000000
0E003800
3E003E00
7E003F00
78000700
F0000380
E0000380
E0000380
E0000380
E0000380
E01C0380
E01C0380
E01C0380
E01C0380
E01C0380
E01C0380
F03E0380
783F0700
7FF7FF00
3FE3FE00
0FC0F800
ENDCHAR
STARTCHAR 047D
ENCODING 1149
SWIDTH 737 0
DWIDTH 21 0
BBX 19 23 1 0
BITMAP
000E00
000E00
0FFE00
0FFE00
0FFE00
0E0000
0E0000
000000
000000
E1C0E0
E0E0E0
E0E0C0
70E0C0
7071C0
7071C0
38F1C0
38F180
19FB80
1DBB80
1F1F00
0F1F00
0E1E00
0E0C00
ENDCHAR
STARTCHAR 047E
ENCODING 1150
SWIDTH 1018 0
DWIDTH 29 0
BBX 25 25 2 0
BITMAP
01FFC000
01FFC000
01DDC000
01DDC000
00000000
0E003800
3E003E00
7E003F00
78000700
F0000380
E0000380
E0000380
E0000380
E0000380
E01C0380
E01C0380
E01C0380
E01C0380
E01C0380
E01C0380
F03E0380
787F0700
7FF7FF00
3FE3FE00
0FC0F800
ENDCHAR
STARTCHAR 047F
ENCODING 1151
SWIDTH 737 0
DWIDTH 21 0
BBX 19 21 1 0
BITMAP
0FFC00
0FFC00
0CCC00
0CCC00
000000
000000
000000
E1C0E0
E0E0E0
E0E0C0
70E0C0
7071C0
7071C0
38F1C0
38F180
19FB80
1DBB80
1F1F00
0F1F00
0E1E00
0E0C00
ENDCHAR
STARTCHAR 0480
ENCODING 1152
SWIDTH 632 0
DWIDTH 18 0
BBX 15 20 2 0
BITMAP
07C0
1FF0
3FF8
783C
701C
E00E
E000
E000
E000
E000
E000
7000
7800
3F80
1F80
0780
0180
0180
0180
0180
ENDCHAR
STARTCHAR 0481
ENCODING 1153
SWIDTH 491 0
DWIDTH 14 0
BBX 11 18 2 -4
BITMAP
1F80
7FC0
7FE0
F0C0
E000
E000
E000
E000
E000
E000
E000
7F00
7F00
1F00
0700
0700
0700
0700
ENDCHAR
STARTCHAR 0482
ENCODING 1154
SWIDTH 632 0
DWIDTH 18 0
BBX 15 20 1 0
BITMAP
0008
001C
001C
0638
0FF0
07F0
01F0
00FC
01DE
418E
6380
FF00
3F00
0F80
0FC0
1DE0
3860
3800
7000
3000
ENDCHAR
STARTCHAR 0483
ENCODING 1155
SWIDTH 0 0
DWIDTH 0 0
BBX 10 7 -11 16
BITMAP
00C0
00C0
FFC0
FFC0
FFC0
E000
E000
ENDCHAR
STARTCHAR 0484
ENCODING 1156
SWIDTH 0 0
DWIDTH 0 0
BBX 10 5 -10 16
BITMAP
0780
3F80
FFC0
F1C0
81C0
ENDCHAR
STARTCHAR 0485
ENCODING 1157
SWIDTH 0 0
DWIDTH 0 0
BBX 10 7 -11 16
BITMAP
E000
E000
FFC0
FFC0
FFC0
E000
E000
ENDCHAR
STARTCHAR 0486
ENCODING 1158
SWIDTH 0 0
DWIDTH 0 0
BBX 10 7 -11 16
BITMAP
00C0
00C0
FFC0
FFC0
FFC0
00C0
00C0
ENDCHAR
STARTCHAR 0487
ENCODING 1159
SWIDTH 0 0
DWIDTH 0 0
BBX 10 5 -10 16
BITMAP
7800
7E00
FFC0
E3C0
E040
ENDCHAR
STARTCHAR 0488
ENCODING 1160
SWIDTH 0 0
DWIDTH 0 0
BBX 29 26 -30 -3
BITMAP
00078000
000FC000
000CC000
001CC000
0F8007C0
1F800FE0
19C00C60
18C00C60
00000000
00000000
18000060
7E0001F8
6E0003B8
E6000318
00000000
00000000
00000000
0F0007C0
1F800FE0
19C00C60
18C00C60
00000000
000F8000
000FC000
001CC000
0018C000
ENDCHAR
STARTCHAR 0489
ENCODING 1161
SWIDTH 0 0
DWIDTH 0 0
BBX 26 26 -28 -3
BITMAP
00040000
00040000
000C0000
000C0000
080C0000
0C000E00
0E003E00
0F003C00
06001000
00000000
00000000
80000000
78000F00
38000F80
00000040
00000000
00000000
06001800
0F003C00
1E001C00
0C0C0C00
000C0400
000C0000
000C0000
00080000
00100000
ENDCHAR
STARTCHAR 048A
ENCODING 1162
SWIDTH 702 0
DWIDTH 20 0
BBX 18 29 2 -4
BITMAP
183000
1C7000
0FF000
07C000
000000
E00600
E00E00
E01E00
E01E00
E03E00
E07E00
E07E00
E0EE00
E1CE00
E1CE00
E38E00
E30E00
E70E00
EE0E00
EC0E00
FC0E00
F80E00
F00FC0
F00FC0
E00F80
000380
000380
000380
000380
ENDCHAR
STARTCHAR 048B
ENCODING 1163
SWIDTH 597 0
DWIDTH 17 0
BBX 14 26 2 -4
BITMAP
30C0
30C0
39C0
1F80
0F00
0000
0000
0000
E070
E0F0
E0F0
E1F0
E3F0
E3F0
E770
EE70
EE70
FC70
F870
F07C
F07C
E07C
001C
001C
0018
0018
ENDCHAR
STARTCHAR 048C
ENCODING 1164
SWIDTH 667 0
DWIDTH 19 0
BBX 16 20 1 0
BITMAP
3800
3800
FF80
FF80
FF80
3800
3800
3800
3FF0
3FFC
3FFE
380E
3807
3807
3807
3807
380F
3FFE
3FFC
3FF8
ENDCHAR
STARTCHAR 048D
ENCODING 1165
SWIDTH 526 0
DWIDTH 15 0
BBX 14 20 0 0
BITMAP
3800
3800
3800
3800
3800
FF80
FF80
FF80
3800
3800
3FC0
3FF0
3FF8
3838
381C
381C
383C
3FF8
3FF0
3FE0
ENDCHAR
STARTCHAR 048E
ENCODING 1166
SWIDTH 597 0
DWIDTH 17 0
BBX 14 20 2 0
BITMAP
FFE0
FFF0
FFF8
E03C
E01C
E01C
E11C
E39C
E1FC
FFF8
FFF0
FFF0
E030
E038
E010
E000
E000
E000
E000
E000
ENDCHAR
STARTCHAR 048F
ENCODING 1167
SWIDTH 526 0
DWIDTH 15 0
BBX 11 20 2 -6
BITMAP
E780
FFC0
FFE0
F0E0
E060
E060
E060
E060
E660
E660
E7E0
FFE0
FFC0
E7C0
E0C0
E0E0
E040
E000
E000
E000
ENDCHAR
STARTCHAR 0490
ENCODING 1168
SWIDTH 456 0
DWIDTH 13 0
BBX 12 24 2 0
BITMAP
0070
0070
0070
0070
FFF0
FFF0
FFF0
E000
E000
E000
E000
E000
E000
E000
E000
E000
E000
E000
E000
E000
E000
E000
E000
E000
ENDCHAR
STARTCHAR 0491
ENCODING 1169
SWIDTH 421 0
DWIDTH 12 0
BBX 9 16 2 0
BITMAP
0380
0380
FF80
FF80
FF80
E000
E000
E000
E000
E000
E000
E000
E000
E000
E000
E000
ENDCHAR
STARTCHAR 0492
ENCODING 1170
SWIDTH 561 0
DWIDTH 16 0
BBX 14 20 2 0
BITMAP
1FFC
1FFC
1FFC
1C00
1C00
1C00
1C00
1C00
FFC0
FFC0
FFC0
1C00
1C00
1C00
1C00
1C00
1C00
1C00
1C00
1C00
ENDCHAR
STARTCHAR 0493
ENCODING 1171
SWIDTH 456 0
DWIDTH 13 0
BBX 12 14 1 0
BITMAP
3FF0
3FF0
3FF0
3800
3800
3800
FF80
FF80
FF80
3800
3800
3800
3800
3800
ENDCHAR
STARTCHAR 0494
ENCODING 1172
SWIDTH 632 0
DWIDTH 18 0
BBX 15 24 2 -4
BITMAP
FFF0
FFF0
FFF0
E000
E000
E000
E000
E000
E3E0
EFF8
FFFC
F81C
F00E
E00E
E00E
E00E
E00E
E00E
E00E
E01E
003C
01FC
01F0
01C0
ENDCHAR
STARTCHAR 0495
ENCODING 1173
SWIDTH 561 0
DWIDTH 16 0
BBX 12 20 2 -6
BITMAP
FF80
FF80
FF80
E000
E000
E780
FFC0
FFE0
F0F0
E070
E070
E070
E070
E070
0070
0070
00F0
07E0
07C0
0700
ENDCHAR
STARTCHAR 0496
ENCODING 1174
SWIDTH 983 0
DWIDTH 28 0
BBX 26 24 1 -4
BITMAP
F01C0700
781C0F00
381C0E00
3C1C1C00
1C1C3C00
0E1C3800
0F1C7000
071CF000
03FFE000
03FFC000
03FFE000
079CF000
071C7000
0F1C7800
1E1C3C00
1C1C1C00
3C1C1E00
781C0FC0
F01C07C0
E01C07C0
000000C0
000000C0
000000C0
000000C0
ENDCHAR
STARTCHAR 0497
ENCODING 1175
SWIDTH 737 0
DWIDTH 21 0
BBX 21 17 0 -3
BITMAP
7060E0
3861C0
1C6380
1C6380
0E6700
07FE00
07FE00
07FE00
0E6700
1C6380
3C63C0
3861F8
7861F8
F060F8
000038
000038
000038
ENDCHAR
STARTCHAR 0498
ENCODING 1176
SWIDTH 597 0
DWIDTH 17 0
BBX 13 24 2 -4
BITMAP
0F80
3FE0
7FF0
F070
E070
0030
0070
0070
0FE0
0FC0
0FF0
0070
0038
0038
0038
E038
F070
7FF0
3FE0
1F80
0700
0700
0700
0700
ENDCHAR
STARTCHAR 0499
ENCODING 1177
SWIDTH 456 0
DWIDTH 13 0
BBX 11 17 1 -3
BITMAP
1F00
3FC0
7FC0
E1C0
00C0
01C0
0F80
0FC0
0FE0
00E0
E0E0
7FE0
7FC0
1F00
0E00
0E00
0E00
ENDCHAR
STARTCHAR 049A
ENCODING 1178
SWIDTH 667 0
DWIDTH 19 0
BBX 16 24 2 -4
BITMAP
E01E
E03C
E038
E070
E0F0
E0E0
E1C0
E3C0
FF80
FF00
FF80
E3C0
E1C0
E1E0
E0F0
E070
E078
E03F
E01F
E01F
0003
0003
0003
0003
ENDCHAR
STARTCHAR 049B
ENCODING 1179
SWIDTH 561 0
DWIDTH 16 0
BBX 13 17 2 -3
BITMAP
E0E0
E1C0
E3C0
E380
E700
FF00
FE00
FF00
E700
E380
E3C0
E1F8
E0F8
E0F8
0038
0038
0038
ENDCHAR
STARTCHAR 049C
ENCODING 1180
SWIDTH 632 0
DWIDTH 18 0
BBX 15 20 2 0
BITMAP
E01E
E01C
E038
E078
E070
E0F0
ECE0
EDC0
FFC0
FF80
FFC0
EDE0
ECE0
ECF0
EC70
E078
E03C
E03C
E01E
E00E
ENDCHAR
STARTCHAR 049D
ENCODING 1181
SWIDTH 491 0
DWIDTH 14 0
BBX 12 14 2 0
BITMAP
E0E0
E1E0
E1C0
EBC0
EB80
FF80
FF00
FF00
EB80
EBC0
E9C0
E9E0
E0E0
E0F0
ENDCHAR
STARTCHAR 049E
ENCODING 1182
SWIDTH 667 0
DWIDTH 19 0
BBX 18 20 0 0
BITMAP
1C0380
1C0780
FF8700
FF8E00
FF9E00
1C1C00
1C3800
1C7800
1FF000
1FE000
1FF000
1C7800
1C3800
1C3C00
1C1E00
1C0E00
1C0F00
1C0780
1C03C0
1C03C0
ENDCHAR
STARTCHAR 049F
ENCODING 1183
SWIDTH 526 0
DWIDTH 15 0
BBX 15 20 0 0
BITMAP
1C00
1C00
FF80
FF80
FF80
1C00
1C3C
1C38
1C70
1CF0
1CE0
1FC0
1F80
1FC0
1CE0
1CF0
1C70
1C38
1C3C
1C1E
ENDCHAR
STARTCHAR 04A0
ENCODING 1184
SWIDTH 737 0
DWIDTH 21 0
BBX 20 20 0 0
BITMAP
FF00F0
FF01E0
FF01C0
070380
070780
070700
070E00
071E00
07FC00
07F800
07FC00
071E00
070E00
070F00
070780
070380
0703C0
0701E0
0700F0
0700F0
ENDCHAR
STARTCHAR 04A1
ENCODING 1185
SWIDTH 632 0
DWIDTH 18 0
BBX 16 14 1 0
BITMAP
FE0F
FE0E
FE1C
0638
0678
07F0
07E0
07F0
0678
0638
061C
061E
060F
0607
ENDCHAR
STARTCHAR 04A2
ENCODING 1186
SWIDTH 702 0
DWIDTH 20 0
BBX 17 24 2 -4
BITMAP
E00E00
E00E00
E00E00
E00E00
E00E00
E00E00
E00E00
E00E00
FFFE00
FFFE00
FFFE00
E00E00
E00E00
E00E00
E00E00
E00E00
E00E00
E00F80
E00F80
E00F80
000380
000380
000380
000380
ENDCHAR
STARTCHAR 04A3
ENCODING 1187
SWIDTH 561 0
DWIDTH 16 0
BBX 14 17 2 -3
BITMAP
E070
E070
E070
E070
E070
FFF0
FFF0
FFF0
E070
E070
E070
E07C
E07C
E07C
000C
000C
000C
ENDCHAR
STARTCHAR 04A4
ENCODING 1188
SWIDTH 807 0
DWIDTH 23 0
BBX 21 20 2 0
BITMAP
E00FF8
E00FF8
E00FF8
E00E00
E00E00
E00E00
E00E00
E00E00
FFFE00
FFFE00
FFFE00
E00E00
E00E00
E00E00
E00E00
E00E00
E00E00
E00E00
E00E00
E00E00
ENDCHAR
STARTCHAR 04A5
ENCODING 1189
SWIDTH 702 0
DWIDTH 20 0
BBX 17 14 2 0
BITMAP
E07F80
E07F80
E07F80
E07000
E07000
FFF000
FFF000
FFF000
E07000
E07000
E07000
E07000
E07000
E07000
ENDCHAR
STARTCHAR 04A6
ENCODING 1190
SWIDTH 1053 0
DWIDTH 30 0
BBX 26 24 2 -4
BITMAP
FFFE0000
FFFE0000
FFFE0000
E00E0000
E00E0000
E00E0000
E00E0000
E00E0000
E00E7C00
E00FFF00
E00FFF80
E00F0380
E00E01C0
E00E01C0
E00E01C0
E00E00C0
E00E00C0
E00E01C0
E00E01C0
E00E01C0
00000780
00001F80
00001F00
00001800
ENDCHAR
STARTCHAR 04A7
ENCODING 1191
SWIDTH 842 0
DWIDTH 24 0
BBX 21 20 2 -6
BITMAP
FFF000
FFF000
FFF000
E07000
E07000
E077C0
E07FE0
E07FF0
E07878
E07038
E07038
E07038
E07038
E07038
000038
000038
000070
0003F0
0003E0
000380
ENDCHAR
STARTCHAR 04A8
ENCODING 1192
SWIDTH 702 0
DWIDTH 20 0
BBX 16 20 2 0
BITMAP
18F8
79FC
7BFE
F38E
E30E
E306
E306
E306
E306
E306
E306
E306
E306
E38E
E38E
F38E
79FE
7FFF
3FFF
0FFF
ENDCHAR
STARTCHAR 04A9
ENCODING 1193
SWIDTH 667 0
DWIDTH 19 0
BBX 16 14 2 0
BITMAP
1CF8
7DFC
7FFE
E38E
E30E
E30E
E30E
E30E
E38E
E39E
F1FC
7FFF
3FFF
1F9F
ENDCHAR
STARTCHAR 04AA
ENCODING 1194
SWIDTH 597 0
DWIDTH 17 0
BBX 14 24 2 -4
BITMAP
0FC0
3FE0
3FF0
7878
F038
E01C
E000
E000
E000
E000
E000
E000
E000
E000
E01C
F038
7878
3FF0
3FE0
0FC0
0300
0300
0300
0300
ENDCHAR
STARTCHAR 04AB
ENCODING 1195
SWIDTH 491 0
DWIDTH 14 0
BBX 11 17 2 -3
BITMAP
1F80
7FC0
7FE0
F0C0
E000
E000
E000
E000
E000
E000
F0C0
7FE0
7FC0
1F80
0600
0600
0600
ENDCHAR
STARTCHAR 04AC
ENCODING 1196
SWIDTH 456 0
DWIDTH 13 0
BBX 14 24 0 -4
BITMAP
FFFC
FFFC
FFFC
0700
0700
0700
0700
0700
0700
0700
0700
0700
0700
0700
0700
0700
0700
07E0
07E0
07E0
00E0
00E0
00E0
00E0
ENDCHAR
STARTCHAR 04AD
ENCODING 1197
SWIDTH 491 0
DWIDTH 14 0
BBX 11 17 2 -3
BITMAP
FFE0
FFE0
FFE0
0C00
0C00
0C00
0C00
0C00
0C00
0C00
0C00
0F80
0F80
0F80
0380
0380
0380
ENDCHAR
STARTCHAR 04AE
ENCODING 1198
SWIDTH 491 0
DWIDTH 14 0
BBX 14 20 0 0
BITMAP
E01C
E01C
7038
7038
3870
3870
1CE0
1CE0
0FC0
0FC0
0780
0780
0300
0300
0300
0300
0300
0300
0300
0300
ENDCHAR
STARTCHAR 04AF
ENCODING 1199
SWIDTH 491 0
DWIDTH 14 0
BBX 12 20 1 -6
BITMAP
E070
E070
6070
70E0
70E0
38C0
39C0
19C0
1D80
1F80
0F00
0F00
0F00
0600
0600
0600
0600
0600
0600
0600
ENDCHAR
STARTCHAR 04B0
ENCODING 1200
SWIDTH 491 0
DWIDTH 14 0
BBX 14 20 0 0
BITMAP
E01C
E01C
7038
7038
3870
3870
1CE0
0CE0
0FC0
07C0
0780
3FF0
3FF0
3FF0
0300
0300
0300
0300
0300
0300
ENDCHAR
STARTCHAR 04B1
ENCODING 1201
SWIDTH 491 0
DWIDTH 14 0
BBX 12 20 1 -6
BITMAP
E070
E070
6070
70E0
70E0
38C0
39C0
19C0
1D80
1F80
0F00
0F00
0F00
0600
7FE0
7FE0
7FE0
0600
0600
0600
ENDCHAR
STARTCHAR 04B2
ENCODING 1202
SWIDTH 597 0
DWIDTH 17 0
BBX 16 24 1 -4
BITMAP
E01C
E038
7038
3870
3870
1CE0
1DC0
0FC0
0780
0780
0780
0F80
0FC0
1CE0
1CE0
3870
7070
703F
E01F
E01F
0007
0007
0007
0007
ENDCHAR
STARTCHAR 04B3
ENCODING 1203
SWIDTH 491 0
DWIDTH 14 0
BBX 13 17 1 -3
BITMAP
E070
70E0
38E0
39C0
1F80
0F80
0F00
0F00
0F80
1F80
39C0
38F8
7078
E078
0018
0018
0018
ENDCHAR
STARTCHAR 04B4
ENCODING 1204
SWIDTH 772 0
DWIDTH 22 0
BBX 21 24 0 -4
BITMAP
FFF9C0
FFF9C0
FFF9C0
0701C0
0701C0
0701C0
0701C0
0701C0
0701C0
0701C0
0701C0
0701C0
0701C0
0701C0
0701C0
0701C0
0701C0
07FFF8
07FFF8
07FFF8
000038
000038
000038
000038
ENDCHAR
STARTCHAR 04B5
ENCODING 1205
SWIDTH 667 0
DWIDTH 19 0
BBX 16 18 2 -4
BITMAP
FF38
FF38
FF38
3838
3838
3838
3838
3838
3838
3838
3838
3FFF
3FFF
3FFF
0007
0007
0007
0007
ENDCHAR
STARTCHAR 04B6
ENCODING 1206
SWIDTH 632 0
DWIDTH 18 0
BBX 16 24 2 -4
BITMAP
E038
E038
E038
E038
E038
E038
E038
E038
E038
E038
F078
7FF8
3FF8
1F38
0038
0038
0038
003F
003F
003F
0007
0007
0007
0007
ENDCHAR
STARTCHAR 04B7
ENCODING 1207
SWIDTH 561 0
DWIDTH 16 0
BBX 14 17 2 -3
BITMAP
E070
E070
E070
E070
E070
E070
F0F0
7FF0
7F70
1E70
0070
007C
007C
007C
001C
001C
001C
ENDCHAR
STARTCHAR 04B8
ENCODING 1208
SWIDTH 632 0
DWIDTH 18 0
BBX 13 20 2 0
BITMAP
E038
E038
E038
E038
E038
E038
E038
E038
E638
E638
F6F8
7FF8
3FB8
0F38
0638
0638
0638
0038
0038
0038
ENDCHAR
STARTCHAR 04B9
ENCODING 1209
SWIDTH 561 0
DWIDTH 16 0
BBX 12 14 2 0
BITMAP
E070
E070
E070
E070
E670
E670
F6F0
7FF0
7F70
1E70
0670
0670
0670
0070
ENDCHAR
STARTCHAR 04BA
ENCODING 1210
SWIDTH 632 0
DWIDTH 18 0
BBX 14 20 2 0
BITMAP
E000
E000
E000
E000
E000
E000
E3E0
EFF8
FFFC
F83C
F01C
E00C
E00C
E00C
E00C
E00C
E00C
E00C
E00C
E00C
ENDCHAR
STARTCHAR 04BB
ENCODING 1211
SWIDTH 561 0
DWIDTH 16 0
BBX 12 20 2 0
BITMAP
E000
E000
E000
E000
E000
E000
E780
EFC0
FFE0
F0E0
E070
E070
E070
E070
E070
E070
E070
E070
E070
E070
ENDCHAR
STARTCHAR 04BC
ENCODING 1212
SWIDTH 737 0
DWIDTH 21 0
BBX 18 20 1 0
BITMAP
007C00
01FF00
03FF80
0383C0
0701C0
0701C0
E701C0
E701C0
FFFFC0
FFFFC0
7FFFC0
070000
070000
070000
070000
070080
0381C0
03FFC0
01FF80
007E00
ENDCHAR
STARTCHAR 04BD
ENCODING 1213
SWIDTH 632 0
DWIDTH 18 0
BBX 15 14 1 0
BITMAP
01F0
07F8
0FFC
0E0E
CC0E
EC0E
FFFE
7FFE
0C00
0E00
0E08
0FFC
07FC
01F0
ENDCHAR
STARTCHAR 04BE
ENCODING 1214
SWIDTH 737 0
DWIDTH 21 0
BBX 18 24 1 -4
BITMAP
007C00
01FF00
03FF80
038380
0701C0
0701C0
0701C0
E701C0
E701C0
FFFFC0
FFFFC0
3FFFC0
070000
070000
070000
070080
0381C0
03FFC0
01FF80
007E00
003800
003800
003800
003800
ENDCHAR
STARTCHAR 04BF
ENCODING 1215
SWIDTH 632 0
DWIDTH 18 0
BBX 15 17 1 -3
BITMAP
01F0
07F8
07FC
0E0E
CC0E
CC0E
FFFE
7FFE
0C00
0E00
0F08
0FFC
07FC
01F0
00E0
00E0
00E0
ENDCHAR
STARTCHAR 04C0
ENCODING 1216
SWIDTH 280 0
DWIDTH 8 0
BBX 3 20 2 0
BITMAP
E0
E0
E0
E0
E0
E0
E0
E0
E0
E0
E0
E0
E0
E0
E0
E0
E0
E0
E0
E0
ENDCHAR
STARTCHAR 04C1
ENCODING 1217
SWIDTH 948 0
DWIDTH 27 0
BBX 25 25 1 1
BITMAP
00C18000
00FF8000
007F0000
00000000
00000000
F01C0700
781C0F00
381C0E00
3C1C1C00
1C1C3C00
0E1C3800
0F1C7000
071CF000
03FFE000
03FFC000
03FFE000
079CF000
071C7000
0F1C7800
1E1C3C00
1C1C1C00
3C1C1E00
781C0F00
F01C0700
E01C0780
ENDCHAR
STARTCHAR 04C2
ENCODING 1218
SWIDTH 702 0
DWIDTH 20 0
BBX 20 22 0 0
BITMAP
030C00
030C00
039C00
03FC00
01F800
000000
000000
000000
7060E0
3861C0
1C6380
1C6380
0E6700
07FE00
07FE00
07FE00
0E6700
1C6380
3C63C0
3861C0
7861E0
F060F0
ENDCHAR
STARTCHAR 04C3
ENCODING 1219
SWIDTH 632 0
DWIDTH 18 0
BBX 15 26 2 -6
BITMAP
E03C
E038
E070
E0F0
E0E0
E1E0
E1C0
E380
E380
FFE0
FFF0
FFF8
E03C
E01C
E00E
E00E
E00E
E00E
E00E
E00E
000E
001C
003C
00F8
00F0
00C0
ENDCHAR
STARTCHAR 04C4
ENCODING 1220
SWIDTH 561 0
DWIDTH 16 0
BBX 13 20 2 -6
BITMAP
E0E0
E1E0
E1C0
E380
E700
EF00
FF80
FFC0
FFE0
E0F0
E070
E030
E038
E038
0030
0070
00F0
03E0
03E0
0300
ENDCHAR
STARTCHAR 04C5
ENCODING 1221
SWIDTH 737 0
DWIDTH 21 0
BBX 18 24 2 -4
BITMAP
1FFF00
1FFF00
1FFF00
1C0700
1C0700
1C0700
1C0700
1C0700
1C0700
1C0700
1C0700
1C0700
1C0700
1C0700
1C0700
380700
780700
F807C0
F007C0
E007C0
0001C0
0001C0
000180
000380
ENDCHAR
STARTCHAR 04C6
ENCODING 1222
SWIDTH 561 0
DWIDTH 16 0
BBX 15 18 1 -4
BITMAP
1FF8
1FF8
1FF8
1838
1838
1838
1838
1838
3838
3838
3838
F83E
F03E
E03E
000C
000C
001C
001C
ENDCHAR
STARTCHAR 04C7
ENCODING 1223
SWIDTH 667 0
DWIDTH 19 0
BBX 15 26 2 -6
BITMAP
E00E
E00E
E00E
E00E
E00E
E00E
E00E
E00E
E00E
FFFE
FFFE
FFFE
E00E
E00E
E00E
E00E
E00E
E00E
E00E
E00E
000E
000E
000E
007C
007C
0078
ENDCHAR
STARTCHAR 04C8
ENCODING 1224
SWIDTH 561 0
DWIDTH 16 0
BBX 12 20 2 -6
BITMAP
E070
E070
E070
E070
E070
E070
FFF0
FFF0
FFF0
E070
E070
E070
E070
E070
0070
0070
0070
01F0
01E0
01C0
ENDCHAR
STARTCHAR 04C9
ENCODING 1225
SWIDTH 667 0
DWIDTH 19 0
BBX 17 24 2 -4
BITMAP
E00E00
E00E00
E00E00
E00E00
E00E00
E00E00
E00E00
E00E00
E00E00
FFFE00
FFFE00
FFFE00
E00E00
E00E00
E00E00
E00E00
E00E00
E00F80
E00F80
E00F80
000380
000300
000700
000700
ENDCHAR
STARTCHAR 04CA
ENCODING 1226
SWIDTH 597 0
DWIDTH 17 0
BBX 14 18 2 -4
BITMAP
E070
E070
E070
E070
E070
E070
FFF0
FFF0
FFF0
E070
E070
E07C
E07C
E07C
001C
001C
001C
0018
ENDCHAR
STARTCHAR 04CB
ENCODING 1227
SWIDTH 632 0
DWIDTH 18 0
BBX 13 24 2 -4
BITMAP
E038
E038
E038
E038
E038
E038
E038
E038
E038
E038
F078
7FF8
3FF8
1F38
0038
0038
0038
00F8
00F8
00F8
00C0
00C0
00C0
00C0
ENDCHAR
STARTCHAR 04CC
ENCODING 1228
SWIDTH 561 0
DWIDTH 16 0
BBX 12 18 2 -4
BITMAP
E070
E070
E070
E070
E070
E070
F0F0
7FF0
7F70
1E70
0070
03F0
03F0
03F0
0380
0380
0380
0380
ENDCHAR
STARTCHAR 04CD
ENCODING 1229
SWIDTH 772 0
DWIDTH 22 0
BBX 20 24 2 -4
BITMAP
E00180
F00380
F00380
F80780
F80780
FC0F80
FC0F80
EC1D80
EE1D80
E61980
E73980
E73180
E3F180
E3F180
E1E180
E1E180
E0C180
E001F0
E001F0
E001F0
000060
0000E0
0000E0
0000E0
ENDCHAR
STARTCHAR 04CE
ENCODING 1230
SWIDTH 632 0
DWIDTH 18 0
BBX 16 18 2 -4
BITMAP
E01C
E03C
F03C
F87C
F87C
FCFC
FCDC
EFDC
EF9C
E79C
E31C
E01F
E01F
E01F
0006
000E
000E
000E
ENDCHAR
STARTCHAR 04CF
ENCODING 1231
SWIDTH 280 0
DWIDTH 8 0
BBX 3 20 2 0
BITMAP
E0
E0
E0
E0
E0
E0
E0
E0
E0
E0
E0
E0
E0
E0
E0
E0
E0
E0
E0
E0
ENDCHAR
STARTCHAR 04D0
ENCODING 1232
SWIDTH 632 0
DWIDTH 18 0
BBX 16 26 1 0
BITMAP
1000
0C38
0FF0
07E0
0000
0000
0180
03C0
03C0
03E0
07E0
0760
0E70
0E70
0C30
1C38
1C38
1818
381C
3FFC
3FFE
7FFE
700E
E007
E007
E007
ENDCHAR
STARTCHAR 04D1
ENCODING 1233
SWIDTH 526 0
DWIDTH 15 0
BBX 11 22 2 0
BITMAP
61C0
61C0
7180
3F80
3F00
0400
0000
0000
3F00
7FC0
7FC0
00E0
00E0
00E0
7FE0
FFE0
E0E0
C0E0
C0E0
F1E0
FFE0
3EE0
ENDCHAR
STARTCHAR 04D2
ENCODING 1234
SWIDTH 632 0
DWIDTH 18 0
BBX 16 25 1 0
BITMAP
0E70
0E70
0E70
0000
0000
0180
03C0
03C0
03E0
07E0
0760
0E70
0E70
0C30
1C38
1C38
1818
381C
3FFC
3FFE
7FFE
700E
E007
E007
E007
ENDCHAR
STARTCHAR 04D3
ENCODING 1235
SWIDTH 526 0
DWIDTH 15 0
BBX 11 20 2 0
BITMAP
71C0
71C0
71C0
0000
0000
0000
3F00
7FC0
7FC0
00E0
00E0
00E0
7FE0
FFE0
E0E0
C0E0
C0E0
F1E0
FFE0
3EE0
ENDCHAR
STARTCHAR 04D4
ENCODING 1236
SWIDTH 948 0
DWIDTH 27 0
BBX 26 20 0 0
BITMAP
001FFFC0
003FFFC0
003FFFC0
00770000
00770000
00E70000
01C70000
01C70000
0387FF00
0387FF00
0707FF00
07070000
0E070000
0FFF0000
1FFF0000
3FFF0000
38070000
7007FFC0
7007FFC0
E007FFC0
ENDCHAR
STARTCHAR 04D5
ENCODING 1237
SWIDTH 807 0
DWIDTH 23 0
BBX 20 14 2 0
BITMAP
3F0F00
7FBFC0
7FBFE0
00F0E0
00E060
00E070
7FFFF0
FFFFF0
E0E000
C0E000
C1F040
FFBFE0
FF9FE0
3E0F80
ENDCHAR
STARTCHAR 04D6
ENCODING 1238
SWIDTH 597 0
DWIDTH 17 0
BBX 13 26 2 0
BITMAP
2000
1870
1FE0
0FC0
0000
0000
FFF8
FFF8
FFF8
E000
E000
E000
E000
E000
FFF0
FFF0
FFF0
E000
E000
E000
E000
E000
E000
FFF8
FFF8
FFF8
ENDCHAR
STARTCHAR 04D7
ENCODING 1239
SWIDTH 526 0
DWIDTH 15 0
BBX 11 22 2 0
BITMAP
70C0
71C0
31C0
3F80
1F80
0400
0000
0000
1F00
7FC0
7FC0
E0E0
E0E0
C060
FFE0
FFE0
C000
E000
F040
7FE0
7FC0
1F00
ENDCHAR
STARTCHAR 04D8
ENCODING 1240
SWIDTH 632 0
DWIDTH 18 0
BBX 13 20 2 0
BITMAP
0FC0
3FE0
7FF0
7078
2038
0038
0018
0018
0018
FFF8
FFF8
FFF8
E018
E018
E038
7038
7078
7FF0
3FF0
0FC0
ENDCHAR
STARTCHAR 04D9
ENCODING 1241
SWIDTH 526 0
DWIDTH 15 0
BBX 11 14 2 0
BITMAP
1F00
7F80
FFC0
61E0
00E0
0060
FFE0
FFE0
C060
E0E0
E0E0
7FC0
7FC0
1F00
ENDCHAR
STARTCHAR 04DA
ENCODING 1242
SWIDTH 632 0
DWIDTH 18 0
BBX 13 24 2 0
BITMAP
1C60
1C60
1C60
0000
0FC0
3FE0
7FF0
7078
2038
0038
0018
0018
0018
FFF8
FFF8
FFF8
E018
E018
E038
7038
7078
7FF0
3FF0
0FC0
ENDCHAR
STARTCHAR 04DB
ENCODING 1243
SWIDTH 526 0
DWIDTH 15 0
BBX 11 20 2 0
BITMAP
71C0
71C0
71C0
0000
0000
0000
1F00
7F80
FFC0
61E0
00E0
0060
FFE0
FFE0
C060
E0E0
E0E0
7FC0
7FC0
1F00
ENDCHAR
STARTCHAR 04DC
ENCODING 1244
SWIDTH 948 0
DWIDTH 27 0
BBX 25 25 1 0
BITMAP
00E38000
00E38000
00E38000
00000000
00000000
F01C0700
781C0F00
381C0E00
3C1C1C00
1C1C3C00
0E1C3800
0F1C7000
071CF000
03FFE000
03FFC000
03FFE000
079CF000
071C7000
0F1C7800
1E1C3C00
1C1C1C00
3C1C1E00
781C0F00
F01C0700
E01C0780
ENDCHAR
STARTCHAR 04DD
ENCODING 1245
SWIDTH 702 0
DWIDTH 20 0
BBX 20 20 0 0
BITMAP
039C00
039C00
039C00
000000
000000
000000
7060E0
3861C0
1C6380
1C6380
0E6700
07FE00
07FE00
07FE00
0E6700
1C6380
3C63C0
3861C0
7861E0
F060F0
ENDCHAR
STARTCHAR 04DE
ENCODING 1246
SWIDTH 597 0
DWIDTH 17 0
BBX 13 24 2 0
BITMAP
38E0
38E0
38E0
0000
0F80
3FE0
7FF0
F070
E070
0030
0070
0070
0FE0
0FC0
0FE0
0070
0038
0038
0038
E038
E070
FFF0
7FE0
1F80
ENDCHAR
STARTCHAR 04DF
ENCODING 1247
SWIDTH 456 0
DWIDTH 13 0
BBX 11 20 1 0
BITMAP
71C0
71C0
71C0
0000
0000
0000
1F00
3FC0
7FC0
E1C0
00C0
03C0
0F00
0FC0
00E0
00E0
E0E0
7FE0
7FC0
1F00
ENDCHAR
STARTCHAR 04E0
ENCODING 1248
SWIDTH 597 0
DWIDTH 17 0
BBX 13 20 2 0
BITMAP
7FF0
7FF0
7FF0
00E0
01E0
03C0
0380
0700
0F80
0FE0
0FF0
0070
0038
0038
0038
C038
E070
FFF0
7FE0
1F80
ENDCHAR
STARTCHAR 04E1
ENCODING 1249
SWIDTH 421 0
DWIDTH 12 0
BBX 11 18 0 -4
BITMAP
7FC0
7FC0
7FC0
0380
0780
0700
0E00
1F80
1FC0
01E0
00E0
00E0
00E0
E0E0
F1E0
7FC0
3FC0
1F00
ENDCHAR
STARTCHAR 04E2
ENCODING 1250
SWIDTH 702 0
DWIDTH 20 0
BBX 15 25 2 0
BITMAP
1FF8
1FF8
1FF8
0000
0000
E006
E00E
E01E
E01E
E03E
E07E
E07E
E0EE
E1CE
E1CE
E38E
E30E
E70E
EE0E
EC0E
FC0E
F80E
F00E
F00E
E00E
ENDCHAR
STARTCHAR 04E3
ENCODING 1251
SWIDTH 561 0
DWIDTH 16 0
BBX 12 20 2 0
BITMAP
7FE0
7FE0
7FE0
0000
0000
0000
E070
E0F0
E0F0
E1F0
E3F0
E3F0
E770
EE70
EE70
FC70
F870
F070
F070
E070
ENDCHAR
STARTCHAR 04E4
ENCODING 1252
SWIDTH 702 0
DWIDTH 20 0
BBX 15 25 2 0
BITMAP
0C70
0C70
0C70
0000
0000
E006
E00E
E01E
E01E
E03E
E07E
E07E
E0EE
E1CE
E1CE
E38E
E30E
E70E
EE0E
EC0E
FC0E
F80E
F00E
F00E
E00E
ENDCHAR
STARTCHAR 04E5
ENCODING 1253
SWIDTH 561 0
DWIDTH 16 0
BBX 12 20 2 0
BITMAP
39C0
39C0
39C0
0000
0000
0000
E070
E0F0
E0F0
E1F0
E3F0
E3F0
E770
EE70
EE70
FC70
F870
F070
F070
E070
ENDCHAR
STARTCHAR 04E6
ENCODING 1254
SWIDTH 632 0
DWIDTH 18 0
BBX 14 24 2 0
BITMAP
1CE0
1CE0
1CE0
0000
0FC0
3FF0
7FF8
7878
F03C
E01C
E01C
E01C
E01C
E01C
E01C
E01C
E01C
E01C
E01C
F03C
7838
7FF8
3FF0
0FC0
ENDCHAR
STARTCHAR 04E7
ENCODING 1255
SWIDTH 526 0
DWIDTH 15 0
BBX 11 20 2 0
BITMAP
71C0
71C0
71C0
0000
0000
0000
1F00
7FC0
7FE0
E0E0
E0E0
E060
E060
E060
E060
E0E0
E0E0
7FE0
7FC0
1F00
ENDCHAR
STARTCHAR 04E8
ENCODING 1256
SWIDTH 632 0
DWIDTH 18 0
BBX 14 20 2 0
BITMAP
0FC0
3FF0
7FF8
7878
F03C
E01C
E01C
E01C
FFFC
FFFC
FFFC
E01C
E01C
E01C
E01C
F03C
7838
7FF8
3FF0
0FC0
ENDCHAR
STARTCHAR 04E9
ENCODING 1257
SWIDTH 526 0
DWIDTH 15 0
BBX 11 14 2 0
BITMAP
1F00
7FC0
7FE0
E0E0
E0E0
E060
FFE0
FFE0
E060
E0E0
E0E0
7FE0
7FC0
1F00
ENDCHAR
STARTCHAR 04EA
ENCODING 1258
SWIDTH 632 0
DWIDTH 18 0
BBX 14 24 2 0
BITMAP
1CE0
1CE0
1CE0
0000
0FC0
3FF0
7FF8
7878
F03C
E01C
E01C
E01C
FFFC
FFFC
FFFC
E01C
E01C
E01C
E01C
F03C
7838
7FF8
3FF0
0FC0
ENDCHAR
STARTCHAR 04EB
ENCODING 1259
SWIDTH 526 0
DWIDTH 15 0
BBX 11 20 2 0
BITMAP
71C0
71C0
71C0
0000
0000
0000
1F00
7FC0
7FE0
E0E0
E0E0
E060
FFE0
FFE0
E060
E0E0
E0E0
7FE0
7FC0
1F00
ENDCHAR
STARTCHAR 04EC
ENCODING 1260
SWIDTH 597 0
DWIDTH 17 0
BBX 13 24 2 0
BITMAP
38E0
38E0
38E0
0000
0F80
3FE0
7FF0
F070
E038
E038
0038
0038
3FF8
3FF8
3FF8
0038
0038
0038
E038
E038
F070
7FF0
3FE0
0F80
ENDCHAR
STARTCHAR 04ED
ENCODING 1261
SWIDTH 491 0
DWIDTH 14 0
BBX 11 20 1 0
BITMAP
31C0
31C0
31C0
0000
0000
0000
3F00
7FC0
FFC0
61E0
00E0
3FE0
3FE0
3FE0
00E0
00E0
40E0
FFC0
7FC0
3F00
ENDCHAR
STARTCHAR 04EE
ENCODING 1262
SWIDTH 597 0
DWIDTH 17 0
BBX 16 25 1 0
BITMAP
1FF8
1FF8
1FF8
0000
0000
E00F
F00E
700E
701C
381C
381C
1C38
1C38
0C38
0E70
0E70
0760
07E0
03E0
03C0
01C0
01C0
1F80
1F00
1E00
ENDCHAR
STARTCHAR 04EF
ENCODING 1263
SWIDTH 491 0
DWIDTH 14 0
BBX 12 26 1 -6
BITMAP
7FE0
7FE0
7FE0
0000
0000
0000
E070
E070
6060
70E0
70E0
38C0
39C0
19C0
1F80
1F80
0F80
0F00
0F00
0700
0E00
0E00
1C00
3C00
3C00
3000
ENDCHAR
STARTCHAR 04F0
ENCODING 1264
SWIDTH 597 0
DWIDTH 17 0
BBX 16 25 1 0
BITMAP
0C70
0C70
0C70
0000
0000
E00F
F00E
700E
701C
381C
381C
1C38
1C38
0C38
0E70
0E70
0760
07E0
03E0
03C0
01C0
01C0
1F80
1F00
1E00
ENDCHAR
STARTCHAR 04F1
ENCODING 1265
SWIDTH 491 0
DWIDTH 14 0
BBX 12 26 1 -6
BITMAP
38C0
38C0
38C0
0000
0000
0000
E070
E070
6060
70E0
70E0
38C0
39C0
19C0
1F80
1F80
0F80
0F00
0F00
0700
0E00
0E00
1C00
3C00
3C00
3000
ENDCHAR
STARTCHAR 04F2
ENCODING 1266
SWIDTH 597 0
DWIDTH 17 0
BBX 16 26 1 0
BITMAP
0218
073C
0E78
0C70
0020
0000
E00F
F00E
700E
701C
381C
381C
1C38
1C38
0C38
0E70
0E70
0760
07E0
03E0
03C0
01C0
01C0
1F80
1F00
1E00
ENDCHAR
STARTCHAR 04F3
ENCODING 1267
SWIDTH 491 0
DWIDTH 14 0
BBX 12 29 1 -6
BITMAP
0800
0C70
1CF0
38E0
39C0
30C0
0000
0000
0000
E070
E070
6060
70E0
70E0
38C0
39C0
19C0
1F80
1F80
0F80
0F00
0F00
0700
0E00
0E00
1C00
3C00
3C00
3000
ENDCHAR
STARTCHAR 04F4
ENCODING 1268
SWIDTH 632 0
DWIDTH 18 0
BBX 13 25 2 0
BITMAP
38E0
38E0
38E0
0000
0000
E038
E038
E038
E038
E038
E038
E038
E038
E038
E038
F078
7FF8
3FF8
1F38
0038
0038
0038
0038
0038
0038
ENDCHAR
STARTCHAR 04F5
ENCODING 1269
SWIDTH 561 0
DWIDTH 16 0
BBX 12 20 2 0
BITMAP
31C0
31C0
31C0
0000
0000
0000
E070
E070
E070
E070
E070
E070
F0F0
7FF0
7F70
1E70
0070
0070
0070
0070
ENDCHAR
STARTCHAR 04F6
ENCODING 1270
SWIDTH 456 0
DWIDTH 13 0
BBX 12 24 2 -4
BITMAP
FFF0
FFF0
FFF0
E000
E000
E000
E000
E000
E000
E000
E000
E000
E000
E000
E000
E000
E000
FC00
FC00
FC00
1C00
1C00
1C00
1C00
ENDCHAR
STARTCHAR 04F7
ENCODING 1271
SWIDTH 421 0
DWIDTH 12 0
BBX 9 17 2 -3
BITMAP
FF80
FF80
FF80
E000
E000
E000
E000
E000
E000
E000
E000
FC00
FC00
FC00
1C00
1C00
1C00
ENDCHAR
STARTCHAR 04F8
ENCODING 1272
SWIDTH 807 0
DWIDTH 23 0
BBX 19 25 2 0
BITMAP
031C00
031C00
031C00
000000
000000
E000E0
E000E0
E000E0
E000E0
E000E0
E000E0
E000E0
E000E0
FFC0E0
FFF0E0
FFF8E0
E078E0
E038E0
E018E0
E01CE0
E038E0
E038E0
FFF8E0
FFF0E0
FFC0E0
ENDCHAR
STARTCHAR 04F9
ENCODING 1273
SWIDTH 702 0
DWIDTH 20 0
BBX 16 20 2 0
BITMAP
0C70
0C70
0C70
0000
0000
0000
E007
E007
E007
E007
E007
FE07
FF87
FFC7
E1E7
E0E7
E1E7
FFC7
FFC7
FF07
ENDCHAR
STARTCHAR 04FA
ENCODING 1274
SWIDTH 561 0
DWIDTH 16 0
BBX 14 24 2 -4
BITMAP
1FFC
1FFC
1FFC
1C00
1C00
1C00
1C00
1C00
1C00
FFC0
FFC0
FFC0
1C00
1C00
1C00
1C00
1C00
1C00
1F00
1F00
0700
1F00
1F00
1C00
ENDCHAR
STARTCHAR 04FB
ENCODING 1275
SWIDTH 456 0
DWIDTH 13 0
BBX 12 18 1 -4
BITMAP
3FF0
3FF0
3FF0
3800
3800
3800
FF80
FF80
FF80
3800
3800
3800
3F00
3F00
0700
3E00
3E00
3C00
ENDCHAR
STARTCHAR 04FC
ENCODING 1276
SWIDTH 561 0
DWIDTH 16 0
BBX 14 26 1 -6
BITMAP
E01C
E038
7038
3870
3870
1CE0
1DC0
0FC0
0780
0780
0780
0F80
0FC0
1CE0
1CE0
3870
7070
7038
E038
E01C
001C
000C
001C
003C
003C
0030
ENDCHAR
STARTCHAR 04FD
ENCODING 1277
SWIDTH 491 0
DWIDTH 14 0
BBX 12 20 1 -6
BITMAP
E070
70E0
38E0
39C0
1F80
0F80
0F00
0F00
0F80
1F80
39C0
38E0
70E0
E070
0030
0030
0030
00F0
00F0
00C0
ENDCHAR
STARTCHAR 04FE
ENCODING 1278
SWIDTH 561 0
DWIDTH 16 0
BBX 14 20 1 0
BITMAP
E01C
E038
7038
3870
3870
1CE0
1DC0
0FC0
7FF8
7FF8
7FF8
0F80
0FC0
1CE0
1CE0
3870
7070
7038
E01C
E01C
ENDCHAR
STARTCHAR 04FF
ENCODING 1279
SWIDTH 491 0
DWIDTH 14 0
BBX 12 14 1 0
BITMAP
E070
70E0
38E0
39C0
1F80
0F80
7FF0
7FF0
0F80
1F80
39C0
38E0
70F0
E070
ENDCHAR
STARTCHAR 0524
ENCODING 1316
SWIDTH 702 0
DWIDTH 20 0
BBX 17 24 2 -4
BITMAP
FFFE00
FFFE00
FFFE00
E00E00
E00E00
E00E00
E00E00
E00E00
E00E00
E00E00
E00E00
E00E00
E00E00
E00E00
E00E00
E00E00
E00E00
E00F80
E00F80
E00F80
000380
000380
000380
000380
ENDCHAR
STARTCHAR 0525
ENCODING 1317
SWIDTH 561 0
DWIDTH 16 0
BBX 14 17 2 -3
BITMAP
FFF0
FFF0
FFF0
E070
E070
E070
E070
E070
E070
E070
E070
E07C
E07C
E07C
000C
000C
000C
ENDCHAR
STARTCHAR 1E62
ENCODING 7778
SWIDTH 597 0
DWIDTH 17 0
BBX 15 24 1 -4
BITMAP
07E0
1FFC
3FFC
3808
7000
7000
7000
7800
3E00
1FE0
0FF8
007C
001C
000E
000E
200E
701C
FFFC
3FF8
0FE0
0000
0380
0380
0380
ENDCHAR
STARTCHAR 1E63
ENCODING 7779
SWIDTH 526 0
DWIDTH 15 0
BBX 12 19 1 -5
BITMAP
1F80
3FF0
7FF0
7020
6000
7800
7FE0
1FF0
0070
0030
6070
FFF0
7FE0
1FC0
0000
0000
0700
0700
0700
ENDCHAR
STARTCHAR 1EA0
ENCODING 7840
SWIDTH 632 0
DWIDTH 18 0
BBX 16 25 1 -5
BITMAP
0180
03C0
03C0
03E0
07E0
0760
0E70
0E70
0C30
1C38
1C38
1818
381C
3FFC
3FFE
7FFE
700E
E007
E007
E007
0000
0000
0180
0180
0180
ENDCHAR
STARTCHAR 1EA1
ENCODING 7841
SWIDTH 526 0
DWIDTH 15 0
BBX 11 19 2 -5
BITMAP
3F00
7FC0
7FC0
00E0
00E0
00E0
7FE0
FFE0
E0E0
C0E0
C0E0
F1E0
FFE0
3EE0
0000
0000
0E00
0E00
0E00
ENDCHAR
STARTCHAR 1EB8
ENCODING 7864
SWIDTH 597 0
DWIDTH 17 0
BBX 13 25 2 -5
BITMAP
FFF8
FFF8
FFF8
E000
E000
E000
E000
E000
FFF0
FFF0
FFF0
E000
E000
E000
E000
E000
E000
FFF8
FFF8
FFF8
0000
0000
0300
0300
0300
ENDCHAR
STARTCHAR 1EB9
ENCODING 7865
SWIDTH 526 0
DWIDTH 15 0
BBX 11 19 2 -5
BITMAP
1F00
7FC0
7FC0
E0E0
E0E0
C060
FFE0
FFE0
C000
E000
F040
7FE0
7FC0
1F00
0000
0000
0E00
0E00
0E00
ENDCHAR
STARTCHAR 1ECA
ENCODING 7882
SWIDTH 280 0
DWIDTH 8 0
BBX 3 25 2 -5
BITMAP
E0
E0
E0
E0
E0
E0
E0
E0
E0
E0
E0
E0
E0
E0
E0
E0
E0
E0
E0
E0
00
00
E0
E0
E0
ENDCHAR
STARTCHAR 1ECB
ENCODING 7883
SWIDTH 245 0
DWIDTH 7 0
BBX 3 25 2 -5
BITMAP
E0
E0
E0
00
00
00
E0
E0
E0
E0
E0
E0
E0
E0
E0
E0
E0
E0
E0
E0
00
00
E0
E0
E0
ENDCHAR
STARTCHAR 1ECC
ENCODING 7884
SWIDTH 632 0
DWIDTH 18 0
BBX 14 25 2 -5
BITMAP
0FC0
3FF0
7FF8
7878
F03C
E01C
E01C
E01C
E01C
E01C
E01C
E01C
E01C
E01C
E01C
F03C
7838
7FF8
3FF0
0FC0
0000
0000
0300
0300
0300
ENDCHAR
STARTCHAR 1ECD
ENCODING 7885
SWIDTH 526 0
DWIDTH 15 0
BBX 11 19 2 -5
BITMAP
1F00
7FC0
7FE0
E0E0
E0E0
E060
E060
E060
E060
E0E0
E0E0
7FE0
7FC0
1F00
0000
0000
0E00
0E00
0E00
ENDCHAR
STARTCHAR 1EE4
ENCODING 7908
SWIDTH 632 0
DWIDTH 18 0
BBX 14 25 2 -5
BITMAP
E01C
E01C
E01C
E01C
E01C
E01C
E01C
E01C
E01C
E01C
E01C
E01C
E01C
E01C
E01C
701C
7838
3FF8
3FF0
0FC0
0000
0000
0380
0380
0380
ENDCHAR
STARTCHAR 1EE5
ENCODING 7909
SWIDTH 561 0
DWIDTH 16 0
BBX 12 19 2 -5
BITMAP
E070
E070
E070
E070
E070
E070
E070
E070
E070
E070
F0F0
7FF0
7F70
1E70
0000
0000
0E00
0E00
0E00
ENDCHAR
STARTCHAR 2013
ENCODING 8211
SWIDTH 561 0
DWIDTH 16 0
BBX 12 3 2 6
BITMAP
FFF0
FFF0
FFF0
ENDCHAR
STARTCHAR 2014
ENCODING 8212
SWIDTH 842 0
DWIDTH 24 0
BBX 20 3 2 6
BITMAP
FFFFF0
FFFFF0
FFFFF0
ENDCHAR
STARTCHAR 2015
ENCODING 8213
SWIDTH 842 0
DWIDTH 24 0
BBX 20 3 2 6
BITMAP
FFFFF0
FFFFF0
FFFFF0
ENDCHAR
STARTCHAR 2018
ENCODING 8216
SWIDTH 175 0
DWIDTH 5 0
BBX 3 5 1 15
BITMAP
20
60
E0
E0
E0
ENDCHAR
STARTCHAR 2019
ENCODING 8217
SWIDTH 175 0
DWIDTH 5 0
BBX 3 6 1 14
BITMAP
E0
E0
E0
C0
C0
80
ENDCHAR
STARTCHAR 201A
ENCODING 8218
SWIDTH 210 0
DWIDTH 6 0
BBX 3 5 2 -3
BITMAP
E0
E0
E0
C0
80
ENDCHAR
STARTCHAR 201C
ENCODING 8220
SWIDTH 316 0
DWIDTH 9 0
BBX 7 6 1 14
BITMAP
22
66
6E
EE
EE
EE
ENDCHAR
STARTCHAR 201D
ENCODING 8221
SWIDTH 316 0
DWIDTH 9 0
BBX 7 6 1 14
BITMAP
EE
EE
EE
CC
C8
88
ENDCHAR
STARTCHAR 201E
ENCODING 8222
SWIDTH 351 0
DWIDTH 10 0
BBX 7 5 2 -3
BITMAP
EE
EE
EE
CC
88
ENDCHAR
STARTCHAR 2020
ENCODING 8224
SWIDTH 351 0
DWIDTH 10 0
BBX 8 13 1 7
BITMAP
18
18
18
FF
FF
FF
18
18
18
18
18
18
18
ENDCHAR
STARTCHAR 2021
ENCODING 8225
SWIDTH 351 0
DWIDTH 10 0
BBX 8 14 1 6
BITMAP
18
18
18
FF
FF
FF
18
18
FF
FF
FF
18
18
18
ENDCHAR
STARTCHAR 2022
ENCODING 8226
SWIDTH 280 0
DWIDTH 8 0
BBX 4 5 2 5
BITMAP
F0
F0
F0
F0
F0
ENDCHAR
STARTCHAR 2026
ENCODING 8230
SWIDTH 561 0
DWIDTH 16 0
BBX 13 3 2 0
BITMAP
E738
E738
E738
ENDCHAR
STARTCHAR 2030
ENCODING 8240
SWIDTH 948 0
DWIDTH 27 0
BBX 24 20 1 0
BITMAP
3C0E00
7C0C00
EE1C00
E61800
E63800
E63000
EE7000
7E6000
3CE000
00C000
01C000
038E1E
031F3F
073BBB
0639B3
0E39B3
0C39B3
1C3BB3
181F3F
380E1E
ENDCHAR
STARTCHAR 2039
ENCODING 8249
SWIDTH 316 0
DWIDTH 9 0
BBX 7 10 1 2
BITMAP
1E
1C
38
70
E0
E0
70
38
1C
1E
ENDCHAR
STARTCHAR 203A
ENCODING 8250
SWIDTH 316 0
DWIDTH 9 0
BBX 7 10 1 2
BITMAP
E0
70
38
3C
1E
1E
3C
38
70
E0
ENDCHAR
STARTCHAR 2070
ENCODING 8304
SWIDTH 316 0
DWIDTH 9 0
BBX 7 9 1 11
BITMAP
3C
7C
EE
E6
E6
E6
EE
7E
3C
ENDCHAR
STARTCHAR 2074
ENCODING 8308
SWIDTH 316 0
DWIDTH 9 0
BBX 7 9 1 11
BITMAP
38
30
30
70
60
6C
FE
FE
0C
ENDCHAR
STARTCHAR 20A0
ENCODING 8352
SWIDTH 772 0
DWIDTH 22 0
BBX 20 20 1 0
BITMAP
0F8000
3FE000
7FE000
704000
600000
E01FF0
E07FF0
E07FF0
E07000
E07000
607000
707FC0
7FFFC0
3FFFC0
0FF000
007000
007000
007FF0
007FF0
007FF0
ENDCHAR
STARTCHAR 20A1
ENCODING 8353
SWIDTH 597 0
DWIDTH 17 0
BBX 14 24 2 -2
BITMAP
0320
0360
0FE0
3FE0
3FF0
7E78
F6F8
E6DC
E6C0
E6C0
E6C0
ECC0
ED80
ED80
ED80
ED80
ED9C
F9B8
7B78
3FF0
3FE0
1FC0
3300
3600
ENDCHAR
STARTCHAR 20A2
ENCODING 8354
SWIDTH 597 0
DWIDTH 17 0
BBX 14 20 2 0
BITMAP
0FC0
3FE0
3FF0
7878
F038
E01C
E000
E000
E378
E378
E3F8
E380
E300
E300
E31C
F338
7B78
3FF0
3FE0
0FC0
ENDCHAR
STARTCHAR 20A3
ENCODING 8355
SWIDTH 561 0
DWIDTH 16 0
BBX 15 20 1 0
BITMAP
3FFE
3FFE
3FFE
3800
3800
3800
3800
3800
3FF8
3FF8
3FF8
3800
3800
3800
FF80
FF80
FF80
3800
3800
3800
ENDCHAR
STARTCHAR 20A4
ENCODING 8356
SWIDTH 597 0
DWIDTH 17 0
BBX 14 20 1 0
BITMAP
03E0
0FF8
1FFC
1C1C
381C
380C
3800
3800
7FE0
7FE0
3800
3800
7FE0
7FE0
3800
3800
3800
FFFC
FFFC
FFFC
ENDCHAR
STARTCHAR 20A5
ENCODING 8357
SWIDTH 842 0
DWIDTH 24 0
BBX 20 22 2 -4
BITMAP
0001C0
000380
000380
000300
EF87C0
FFCFE0
FFFFE0
F0FCF0
E07C70
E07870
E07870
E07070
E07070
E07070
E0E070
E0E070
E1E070
E1E070
038000
038000
030000
070000
ENDCHAR
STARTCHAR 20A6
ENCODING 8358
SWIDTH 737 0
DWIDTH 21 0
BBX 19 20 1 0
BITMAP
380380
3C0380
3C0380
3E0380
3E0380
3F0380
3B8380
3B8380
39C380
FFFFE0
FFFFE0
387380
387380
383B80
381F80
381F80
380F80
380780
380780
380380
ENDCHAR
STARTCHAR 20A7
ENCODING 8359
SWIDTH 632 0
DWIDTH 18 0
BBX 15 20 2 0
BITMAP
3FC0
3FF0
3FF8
3838
3838
FFFE
FFFE
FFFE
3838
3FF8
3FF0
3FC0
3800
3800
3800
3800
3800
3800
3800
3800
ENDCHAR
STARTCHAR 20A8
ENCODING 8360
SWIDTH 1123 0
DWIDTH 32 0
BBX 29 20 2 0
BITMAP
FFE00000
FFF00000
FFF80000
E03C0000
E01C0000
E01C0000
E01C0FC0
E01C1FF0
E03C3FF0
FFF83030
FFF03000
FFE03C00
E0E03FF0
E0E00FF0
E0700038
E0700038
E0382038
E03C7FF8
E01C3FF0
E01E0FC0
ENDCHAR
STARTCHAR 20A9
ENCODING 8361
SWIDTH 842 0
DWIDTH 24 0
BBX 24 20 0 0
BITMAP
701806
70180E
701C0E
303C0E
383C0C
383C1C
387E1C
38761C
18761C
FFFFFF
FFFFFF
1CE338
0CC338
0EC3B0
0FC3F0
0FC1F0
0781F0
0781E0
0781E0
0780E0
ENDCHAR
STARTCHAR 20AA
ENCODING 8362
SWIDTH 702 0
DWIDTH 20 0
BBX 16 16 2 0
BITMAP
FF87
FFC7
FFE7
E0E7
E067
EE67
EE67
EE67
EE67
EE67
EE67
EE07
E707
E7FF
E3FF
E1FF
ENDCHAR
STARTCHAR 20AB
ENCODING 8363
SWIDTH 561 0
DWIDTH 16 0
BBX 13 24 2 -5
BITMAP
0060
0FF8
0FF8
0FF8
0060
1E60
7F60
7FE0
F0E0
E060
E060
E060
E060
E060
E060
E060
F0E0
7FE0
7F60
1E60
0000
FFF0
FFF0
FFF0
ENDCHAR
STARTCHAR 20AC
ENCODING 8364
SWIDTH 632 0
DWIDTH 18 0
BBX 14 20 2 0
BITMAP
07C0
0FF0
1FF8
3C38
381C
7000
7000
FF80
FF80
7000
7000
FF80
FF80
7000
7000
381C
3C3C
1FF8
0FF0
07C0
ENDCHAR
STARTCHAR 20AD
ENCODING 8365
SWIDTH 667 0
DWIDTH 19 0
BBX 18 20 1 0
BITMAP
380700
380E00
381E00
383C00
383800
387000
38E000
39E000
39E000
FBFFC0
FFFFC0
3E7000
3C3800
3C3C00
381C00
381E00
380E00
380700
380780
380380
ENDCHAR
STARTCHAR 20AE
ENCODING 8366
SWIDTH 456 0
DWIDTH 13 0
BBX 14 20 0 0
BITMAP
FFFC
FFFC
FFFC
0700
0700
0700
0770
07F0
07F0
3F80
3F10
3F70
07F0
0FE0
3F80
3F00
3700
0700
0700
0700
ENDCHAR
STARTCHAR 20AF
ENCODING 8367
SWIDTH 1159 0
DWIDTH 33 0
BBX 30 26 1 -6
BITMAP
7FF80000
7FFE0000
7FFF0000
1C078000
1C038000
1C038000
1C0383E0
1C038FF8
1C038FF8
1C039C1C
1C039C1C
1C039C1C
1C03981C
1C03981C
1807181C
1807381C
180F3C38
FFFE3E78
FFFC3FF0
FFF03BE0
00003800
00003800
00003800
00003800
00003800
00003800
ENDCHAR
STARTCHAR 20B0
ENCODING 8368
SWIDTH 632 0
DWIDTH 18 0
BBX 17 25 -1 -5
BITMAP
007C00
01FF00
03FF00
038380
038380
038380
038380
038380
038380
01C700
01E700
00FE00
007E00
083C00
0C3E00
1E7E00
3FE700
3BE380
73C380
E18180
000180
000180
000380
00FF80
00FF00
ENDCHAR
STARTCHAR 20B1
ENCODING 8369
SWIDTH 632 0
DWIDTH 18 0
BBX 15 20 2 0
BITMAP
3FC0
3FF0
3FF8
FFFE
FFFE
381C
FFFE
FFFE
3838
3FF8
3FF0
3FC0
3800
3800
3800
3800
3800
3800
3800
3800
ENDCHAR
STARTCHAR 20B2
ENCODING 8370
SWIDTH 632 0
DWIDTH 18 0
BBX 14 24 2 -2
BITMAP
0700
0700
0FC0
3FE0
3FF0
7F78
F738
E71C
E700
E700
E700
E7FC
E7FC
E7FC
E71C
E71C
E71C
F73C
7F38
7FF8
3FF0
0FC0
0700
0700
ENDCHAR
STARTCHAR 20B3
ENCODING 8371
SWIDTH 702 0
DWIDTH 20 0
BBX 18 20 1 0
BITMAP
00E000
01E000
01E000
01F000
03F000
03B000
033800
073800
071800
FFFFC0
FFFFC0
0E0E00
1C0E00
FFFFC0
FFFFC0
380700
380700
380380
700380
700380
ENDCHAR
STARTCHAR 20B4
ENCODING 8372
SWIDTH 597 0
DWIDTH 17 0
BBX 15 20 1 0
BITMAP
0FC0
3FF0
7FF8
3038
001C
001C
001C
003C
FFFC
FFFC
0000
FFFC
FFFC
E000
E000
E000
701C
7FFE
3FF8
0FE0
ENDCHAR
STARTCHAR 20B5
ENCODING 8373
SWIDTH 597 0
DWIDTH 17 0
BBX 14 24 2 -2
BITMAP
0700
0700
0FC0
3FE0
3FF0
7F78
F738
E71C
E700
E700
E700
E700
E700
E700
E700
E700
E71C
F738
7F78
3FF0
3FE0
0FC0
0700
0700
ENDCHAR
STARTCHAR 20B6
ENCODING 8374
SWIDTH 561 0
DWIDTH 16 0
BBX 13 20 1 0
BITMAP
3860
3860
3860
3860
3860
3860
FFF8
FFF8
FFF8
3860
3860
3860
3860
3860
3860
3860
3860
3878
3878
3838
ENDCHAR
STARTCHAR 20B7
ENCODING 8375
SWIDTH 597 0
DWIDTH 17 0
BBX 14 21 1 -1
BITMAP
07E0
1FF8
3FFC
7818
7000
7000
7000
7000
7E00
3FE0
0FF8
00FC
001C
000C
4D8C
B6CC
A25C
E27C
7FF0
3FC0
2240
ENDCHAR
STARTCHAR 20B8
ENCODING 8376
SWIDTH 456 0
DWIDTH 13 0
BBX 14 20 0 0
BITMAP
FFFC
FFFC
FFFC
0000
0000
FFFC
FFFC
FFFC
0700
0700
0700
0700
0700
0700
0700
0700
0700
0700
0700
0700
ENDCHAR
STARTCHAR 20B9
ENCODING 8377
SWIDTH 597 0
DWIDTH 17 0
BBX 14 20 2 0
BITMAP
FFFC
FFFC
FFFC
03C0
01C0
FFFC
FFFC
FFFC
03C0
FFC0
FF80
FF00
0700
0380
0380
01C0
01C0
00E0
00E0
0070
ENDCHAR
STARTCHAR 20BA
ENCODING 8378
SWIDTH 632 0
DWIDTH 18 0
BBX 14 20 2 0
BITMAP
3000
3000
3000
30C0
33C0
3FC0
7F00
FC00
F0C0
B3C0
3FC0
7F00
FC0C
F00C
B00C
301C
301C
3FFC
3FF8
3FE0
ENDCHAR
STARTCHAR 20BB
ENCODING 8379
SWIDTH 702 0
DWIDTH 20 0
BBX 20 20 0 0
BITMAP
3C0000
7F0000
FF0000
E70000
E70000
F70000
7FFFC0
7FFFE0
1FFFE0
070070
077670
077670
3FFFE0
3FDFE0
070000
070000
030000
03FE00
03FE00
01FE00
ENDCHAR
STARTCHAR 20BC
ENCODING 8380
SWIDTH 737 0
DWIDTH 21 0
BBX 17 20 2 0
BITMAP
01C000
01C000
01C000
01C000
03E000
1FF800
3FFE00
7DDE00
79CF00
F1C700
E1C380
E1C380
E1C380
E1C380
E1C380
E1C380
E1C380
E1C380
E1C380
E1C380
ENDCHAR
STARTCHAR 20BD
ENCODING 8381
SWIDTH 667 0
DWIDTH 19 0
BBX 16 20 2 0
BITMAP
3FF0
3FFC
3FFE
380E
3807
3807
3807
3807
380E
FFFE
FFFC
FFF0
3800
3800
FF80
FF80
FF80
3800
3800
3800
ENDCHAR
STARTCHAR 20BE
ENCODING 8382
SWIDTH 702 0
DWIDTH 20 0
BBX 16 22 2 0
BITMAP
0670
0670
07F0
1FF8
3FFC
7E7E
767F
7677
E677
E677
E677
E000
E000
E000
E000
E000
6000
7000
3800
FFFF
FFFF
FFFF
ENDCHAR
STARTCHAR 2116
ENCODING 8470
SWIDTH 983 0
DWIDTH 28 0
BBX 25 20 2 0
BITMAP
E00E1E00
F00E3F00
F80E3300
F80E3380
FC0E3380
EE0E3380
EE0E3F00
E70E1F00
E78E0000
E38E3F80
E1CE3F80
E1EE3F80
E0EE0000
E07E0000
E07E0000
E03E0000
E03E0000
E01E0000
E00E0000
E00E0000
ENDCHAR
STARTCHAR 2122
ENCODING 8482
SWIDTH 667 0
DWIDTH 19 0
BBX 17 8 0 13
BITMAP
FEE180
FEE380
38F380
38F780
38DD80
38CD80
38C980
38C180
ENDCHAR
STARTCHAR 2133
ENCODING 8499
SWIDTH 807 0
DWIDTH 23 0
BBX 19 20 2 0
BITMAP
3800E0
3801E0
7801E0
7C03E0
7C03E0
7C07C0
7E06C0
760EC0
760CC0
771DC0
7319C0
7339C0
73B1C0
61F1C0
61E1C0
E1E1C0
E0C180
E00180
E00380
E00380
ENDCHAR
ENDFONT
